%FSLAX45Y45*%
G04 Gerber Fmt 4.5, Leading zero omitted, Abs format (unit mm)*
G04 Created by KiCad (PCBNEW (5.1.9)-1) date 2021-05-20 23:06:35*
%MOMM*%
%LPD*%
G01*
G04 APERTURE LIST*
%TA.AperFunction,Profile*%
%ADD10C,0.500000*%
%TD*%
%TA.AperFunction,Profile*%
%ADD11C,0.050000*%
%TD*%
%ADD12C,0.200000*%
%ADD13C,0.300000*%
G04 APERTURE END LIST*
D10*
X14100000Y-14500000D02*
X14100000Y-10950000D01*
X14200000Y-10850000D02*
X14200000Y-10950000D01*
X14100000Y-10950000D02*
X14200000Y-10950000D01*
X14100000Y-10850000D02*
X14200000Y-10850000D01*
X14000000Y-14500000D02*
X14100000Y-14500000D01*
X14000000Y-5400000D02*
X14000000Y-14500000D01*
X14100000Y-5400000D02*
X14000000Y-5400000D01*
X14100000Y-10850000D02*
X14100000Y-5400000D01*
X15900000Y-14500000D02*
X16000000Y-14500000D01*
X15900000Y-5400000D02*
X15900000Y-14500000D01*
X16000000Y-5400000D02*
X15900000Y-5400000D01*
X16000000Y-14500000D02*
X16000000Y-5400000D01*
D11*
X20000000Y-5000000D02*
X10000000Y-5000000D01*
X20000000Y-15000000D02*
X10000000Y-15000000D01*
X10000000Y-15000000D02*
X10000000Y-5000000D01*
X20000000Y-15000000D02*
X20000000Y-5000000D01*
X23710000Y-7630000D02*
X23710000Y-6130000D01*
X26410000Y-7630000D02*
X23710000Y-7630000D01*
X26410000Y-6130000D02*
X26410000Y-7630000D01*
X23710000Y-6130000D02*
X26410000Y-6130000D01*
X27060000Y-3580000D02*
X27060000Y-16380000D01*
X23060000Y-3580000D02*
X27060000Y-3580000D01*
X27060000Y-16380000D02*
X23060000Y-16380000D01*
X23060000Y-16380000D02*
X23060000Y-3580000D01*
D12*
D13*
X10283928Y-16848214D02*
X10283928Y-16548214D01*
X10355357Y-16548214D01*
X10398214Y-16562500D01*
X10426786Y-16591071D01*
X10441071Y-16619643D01*
X10455357Y-16676786D01*
X10455357Y-16719643D01*
X10441071Y-16776786D01*
X10426786Y-16805357D01*
X10398214Y-16833929D01*
X10355357Y-16848214D01*
X10283928Y-16848214D01*
X10583928Y-16848214D02*
X10583928Y-16648214D01*
X10583928Y-16705357D02*
X10598214Y-16676786D01*
X10612500Y-16662500D01*
X10641071Y-16648214D01*
X10669643Y-16648214D01*
X10769643Y-16848214D02*
X10769643Y-16648214D01*
X10769643Y-16548214D02*
X10755357Y-16562500D01*
X10769643Y-16576786D01*
X10783928Y-16562500D01*
X10769643Y-16548214D01*
X10769643Y-16576786D01*
X10955357Y-16848214D02*
X10926786Y-16833929D01*
X10912500Y-16805357D01*
X10912500Y-16548214D01*
X11112500Y-16848214D02*
X11083928Y-16833929D01*
X11069643Y-16805357D01*
X11069643Y-16548214D01*
X11455357Y-16848214D02*
X11455357Y-16548214D01*
X11555357Y-16762500D01*
X11655357Y-16548214D01*
X11655357Y-16848214D01*
X11926786Y-16848214D02*
X11926786Y-16691071D01*
X11912500Y-16662500D01*
X11883928Y-16648214D01*
X11826786Y-16648214D01*
X11798214Y-16662500D01*
X11926786Y-16833929D02*
X11898214Y-16848214D01*
X11826786Y-16848214D01*
X11798214Y-16833929D01*
X11783928Y-16805357D01*
X11783928Y-16776786D01*
X11798214Y-16748214D01*
X11826786Y-16733929D01*
X11898214Y-16733929D01*
X11926786Y-16719643D01*
X12069643Y-16648214D02*
X12069643Y-16948214D01*
X12069643Y-16662500D02*
X12098214Y-16648214D01*
X12155357Y-16648214D01*
X12183928Y-16662500D01*
X12198214Y-16676786D01*
X12212500Y-16705357D01*
X12212500Y-16791072D01*
X12198214Y-16819643D01*
X12183928Y-16833929D01*
X12155357Y-16848214D01*
X12098214Y-16848214D01*
X12069643Y-16833929D01*
X12341071Y-16819643D02*
X12355357Y-16833929D01*
X12341071Y-16848214D01*
X12326786Y-16833929D01*
X12341071Y-16819643D01*
X12341071Y-16848214D01*
X12341071Y-16662500D02*
X12355357Y-16676786D01*
X12341071Y-16691071D01*
X12326786Y-16676786D01*
X12341071Y-16662500D01*
X12341071Y-16691071D01*
M02*
