%FSLAX45Y45*%
G04 Gerber Fmt 4.5, Leading zero omitted, Abs format (unit mm)*
G04 Created by KiCad (PCBNEW (5.1.9)-1) date 2021-05-20 23:10:11*
%MOMM*%
%LPD*%
G01*
G04 APERTURE LIST*
%TA.AperFunction,Profile*%
%ADD10C,0.500000*%
%TD*%
%TA.AperFunction,Profile*%
%ADD11C,0.050000*%
%TD*%
%ADD12C,0.200000*%
%ADD13C,0.300000*%
G04 APERTURE END LIST*
D10*
X14100000Y-14500000D02*
X14100000Y-10950000D01*
X14200000Y-10850000D02*
X14200000Y-10950000D01*
X14100000Y-10950000D02*
X14200000Y-10950000D01*
X14100000Y-10850000D02*
X14200000Y-10850000D01*
X14000000Y-14500000D02*
X14100000Y-14500000D01*
X14000000Y-5400000D02*
X14000000Y-14500000D01*
X14100000Y-5400000D02*
X14000000Y-5400000D01*
X14100000Y-10850000D02*
X14100000Y-5400000D01*
X15900000Y-14500000D02*
X16000000Y-14500000D01*
X15900000Y-5400000D02*
X15900000Y-14500000D01*
X16000000Y-5400000D02*
X15900000Y-5400000D01*
X16000000Y-14500000D02*
X16000000Y-5400000D01*
D11*
X20000000Y-5000000D02*
X10000000Y-5000000D01*
X20000000Y-15000000D02*
X10000000Y-15000000D01*
X10000000Y-15000000D02*
X10000000Y-5000000D01*
X20000000Y-15000000D02*
X20000000Y-5000000D01*
D12*
X10032500Y-7205000D02*
X10072500Y-7245000D01*
X10072500Y-7205000D02*
X10032500Y-7245000D01*
X10032503Y-7405000D02*
X10072503Y-7445000D01*
X10072503Y-7405000D02*
X10032503Y-7445000D01*
X10032504Y-7305000D02*
X10072504Y-7345000D01*
X10072504Y-7305000D02*
X10032504Y-7345000D01*
X10047500Y-6859805D02*
X10087500Y-6899805D01*
X10087500Y-6859805D02*
X10047500Y-6899805D01*
X10082499Y-6780000D02*
X10122499Y-6820000D01*
X10122499Y-6780000D02*
X10082499Y-6820000D01*
X10130000Y-14830000D02*
X10170000Y-14870000D01*
X10170000Y-14830000D02*
X10130000Y-14870000D01*
X10247499Y-9305000D02*
X10287499Y-9345000D01*
X10287499Y-9305000D02*
X10247499Y-9345000D01*
X10270006Y-7705000D02*
X10310006Y-7745000D01*
X10310006Y-7705000D02*
X10270006Y-7745000D01*
X10277499Y-6780000D02*
X10317499Y-6820000D01*
X10317499Y-6780000D02*
X10277499Y-6820000D01*
X10280000Y-13380000D02*
X10320000Y-13420000D01*
X10320000Y-13380000D02*
X10280000Y-13420000D01*
X10280000Y-13930000D02*
X10320000Y-13970000D01*
X10320000Y-13930000D02*
X10280000Y-13970000D01*
X10332042Y-7763108D02*
X10372042Y-7803108D01*
X10372042Y-7763108D02*
X10332042Y-7803108D01*
X10335007Y-7551967D02*
X10375007Y-7591967D01*
X10375007Y-7551967D02*
X10335007Y-7591967D01*
X10380000Y-7230000D02*
X10420000Y-7270000D01*
X10420000Y-7230000D02*
X10380000Y-7270000D01*
X10392146Y-7823212D02*
X10432146Y-7863212D01*
X10432146Y-7823212D02*
X10392146Y-7863212D01*
X10395533Y-7614467D02*
X10435533Y-7654467D01*
X10435533Y-7614467D02*
X10395533Y-7654467D01*
X10405000Y-10430000D02*
X10445000Y-10470000D01*
X10445000Y-10430000D02*
X10405000Y-10470000D01*
X10430000Y-6780000D02*
X10470000Y-6820000D01*
X10470000Y-6780000D02*
X10430000Y-6820000D01*
X10430000Y-10780000D02*
X10470000Y-10820000D01*
X10470000Y-10780000D02*
X10430000Y-10820000D01*
X10455000Y-7480000D02*
X10495000Y-7520000D01*
X10495000Y-7480000D02*
X10455000Y-7520000D01*
X10483033Y-7701967D02*
X10523033Y-7741967D01*
X10523033Y-7701967D02*
X10483033Y-7741967D01*
X10505000Y-13430000D02*
X10545000Y-13470000D01*
X10545000Y-13430000D02*
X10505000Y-13470000D01*
X10547909Y-9287091D02*
X10587909Y-9327091D01*
X10587909Y-9287091D02*
X10547909Y-9327091D01*
X10552973Y-7182027D02*
X10592973Y-7222027D01*
X10592973Y-7182027D02*
X10552973Y-7222027D01*
X10555000Y-6155000D02*
X10595000Y-6195000D01*
X10595000Y-6155000D02*
X10555000Y-6195000D01*
X10555000Y-12680000D02*
X10595000Y-12720000D01*
X10595000Y-12680000D02*
X10555000Y-12720000D01*
X10579396Y-6976298D02*
X10619396Y-7016298D01*
X10619396Y-6976298D02*
X10579396Y-7016298D01*
X10580000Y-6805000D02*
X10620000Y-6845000D01*
X10620000Y-6805000D02*
X10580000Y-6845000D01*
X10585275Y-6891500D02*
X10625275Y-6931500D01*
X10625275Y-6891500D02*
X10585275Y-6931500D01*
X10614517Y-7243570D02*
X10654517Y-7283570D01*
X10654517Y-7243570D02*
X10614517Y-7283570D01*
X10635004Y-9705000D02*
X10675004Y-9745000D01*
X10675004Y-9705000D02*
X10635004Y-9745000D01*
X10655000Y-6630000D02*
X10695000Y-6670000D01*
X10695000Y-6630000D02*
X10655000Y-6670000D01*
X10663442Y-9402624D02*
X10703442Y-9442624D01*
X10703442Y-9402624D02*
X10663442Y-9442624D01*
X10677973Y-7307027D02*
X10717973Y-7347027D01*
X10717973Y-7307027D02*
X10677973Y-7347027D01*
X10705000Y-8230000D02*
X10745000Y-8270000D01*
X10745000Y-8230000D02*
X10705000Y-8270000D01*
X10730000Y-7505000D02*
X10770000Y-7545000D01*
X10770000Y-7505000D02*
X10730000Y-7545000D01*
X10780000Y-6087501D02*
X10820000Y-6127501D01*
X10820000Y-6087501D02*
X10780000Y-6127501D01*
X10805000Y-10780000D02*
X10845000Y-10820000D01*
X10845000Y-10780000D02*
X10805000Y-10820000D01*
X10855000Y-9505000D02*
X10895000Y-9545000D01*
X10895000Y-9505000D02*
X10855000Y-9545000D01*
X10855000Y-9855000D02*
X10895000Y-9895000D01*
X10895000Y-9855000D02*
X10855000Y-9895000D01*
X10880000Y-11755000D02*
X10920000Y-11795000D01*
X10920000Y-11755000D02*
X10880000Y-11795000D01*
X10885548Y-6552500D02*
X10925548Y-6592500D01*
X10925548Y-6552500D02*
X10885548Y-6592500D01*
X10905439Y-6754756D02*
X10945439Y-6794756D01*
X10945439Y-6754756D02*
X10905439Y-6794756D01*
X10912498Y-7255000D02*
X10952498Y-7295000D01*
X10952498Y-7255000D02*
X10912498Y-7295000D01*
X10930000Y-8130000D02*
X10970000Y-8170000D01*
X10970000Y-8130000D02*
X10930000Y-8170000D01*
X10933736Y-7456724D02*
X10973736Y-7496724D01*
X10973736Y-7456724D02*
X10933736Y-7496724D01*
X10974000Y-6805000D02*
X11014000Y-6845000D01*
X11014000Y-6805000D02*
X10974000Y-6845000D01*
X10980000Y-5180000D02*
X11020000Y-5220000D01*
X11020000Y-5180000D02*
X10980000Y-5220000D01*
X10980000Y-10430000D02*
X11020000Y-10470000D01*
X11020000Y-10430000D02*
X10980000Y-10470000D01*
X10997499Y-7255000D02*
X11037499Y-7295000D01*
X11037499Y-7255000D02*
X10997499Y-7295000D01*
X11054000Y-7355000D02*
X11094000Y-7395000D01*
X11094000Y-7355000D02*
X11054000Y-7395000D01*
X11055000Y-6980000D02*
X11095000Y-7020000D01*
X11095000Y-6980000D02*
X11055000Y-7020000D01*
X11105000Y-9505000D02*
X11145000Y-9545000D01*
X11145000Y-9505000D02*
X11105000Y-9545000D01*
X11105000Y-9855000D02*
X11145000Y-9895000D01*
X11145000Y-9855000D02*
X11105000Y-9895000D01*
X11105000Y-13080000D02*
X11145000Y-13120000D01*
X11145000Y-13080000D02*
X11105000Y-13120000D01*
X11137500Y-6265000D02*
X11177500Y-6305000D01*
X11177500Y-6265000D02*
X11137500Y-6305000D01*
X11137501Y-6180000D02*
X11177501Y-6220000D01*
X11177501Y-6180000D02*
X11137501Y-6220000D01*
X11149418Y-6966900D02*
X11189417Y-7006900D01*
X11189417Y-6966900D02*
X11149418Y-7006900D01*
X11207255Y-6313572D02*
X11247255Y-6353572D01*
X11247255Y-6313572D02*
X11207255Y-6353572D01*
X11229409Y-6173092D02*
X11269409Y-6213092D01*
X11269409Y-6173092D02*
X11229409Y-6213092D01*
X11269230Y-8569231D02*
X11309230Y-8609231D01*
X11309230Y-8569231D02*
X11269230Y-8609231D01*
X11280000Y-7005000D02*
X11320000Y-7045000D01*
X11320000Y-7005000D02*
X11280000Y-7045000D01*
X11280000Y-12880000D02*
X11320000Y-12920000D01*
X11320000Y-12880000D02*
X11280000Y-12920000D01*
X11330001Y-7280000D02*
X11370001Y-7320000D01*
X11370001Y-7280000D02*
X11330001Y-7320000D01*
X11355000Y-8605000D02*
X11395000Y-8645000D01*
X11395000Y-8605000D02*
X11355000Y-8645000D01*
X11369408Y-7861908D02*
X11409408Y-7901908D01*
X11409408Y-7861908D02*
X11369408Y-7901908D01*
X11380000Y-13930000D02*
X11420000Y-13970000D01*
X11420000Y-13930000D02*
X11380000Y-13970000D01*
X11387499Y-7580000D02*
X11427499Y-7620000D01*
X11427499Y-7580000D02*
X11387499Y-7620000D01*
X11440659Y-7709340D02*
X11480659Y-7749340D01*
X11480659Y-7709340D02*
X11440659Y-7749340D01*
X11455000Y-7830000D02*
X11495000Y-7870000D01*
X11495000Y-7830000D02*
X11455000Y-7870000D01*
X11480000Y-5580000D02*
X11520000Y-5620000D01*
X11520000Y-5580000D02*
X11480000Y-5620000D01*
X11502443Y-7257764D02*
X11542443Y-7297764D01*
X11542443Y-7257764D02*
X11502443Y-7297764D01*
X11520000Y-6997497D02*
X11560000Y-7037497D01*
X11560000Y-6997497D02*
X11520000Y-7037497D01*
X11555000Y-7980000D02*
X11595000Y-8020000D01*
X11595000Y-7980000D02*
X11555000Y-8020000D01*
X11580000Y-5155000D02*
X11620000Y-5195000D01*
X11620000Y-5155000D02*
X11580000Y-5195000D01*
X11589874Y-7250356D02*
X11629874Y-7290356D01*
X11629874Y-7250356D02*
X11589874Y-7290356D01*
X11605000Y-6997500D02*
X11645000Y-7037500D01*
X11645000Y-6997500D02*
X11605000Y-7037500D01*
X11630000Y-12730000D02*
X11670000Y-12770000D01*
X11670000Y-12730000D02*
X11630000Y-12770000D01*
X11630000Y-13730000D02*
X11670000Y-13770000D01*
X11670000Y-13730000D02*
X11630000Y-13770000D01*
X11655000Y-5580000D02*
X11695000Y-5620000D01*
X11695000Y-5580000D02*
X11655000Y-5620000D01*
X11698177Y-6997500D02*
X11738177Y-7037500D01*
X11738177Y-6997500D02*
X11698177Y-7037500D01*
X11710000Y-8250000D02*
X11750000Y-8290000D01*
X11750000Y-8250000D02*
X11710000Y-8290000D01*
X11780000Y-6380000D02*
X11820000Y-6420000D01*
X11820000Y-6380000D02*
X11780000Y-6420000D01*
X11805000Y-6555000D02*
X11845000Y-6595000D01*
X11845000Y-6555000D02*
X11805000Y-6595000D01*
X11835787Y-7412162D02*
X11875787Y-7452162D01*
X11875787Y-7412162D02*
X11835787Y-7452162D01*
X11854540Y-9680460D02*
X11894540Y-9720460D01*
X11894540Y-9680460D02*
X11854540Y-9720460D01*
X11866500Y-9766414D02*
X11906500Y-9806414D01*
X11906500Y-9766414D02*
X11866500Y-9806414D01*
X11880000Y-12755000D02*
X11920000Y-12795000D01*
X11920000Y-12755000D02*
X11880000Y-12795000D01*
X11905429Y-9434363D02*
X11945429Y-9474363D01*
X11945429Y-9434363D02*
X11905429Y-9474363D01*
X11965533Y-9494467D02*
X12005533Y-9534467D01*
X12005533Y-9494467D02*
X11965533Y-9534467D01*
X12010000Y-7660000D02*
X12050000Y-7700000D01*
X12050000Y-7660000D02*
X12010000Y-7700000D01*
X12016500Y-9736354D02*
X12056500Y-9776354D01*
X12056500Y-9736354D02*
X12016500Y-9776354D01*
X12049000Y-9402207D02*
X12089000Y-9442207D01*
X12089000Y-9402207D02*
X12049000Y-9442207D01*
X12052341Y-7307659D02*
X12092341Y-7347659D01*
X12092341Y-7307659D02*
X12052341Y-7347659D01*
X12080967Y-9480967D02*
X12120967Y-9520967D01*
X12120967Y-9480967D02*
X12080967Y-9520967D01*
X12105000Y-12980000D02*
X12145000Y-13020000D01*
X12145000Y-12980000D02*
X12105000Y-13020000D01*
X12105000Y-13280000D02*
X12145000Y-13320000D01*
X12145000Y-13280000D02*
X12105000Y-13320000D01*
X12130000Y-6200000D02*
X12170000Y-6240000D01*
X12170000Y-6200000D02*
X12130000Y-6240000D01*
X12155000Y-7305000D02*
X12195000Y-7345000D01*
X12195000Y-7305000D02*
X12155000Y-7345000D01*
X12159216Y-9627528D02*
X12199216Y-9667528D01*
X12199216Y-9627528D02*
X12159216Y-9667528D01*
X12180000Y-14830000D02*
X12220000Y-14870000D01*
X12220000Y-14830000D02*
X12180000Y-14870000D01*
X12280533Y-7374467D02*
X12320533Y-7414467D01*
X12320533Y-7374467D02*
X12280533Y-7414467D01*
X12371918Y-7271014D02*
X12411918Y-7311014D01*
X12411918Y-7271014D02*
X12371918Y-7311014D01*
X12388179Y-7485860D02*
X12428179Y-7525860D01*
X12428179Y-7485860D02*
X12388179Y-7525860D01*
X12480000Y-6980000D02*
X12520000Y-7020000D01*
X12520000Y-6980000D02*
X12480000Y-7020000D01*
X12490000Y-7380000D02*
X12530000Y-7420000D01*
X12530000Y-7380000D02*
X12490000Y-7420000D01*
X12510000Y-9210000D02*
X12550000Y-9250000D01*
X12550000Y-9210000D02*
X12510000Y-9250000D01*
X12530000Y-9090000D02*
X12570000Y-9130000D01*
X12570000Y-9090000D02*
X12530000Y-9130000D01*
X12530000Y-9810000D02*
X12570000Y-9850000D01*
X12570000Y-9810000D02*
X12530000Y-9850000D01*
X12530000Y-10340000D02*
X12570000Y-10380000D01*
X12570000Y-10340000D02*
X12530000Y-10380000D01*
X12530000Y-10630000D02*
X12570000Y-10670000D01*
X12570000Y-10630000D02*
X12530000Y-10670000D01*
X12530000Y-11780000D02*
X12570000Y-11820000D01*
X12570000Y-11780000D02*
X12530000Y-11820000D01*
X12560000Y-9360000D02*
X12600000Y-9400000D01*
X12600000Y-9360000D02*
X12560000Y-9400000D01*
X12630000Y-9530000D02*
X12670000Y-9570000D01*
X12670000Y-9530000D02*
X12630000Y-9570000D01*
X12655000Y-7980000D02*
X12695000Y-8020000D01*
X12695000Y-7980000D02*
X12655000Y-8020000D01*
X12780000Y-9180000D02*
X12820000Y-9220000D01*
X12820000Y-9180000D02*
X12780000Y-9220000D01*
X12880000Y-9455001D02*
X12920000Y-9495001D01*
X12920000Y-9455001D02*
X12880000Y-9495001D01*
X12905000Y-7730000D02*
X12945000Y-7770000D01*
X12945000Y-7730000D02*
X12905000Y-7770000D01*
X12980000Y-10340000D02*
X13020000Y-10380000D01*
X13020000Y-10340000D02*
X12980000Y-10380000D01*
X12980000Y-10530000D02*
X13020000Y-10570000D01*
X13020000Y-10530000D02*
X12980000Y-10570000D01*
X13005000Y-5155000D02*
X13045000Y-5195000D01*
X13045000Y-5155000D02*
X13005000Y-5195000D01*
X13030000Y-9900000D02*
X13070000Y-9940000D01*
X13070000Y-9900000D02*
X13030000Y-9940000D01*
X13055000Y-11755000D02*
X13095000Y-11795000D01*
X13095000Y-11755000D02*
X13055000Y-11795000D01*
X13110000Y-9640000D02*
X13150000Y-9680000D01*
X13150000Y-9640000D02*
X13110000Y-9680000D01*
X13230000Y-8605000D02*
X13270000Y-8645000D01*
X13270000Y-8605000D02*
X13230000Y-8645000D01*
X13355000Y-9530000D02*
X13395000Y-9570000D01*
X13395000Y-9530000D02*
X13355000Y-9570000D01*
X13372192Y-8387808D02*
X13412192Y-8427808D01*
X13412192Y-8387808D02*
X13372192Y-8427808D01*
X13480000Y-10030000D02*
X13520000Y-10070000D01*
X13520000Y-10030000D02*
X13480000Y-10070000D01*
X13555000Y-8605000D02*
X13595000Y-8645000D01*
X13595000Y-8605000D02*
X13555000Y-8645000D01*
X13555000Y-9330000D02*
X13595000Y-9370000D01*
X13595000Y-9330000D02*
X13555000Y-9370000D01*
X13620000Y-10640000D02*
X13660000Y-10680000D01*
X13660000Y-10640000D02*
X13620000Y-10680000D01*
X13780000Y-5180000D02*
X13820000Y-5220000D01*
X13820000Y-5180000D02*
X13780000Y-5220000D01*
X13780000Y-10555000D02*
X13820000Y-10595000D01*
X13820000Y-10555000D02*
X13780000Y-10595000D01*
X13805000Y-13355000D02*
X13845000Y-13395000D01*
X13845000Y-13355000D02*
X13805000Y-13395000D01*
X13819770Y-10815230D02*
X13859770Y-10855230D01*
X13859770Y-10815230D02*
X13819770Y-10855230D01*
X13830000Y-8530000D02*
X13870000Y-8570000D01*
X13870000Y-8530000D02*
X13830000Y-8570000D01*
X13830000Y-10030000D02*
X13870000Y-10070000D01*
X13870000Y-10030000D02*
X13830000Y-10070000D01*
X13830000Y-13955000D02*
X13870000Y-13995000D01*
X13870000Y-13955000D02*
X13830000Y-13995000D01*
X13830000Y-14830000D02*
X13870000Y-14870000D01*
X13870000Y-14830000D02*
X13830000Y-14870000D01*
X13880000Y-10680000D02*
X13920000Y-10720000D01*
X13920000Y-10680000D02*
X13880000Y-10720000D01*
X14180000Y-5180000D02*
X14220000Y-5220000D01*
X14220000Y-5180000D02*
X14180000Y-5220000D01*
X14255000Y-7480000D02*
X14295000Y-7520000D01*
X14295000Y-7480000D02*
X14255000Y-7520000D01*
X14544069Y-7010000D02*
X14584069Y-7050000D01*
X14584069Y-7010000D02*
X14544069Y-7050000D01*
X14780000Y-8230000D02*
X14820000Y-8270000D01*
X14820000Y-8230000D02*
X14780000Y-8270000D01*
X14980000Y-5180000D02*
X15020000Y-5220000D01*
X15020000Y-5180000D02*
X14980000Y-5220000D01*
X15012240Y-11910504D02*
X15052240Y-11950504D01*
X15052240Y-11910504D02*
X15012240Y-11950504D01*
X15180000Y-9280000D02*
X15220000Y-9320000D01*
X15220000Y-9280000D02*
X15180000Y-9320000D01*
X15580000Y-7630000D02*
X15620000Y-7670000D01*
X15620000Y-7630000D02*
X15580000Y-7670000D01*
X15580000Y-8880000D02*
X15620000Y-8920000D01*
X15620000Y-8880000D02*
X15580000Y-8920000D01*
X16055000Y-6952514D02*
X16095000Y-6992514D01*
X16095000Y-6952514D02*
X16055000Y-6992514D01*
X16055000Y-7099408D02*
X16095000Y-7139408D01*
X16095000Y-7099408D02*
X16055000Y-7139408D01*
X16055000Y-6659999D02*
X16095000Y-6699999D01*
X16095000Y-6659999D02*
X16055000Y-6699999D01*
X16055003Y-7600000D02*
X16095003Y-7640000D01*
X16095003Y-7600000D02*
X16055003Y-7640000D01*
X16062500Y-7480000D02*
X16102500Y-7520000D01*
X16102500Y-7480000D02*
X16062500Y-7520000D01*
X16080000Y-7280000D02*
X16120000Y-7320000D01*
X16120000Y-7280000D02*
X16080000Y-7320000D01*
X16092500Y-6217500D02*
X16132500Y-6257500D01*
X16132500Y-6217500D02*
X16092500Y-6257500D01*
X16110000Y-5850000D02*
X16150000Y-5890000D01*
X16150000Y-5850000D02*
X16110000Y-5890000D01*
X16136995Y-6612408D02*
X16176995Y-6652408D01*
X16176995Y-6612408D02*
X16136995Y-6652408D01*
X16250000Y-6475000D02*
X16290000Y-6515000D01*
X16290000Y-6475000D02*
X16250000Y-6515000D01*
X16281051Y-7108326D02*
X16321051Y-7148326D01*
X16321051Y-7108326D02*
X16281051Y-7148326D01*
X16334204Y-7195820D02*
X16374204Y-7235820D01*
X16374204Y-7195820D02*
X16334204Y-7235820D01*
X16350000Y-8600000D02*
X16390000Y-8640000D01*
X16390000Y-8600000D02*
X16350000Y-8640000D01*
X16350000Y-9310000D02*
X16390000Y-9350000D01*
X16390000Y-9310000D02*
X16350000Y-9350000D01*
X16380000Y-13230000D02*
X16420000Y-13270000D01*
X16420000Y-13230000D02*
X16380000Y-13270000D01*
X16390000Y-11070000D02*
X16430000Y-11110000D01*
X16430000Y-11070000D02*
X16390000Y-11110000D01*
X16390000Y-13770000D02*
X16430000Y-13810000D01*
X16430000Y-13770000D02*
X16390000Y-13810000D01*
X16403160Y-7245521D02*
X16443160Y-7285521D01*
X16443160Y-7245521D02*
X16403160Y-7285521D01*
X16430000Y-9830000D02*
X16470000Y-9870000D01*
X16470000Y-9830000D02*
X16430000Y-9870000D01*
X16440000Y-8380000D02*
X16480000Y-8420000D01*
X16480000Y-8380000D02*
X16440000Y-8420000D01*
X16460000Y-6220000D02*
X16500000Y-6260000D01*
X16500000Y-6220000D02*
X16460000Y-6260000D01*
X16502941Y-7275244D02*
X16542941Y-7315244D01*
X16542941Y-7275244D02*
X16502941Y-7315244D01*
X16510000Y-9310000D02*
X16550000Y-9350000D01*
X16550000Y-9310000D02*
X16510000Y-9350000D01*
X16530000Y-7430000D02*
X16570000Y-7470000D01*
X16570000Y-7430000D02*
X16530000Y-7470000D01*
X16530000Y-7680000D02*
X16570000Y-7720000D01*
X16570000Y-7680000D02*
X16530000Y-7720000D01*
X16563899Y-6899983D02*
X16603899Y-6939983D01*
X16603899Y-6899983D02*
X16563899Y-6939983D01*
X16565200Y-6645701D02*
X16605200Y-6685701D01*
X16605200Y-6645701D02*
X16565200Y-6685701D01*
X16570348Y-6815226D02*
X16610348Y-6855226D01*
X16610348Y-6815226D02*
X16570348Y-6855226D01*
X16573592Y-6730287D02*
X16613592Y-6770287D01*
X16613592Y-6730287D02*
X16573592Y-6770287D01*
X16574341Y-6984340D02*
X16614341Y-7024340D01*
X16614341Y-6984340D02*
X16574341Y-7024340D01*
X16575476Y-7109999D02*
X16615476Y-7149999D01*
X16615476Y-7109999D02*
X16575476Y-7149999D01*
X16665032Y-7280001D02*
X16705032Y-7320001D01*
X16705032Y-7280001D02*
X16665032Y-7320001D01*
X16680000Y-5980000D02*
X16720000Y-6020000D01*
X16720000Y-5980000D02*
X16680000Y-6020000D01*
X16680000Y-7109999D02*
X16720000Y-7149999D01*
X16720000Y-7109999D02*
X16680000Y-7149999D01*
X16680000Y-9580000D02*
X16720000Y-9620000D01*
X16720000Y-9580000D02*
X16680000Y-9620000D01*
X16725000Y-12895000D02*
X16765000Y-12935000D01*
X16765000Y-12895000D02*
X16725000Y-12935000D01*
X16738198Y-7323264D02*
X16778199Y-7363264D01*
X16778199Y-7323264D02*
X16738198Y-7363264D01*
X16848768Y-7067486D02*
X16888768Y-7107486D01*
X16888768Y-7067486D02*
X16848768Y-7107486D01*
X16860000Y-7352500D02*
X16900000Y-7392500D01*
X16900000Y-7352500D02*
X16860000Y-7392500D01*
X16860000Y-14480000D02*
X16900000Y-14520000D01*
X16900000Y-14480000D02*
X16860000Y-14520000D01*
X16870000Y-8555000D02*
X16910000Y-8595000D01*
X16910000Y-8555000D02*
X16870000Y-8595000D01*
X16870000Y-13510000D02*
X16910000Y-13550000D01*
X16910000Y-13510000D02*
X16870000Y-13550000D01*
X16880000Y-6480000D02*
X16920000Y-6520000D01*
X16920000Y-6480000D02*
X16880000Y-6520000D01*
X16880000Y-8040000D02*
X16920000Y-8080000D01*
X16920000Y-8040000D02*
X16880000Y-8080000D01*
X16880000Y-11230000D02*
X16920000Y-11270000D01*
X16920000Y-11230000D02*
X16880000Y-11270000D01*
X16880000Y-13380000D02*
X16920000Y-13420000D01*
X16920000Y-13380000D02*
X16880000Y-13420000D01*
X16900000Y-6590000D02*
X16940000Y-6630000D01*
X16940000Y-6590000D02*
X16900000Y-6630000D01*
X16910000Y-6090000D02*
X16950000Y-6130000D01*
X16950000Y-6090000D02*
X16910000Y-6130000D01*
X16910000Y-6690001D02*
X16950000Y-6730001D01*
X16950000Y-6690001D02*
X16910000Y-6730001D01*
X16930000Y-7202500D02*
X16970000Y-7242500D01*
X16970000Y-7202500D02*
X16930000Y-7242500D01*
X16945002Y-6924999D02*
X16985002Y-6964999D01*
X16985002Y-6924999D02*
X16945002Y-6964999D01*
X16953683Y-6840442D02*
X16993683Y-6880442D01*
X16993683Y-6840442D02*
X16953683Y-6880442D01*
X17014959Y-7199845D02*
X17054959Y-7239845D01*
X17054959Y-7199845D02*
X17014959Y-7239845D01*
X17060000Y-5100000D02*
X17100000Y-5140000D01*
X17100000Y-5100000D02*
X17060000Y-5140000D01*
X17060000Y-5760000D02*
X17100000Y-5800000D01*
X17100000Y-5760000D02*
X17060000Y-5800000D01*
X17080000Y-8040000D02*
X17120000Y-8080000D01*
X17120000Y-8040000D02*
X17080000Y-8080000D01*
X17080000Y-8555000D02*
X17120000Y-8595000D01*
X17120000Y-8555000D02*
X17080000Y-8595000D01*
X17120000Y-13520000D02*
X17160000Y-13560000D01*
X17160000Y-13520000D02*
X17120000Y-13560000D01*
X17130000Y-13780000D02*
X17170000Y-13820000D01*
X17170000Y-13780000D02*
X17130000Y-13820000D01*
X17164414Y-7920586D02*
X17204414Y-7960586D01*
X17204414Y-7920586D02*
X17164414Y-7960586D01*
X17180000Y-7197500D02*
X17220000Y-7237500D01*
X17220000Y-7197500D02*
X17180000Y-7237500D01*
X17220000Y-6090000D02*
X17260000Y-6130000D01*
X17260000Y-6090000D02*
X17220000Y-6130000D01*
X17230000Y-5100000D02*
X17270000Y-5140000D01*
X17270000Y-5100000D02*
X17230000Y-5140000D01*
X17232617Y-7597099D02*
X17272617Y-7637099D01*
X17272617Y-7597099D02*
X17232617Y-7637099D01*
X17240000Y-6730000D02*
X17280000Y-6770000D01*
X17280000Y-6730000D02*
X17240000Y-6770000D01*
X17255000Y-7679099D02*
X17295000Y-7719099D01*
X17295000Y-7679099D02*
X17255000Y-7719099D01*
X17260000Y-8040000D02*
X17300000Y-8080000D01*
X17300000Y-8040000D02*
X17260000Y-8080000D01*
X17272500Y-8205000D02*
X17312500Y-8245000D01*
X17312500Y-8205000D02*
X17272500Y-8245000D01*
X17280000Y-10480000D02*
X17320000Y-10520000D01*
X17320000Y-10480000D02*
X17280000Y-10520000D01*
X17305000Y-9580000D02*
X17345000Y-9620000D01*
X17345000Y-9580000D02*
X17305000Y-9620000D01*
X17310001Y-9380000D02*
X17350001Y-9420000D01*
X17350001Y-9380000D02*
X17310001Y-9420000D01*
X17330000Y-5800000D02*
X17370000Y-5840000D01*
X17370000Y-5800000D02*
X17330000Y-5840000D01*
X17340000Y-14680000D02*
X17380000Y-14720000D01*
X17380000Y-14680000D02*
X17340000Y-14720000D01*
X17350000Y-5032500D02*
X17390000Y-5072500D01*
X17390000Y-5032500D02*
X17350000Y-5072500D01*
X17408190Y-6953657D02*
X17448190Y-6993657D01*
X17448190Y-6953657D02*
X17408190Y-6993657D01*
X17422500Y-6050000D02*
X17462500Y-6090000D01*
X17462500Y-6050000D02*
X17422500Y-6090000D01*
X17435001Y-8205000D02*
X17475001Y-8245000D01*
X17475001Y-8205000D02*
X17435001Y-8245000D01*
X17485000Y-9360000D02*
X17525000Y-9400000D01*
X17525000Y-9360000D02*
X17485000Y-9400000D01*
X17505000Y-8555000D02*
X17545000Y-8595000D01*
X17545000Y-8555000D02*
X17505000Y-8595000D01*
X17520000Y-10250000D02*
X17560000Y-10290000D01*
X17560000Y-10250000D02*
X17520000Y-10290000D01*
X17520000Y-10590000D02*
X17560000Y-10630000D01*
X17560000Y-10590000D02*
X17520000Y-10630000D01*
X17530000Y-11120000D02*
X17570000Y-11160000D01*
X17570000Y-11120000D02*
X17530000Y-11160000D01*
X17540000Y-8270000D02*
X17580000Y-8310000D01*
X17580000Y-8270000D02*
X17540000Y-8310000D01*
X17544000Y-7960000D02*
X17584000Y-8000000D01*
X17584000Y-7960000D02*
X17544000Y-8000000D01*
X17557500Y-6050000D02*
X17597500Y-6090000D01*
X17597500Y-6050000D02*
X17557500Y-6090000D01*
X17570000Y-12990000D02*
X17610000Y-13030000D01*
X17610000Y-12990000D02*
X17570000Y-13030000D01*
X17580000Y-6340000D02*
X17620000Y-6380000D01*
X17620000Y-6340000D02*
X17580000Y-6380000D01*
X17600000Y-6730000D02*
X17640000Y-6770000D01*
X17640000Y-6730000D02*
X17600000Y-6770000D01*
X17610000Y-9060000D02*
X17650000Y-9100000D01*
X17650000Y-9060000D02*
X17610000Y-9100000D01*
X17610000Y-11740000D02*
X17650000Y-11780000D01*
X17650000Y-11740000D02*
X17610000Y-11780000D01*
X17610000Y-11990000D02*
X17650000Y-12030000D01*
X17650000Y-11990000D02*
X17610000Y-12030000D01*
X17610000Y-12190000D02*
X17650000Y-12230000D01*
X17650000Y-12190000D02*
X17610000Y-12230000D01*
X17620000Y-9320000D02*
X17660000Y-9360000D01*
X17660000Y-9320000D02*
X17620000Y-9360000D01*
X17630000Y-5080000D02*
X17670000Y-5120000D01*
X17670000Y-5080000D02*
X17630000Y-5120000D01*
X17630000Y-6925000D02*
X17670000Y-6965000D01*
X17670000Y-6925000D02*
X17630000Y-6965000D01*
X17630000Y-11240000D02*
X17670000Y-11280000D01*
X17670000Y-11240000D02*
X17630000Y-11280000D01*
X17640000Y-12380000D02*
X17680000Y-12420000D01*
X17680000Y-12380000D02*
X17640000Y-12420000D01*
X17640000Y-12570000D02*
X17680000Y-12610000D01*
X17680000Y-12570000D02*
X17640000Y-12610000D01*
X17680000Y-5740000D02*
X17720000Y-5780000D01*
X17720000Y-5740000D02*
X17680000Y-5780000D01*
X17690000Y-10780000D02*
X17730000Y-10820000D01*
X17730000Y-10780000D02*
X17690000Y-10820000D01*
X17705000Y-9580000D02*
X17745000Y-9620000D01*
X17745000Y-9580000D02*
X17705000Y-9620000D01*
X17710000Y-10440000D02*
X17750000Y-10480000D01*
X17750000Y-10440000D02*
X17710000Y-10480000D01*
X17712273Y-5032500D02*
X17752273Y-5072500D01*
X17752273Y-5032500D02*
X17712273Y-5072500D01*
X17725000Y-9180000D02*
X17765000Y-9220000D01*
X17765000Y-9180000D02*
X17725000Y-9220000D01*
X17730000Y-6140000D02*
X17770000Y-6180000D01*
X17770000Y-6140000D02*
X17730000Y-6180000D01*
X17760000Y-6480000D02*
X17800000Y-6520000D01*
X17800000Y-6480000D02*
X17760000Y-6520000D01*
X17771893Y-6815575D02*
X17811893Y-6855575D01*
X17811893Y-6815575D02*
X17771893Y-6855575D01*
X17791863Y-7118137D02*
X17831863Y-7158137D01*
X17831863Y-7118137D02*
X17791863Y-7158137D01*
X17824999Y-12860000D02*
X17864999Y-12900000D01*
X17864999Y-12860000D02*
X17824999Y-12900000D01*
X17830000Y-11605000D02*
X17870000Y-11645000D01*
X17870000Y-11605000D02*
X17830000Y-11645000D01*
X17830000Y-12480000D02*
X17870000Y-12520000D01*
X17870000Y-12480000D02*
X17830000Y-12520000D01*
X17840000Y-12300000D02*
X17880000Y-12340000D01*
X17880000Y-12300000D02*
X17840000Y-12340000D01*
X17840000Y-12080000D02*
X17880000Y-12120000D01*
X17880000Y-12080000D02*
X17840000Y-12120000D01*
X17850000Y-11860000D02*
X17890000Y-11900000D01*
X17890000Y-11860000D02*
X17850000Y-11900000D01*
X17860000Y-5920000D02*
X17900000Y-5960000D01*
X17900000Y-5920000D02*
X17860000Y-5960000D01*
X17880000Y-6957502D02*
X17920000Y-6997502D01*
X17920000Y-6957502D02*
X17880000Y-6997502D01*
X17880000Y-8570000D02*
X17920000Y-8610000D01*
X17920000Y-8570000D02*
X17880000Y-8610000D01*
X17880000Y-8780000D02*
X17920000Y-8820000D01*
X17920000Y-8780000D02*
X17880000Y-8820000D01*
X17914135Y-7035347D02*
X17954135Y-7075347D01*
X17954135Y-7035347D02*
X17914135Y-7075347D01*
X17968791Y-9016276D02*
X18008791Y-9056276D01*
X18008791Y-9016276D02*
X17968791Y-9056276D01*
X17974039Y-8714039D02*
X18014039Y-8754039D01*
X18014039Y-8714039D02*
X17974039Y-8754039D01*
X18020000Y-9180000D02*
X18060000Y-9220000D01*
X18060000Y-9180000D02*
X18020000Y-9220000D01*
X18020001Y-13277409D02*
X18060001Y-13317409D01*
X18060001Y-13277409D02*
X18020001Y-13317409D01*
X18030000Y-9330000D02*
X18070000Y-9370000D01*
X18070000Y-9330000D02*
X18030000Y-9370000D01*
X18057405Y-8629445D02*
X18097405Y-8669445D01*
X18097405Y-8629445D02*
X18057405Y-8669445D01*
X18058097Y-7412055D02*
X18098097Y-7452055D01*
X18098097Y-7412055D02*
X18058097Y-7452055D01*
X18070000Y-8930000D02*
X18110000Y-8970000D01*
X18110000Y-8930000D02*
X18070000Y-8970000D01*
X18080000Y-7155000D02*
X18120000Y-7195000D01*
X18120000Y-7155000D02*
X18080000Y-7195000D01*
X18080000Y-10540000D02*
X18120000Y-10580000D01*
X18120000Y-10540000D02*
X18080000Y-10580000D01*
X18090000Y-7020000D02*
X18130000Y-7060000D01*
X18130000Y-7020000D02*
X18090000Y-7060000D01*
X18095001Y-12480000D02*
X18135001Y-12520000D01*
X18135001Y-12480000D02*
X18095001Y-12520000D01*
X18100001Y-12130000D02*
X18140001Y-12170000D01*
X18140001Y-12130000D02*
X18100001Y-12170000D01*
X18110000Y-11590000D02*
X18150000Y-11630000D01*
X18150000Y-11590000D02*
X18110000Y-11630000D01*
X18110000Y-12300000D02*
X18150000Y-12340000D01*
X18150000Y-12300000D02*
X18110000Y-12340000D01*
X18125770Y-6350770D02*
X18165770Y-6390770D01*
X18165770Y-6350770D02*
X18125770Y-6390770D01*
X18130000Y-10970000D02*
X18170000Y-11010000D01*
X18170000Y-10970000D02*
X18130000Y-11010000D01*
X18130000Y-11240000D02*
X18170000Y-11280000D01*
X18170000Y-11240000D02*
X18130000Y-11280000D01*
X18130000Y-11860000D02*
X18170000Y-11900000D01*
X18170000Y-11860000D02*
X18130000Y-11900000D01*
X18130000Y-12860000D02*
X18170000Y-12900000D01*
X18170000Y-12860000D02*
X18130000Y-12900000D01*
X18140000Y-13150000D02*
X18180000Y-13190000D01*
X18180000Y-13150000D02*
X18140000Y-13190000D01*
X18150000Y-10790000D02*
X18190000Y-10830000D01*
X18190000Y-10790000D02*
X18150000Y-10830000D01*
X18160000Y-8480000D02*
X18200000Y-8520000D01*
X18200000Y-8480000D02*
X18160000Y-8520000D01*
X18180000Y-13440000D02*
X18220000Y-13480000D01*
X18220000Y-13440000D02*
X18180000Y-13480000D01*
X18180000Y-14900000D02*
X18220000Y-14940000D01*
X18220000Y-14900000D02*
X18180000Y-14940000D01*
X18200290Y-8811531D02*
X18240290Y-8851531D01*
X18240290Y-8811531D02*
X18200290Y-8851531D01*
X18230000Y-6355000D02*
X18270000Y-6395000D01*
X18270000Y-6355000D02*
X18230000Y-6395000D01*
X18280000Y-9860000D02*
X18320000Y-9900000D01*
X18320000Y-9860000D02*
X18280000Y-9900000D01*
X18290000Y-9100000D02*
X18330000Y-9140000D01*
X18330000Y-9100000D02*
X18290000Y-9140000D01*
X18290000Y-9310000D02*
X18330000Y-9350000D01*
X18330000Y-9310000D02*
X18290000Y-9350000D01*
X18300000Y-10820000D02*
X18340000Y-10860000D01*
X18340000Y-10820000D02*
X18300000Y-10860000D01*
X18330000Y-5910000D02*
X18370000Y-5950000D01*
X18370000Y-5910000D02*
X18330000Y-5950000D01*
X18350000Y-5380000D02*
X18390000Y-5420000D01*
X18390000Y-5380000D02*
X18350000Y-5420000D01*
X18400000Y-13430000D02*
X18440000Y-13470000D01*
X18440000Y-13430000D02*
X18400000Y-13470000D01*
X18410000Y-8240000D02*
X18450000Y-8280000D01*
X18450000Y-8240000D02*
X18410000Y-8280000D01*
X18490000Y-11860000D02*
X18530000Y-11900000D01*
X18530000Y-11860000D02*
X18490000Y-11900000D01*
X18490000Y-12220000D02*
X18530000Y-12260000D01*
X18530000Y-12220000D02*
X18490000Y-12260000D01*
X18500000Y-8540000D02*
X18540000Y-8580000D01*
X18540000Y-8540000D02*
X18500000Y-8580000D01*
X18511450Y-8170483D02*
X18551450Y-8210483D01*
X18551450Y-8170483D02*
X18511450Y-8210483D01*
X18514999Y-9360000D02*
X18554999Y-9400000D01*
X18554999Y-9360000D02*
X18514999Y-9400000D01*
X18570000Y-13070000D02*
X18610000Y-13110000D01*
X18610000Y-13070000D02*
X18570000Y-13110000D01*
X18578467Y-8103467D02*
X18618467Y-8143467D01*
X18618467Y-8103467D02*
X18578467Y-8143467D01*
X18580000Y-7030000D02*
X18620000Y-7070000D01*
X18620000Y-7030000D02*
X18580000Y-7070000D01*
X18610000Y-7230000D02*
X18650000Y-7270000D01*
X18650000Y-7230000D02*
X18610000Y-7270000D01*
X18639999Y-8436192D02*
X18679999Y-8476192D01*
X18679999Y-8436192D02*
X18639999Y-8476192D01*
X18645533Y-8345533D02*
X18685533Y-8385533D01*
X18685533Y-8345533D02*
X18645533Y-8385533D01*
X18649999Y-9380000D02*
X18689999Y-9420000D01*
X18689999Y-9380000D02*
X18649999Y-9420000D01*
X18653467Y-8028467D02*
X18693467Y-8068467D01*
X18693467Y-8028467D02*
X18653467Y-8068467D01*
X18690000Y-9510000D02*
X18730000Y-9550000D01*
X18730000Y-9510000D02*
X18690000Y-9550000D01*
X18708033Y-8283033D02*
X18748033Y-8323033D01*
X18748033Y-8283033D02*
X18708033Y-8323033D01*
X18730000Y-7450000D02*
X18770000Y-7490000D01*
X18770000Y-7450000D02*
X18730000Y-7490000D01*
X18760000Y-7900000D02*
X18800000Y-7940000D01*
X18800000Y-7900000D02*
X18760000Y-7940000D01*
X18862500Y-13430000D02*
X18902500Y-13470000D01*
X18902500Y-13430000D02*
X18862500Y-13470000D01*
X18970000Y-9870000D02*
X19010000Y-9910000D01*
X19010000Y-9870000D02*
X18970000Y-9910000D01*
X18980000Y-8070000D02*
X19020000Y-8110000D01*
X19020000Y-8070000D02*
X18980000Y-8110000D01*
X18980000Y-8330000D02*
X19020000Y-8370000D01*
X19020000Y-8330000D02*
X18980000Y-8370000D01*
X19000000Y-10830000D02*
X19040000Y-10870000D01*
X19040000Y-10830000D02*
X19000000Y-10870000D01*
X19070000Y-14480000D02*
X19110000Y-14520000D01*
X19110000Y-14480000D02*
X19070000Y-14520000D01*
X19080000Y-6080000D02*
X19120000Y-6120000D01*
X19120000Y-6080000D02*
X19080000Y-6120000D01*
X19080000Y-7030000D02*
X19120000Y-7070000D01*
X19120000Y-7030000D02*
X19080000Y-7070000D01*
X19080000Y-7460000D02*
X19120000Y-7500000D01*
X19120000Y-7460000D02*
X19080000Y-7500000D01*
X19105000Y-13855000D02*
X19145000Y-13895000D01*
X19145000Y-13855000D02*
X19105000Y-13895000D01*
X19110000Y-13720000D02*
X19150000Y-13760000D01*
X19150000Y-13720000D02*
X19110000Y-13760000D01*
X19120000Y-11200000D02*
X19160000Y-11240000D01*
X19160000Y-11200000D02*
X19120000Y-11240000D01*
X19310000Y-12050000D02*
X19350000Y-12090000D01*
X19350000Y-12050000D02*
X19310000Y-12090000D01*
X19320000Y-12260000D02*
X19360000Y-12300000D01*
X19360000Y-12260000D02*
X19320000Y-12300000D01*
X19328000Y-11780000D02*
X19368000Y-11820000D01*
X19368000Y-11780000D02*
X19328000Y-11820000D01*
X19340000Y-6070000D02*
X19380000Y-6110000D01*
X19380000Y-6070000D02*
X19340000Y-6110000D01*
X19340000Y-8320000D02*
X19380000Y-8360000D01*
X19380000Y-8320000D02*
X19340000Y-8360000D01*
X19460000Y-8830000D02*
X19500000Y-8870000D01*
X19500000Y-8830000D02*
X19460000Y-8870000D01*
X19460000Y-10020000D02*
X19500000Y-10060000D01*
X19500000Y-10020000D02*
X19460000Y-10060000D01*
X19490000Y-13010000D02*
X19530000Y-13050000D01*
X19530000Y-13010000D02*
X19490000Y-13050000D01*
X19500000Y-13210000D02*
X19540000Y-13250000D01*
X19540000Y-13210000D02*
X19500000Y-13250000D01*
X19520000Y-13730000D02*
X19560000Y-13770000D01*
X19560000Y-13730000D02*
X19520000Y-13770000D01*
X19590000Y-6080000D02*
X19630000Y-6120000D01*
X19630000Y-6080000D02*
X19590000Y-6120000D01*
X19640000Y-12030000D02*
X19680000Y-12070000D01*
X19680000Y-12030000D02*
X19640000Y-12070000D01*
X19650000Y-11780000D02*
X19690000Y-11820000D01*
X19690000Y-11780000D02*
X19650000Y-11820000D01*
X19680000Y-13210000D02*
X19720000Y-13250000D01*
X19720000Y-13210000D02*
X19680000Y-13250000D01*
X19740000Y-5190000D02*
X19780000Y-5230000D01*
X19780000Y-5190000D02*
X19740000Y-5230000D01*
X19760000Y-9020000D02*
X19800000Y-9060000D01*
X19800000Y-9020000D02*
X19760000Y-9060000D01*
X19770000Y-8620000D02*
X19810000Y-8660000D01*
X19810000Y-8620000D02*
X19770000Y-8660000D01*
X19790000Y-10830000D02*
X19830000Y-10870000D01*
X19830000Y-10830000D02*
X19790000Y-10870000D01*
X19790000Y-10980000D02*
X19830000Y-11020000D01*
X19830000Y-10980000D02*
X19790000Y-11020000D01*
X19800000Y-12110000D02*
X19840000Y-12150000D01*
X19840000Y-12110000D02*
X19800000Y-12150000D01*
X19805000Y-7180000D02*
X19845000Y-7220000D01*
X19845000Y-7180000D02*
X19805000Y-7220000D01*
X19810000Y-12890000D02*
X19850000Y-12930000D01*
X19850000Y-12890000D02*
X19810000Y-12930000D01*
X19819999Y-8205000D02*
X19859999Y-8245000D01*
X19859999Y-8205000D02*
X19819999Y-8245000D01*
X19825000Y-11776967D02*
X19865000Y-11816967D01*
X19865000Y-11776967D02*
X19825000Y-11816967D01*
X19880000Y-13740000D02*
X19920000Y-13780000D01*
X19920000Y-13740000D02*
X19880000Y-13780000D01*
X19880000Y-14880000D02*
X19920000Y-14920000D01*
X19920000Y-14880000D02*
X19880000Y-14920000D01*
X19916747Y-11941747D02*
X19956747Y-11981747D01*
X19956747Y-11941747D02*
X19916747Y-11981747D01*
X11517000Y-11500000D02*
G75*
G03*
X11517000Y-11500000I-25000J0D01*
G01*
X11477000Y-11420000D02*
X11477000Y-11580000D01*
X11507000Y-11420000D02*
X11507000Y-11580000D01*
X11477000Y-11580000D02*
G75*
G03*
X11507000Y-11580000I15000J0D01*
G01*
X11507000Y-11420000D02*
G75*
G03*
X11477000Y-11420000I-15000J0D01*
G01*
X11517000Y-12500000D02*
G75*
G03*
X11517000Y-12500000I-25000J0D01*
G01*
X11477000Y-12420000D02*
X11477000Y-12580000D01*
X11507000Y-12420000D02*
X11507000Y-12580000D01*
X11477000Y-12580000D02*
G75*
G03*
X11507000Y-12580000I15000J0D01*
G01*
X11507000Y-12420000D02*
G75*
G03*
X11477000Y-12420000I-15000J0D01*
G01*
X11517000Y-14500000D02*
G75*
G03*
X11517000Y-14500000I-25000J0D01*
G01*
X11477000Y-14420000D02*
X11477000Y-14580000D01*
X11507000Y-14420000D02*
X11507000Y-14580000D01*
X11477000Y-14580000D02*
G75*
G03*
X11507000Y-14580000I15000J0D01*
G01*
X11507000Y-14420000D02*
G75*
G03*
X11477000Y-14420000I-15000J0D01*
G01*
X12533000Y-11500000D02*
G75*
G03*
X12533000Y-11500000I-25000J0D01*
G01*
X12523000Y-11580000D02*
X12523000Y-11420000D01*
X12493000Y-11580000D02*
X12493000Y-11420000D01*
X12523000Y-11420000D02*
G75*
G03*
X12493000Y-11420000I-15000J0D01*
G01*
X12493000Y-11580000D02*
G75*
G03*
X12523000Y-11580000I15000J0D01*
G01*
X12533000Y-12500000D02*
G75*
G03*
X12533000Y-12500000I-25000J0D01*
G01*
X12523000Y-12580000D02*
X12523000Y-12420000D01*
X12493000Y-12580000D02*
X12493000Y-12420000D01*
X12523000Y-12420000D02*
G75*
G03*
X12493000Y-12420000I-15000J0D01*
G01*
X12493000Y-12580000D02*
G75*
G03*
X12523000Y-12580000I15000J0D01*
G01*
X12533000Y-14500000D02*
G75*
G03*
X12533000Y-14500000I-25000J0D01*
G01*
X12523000Y-14580000D02*
X12523000Y-14420000D01*
X12493000Y-14580000D02*
X12493000Y-14420000D01*
X12523000Y-14420000D02*
G75*
G03*
X12493000Y-14420000I-15000J0D01*
G01*
X12493000Y-14580000D02*
G75*
G03*
X12523000Y-14580000I15000J0D01*
G01*
X14325000Y-8350000D02*
G75*
G03*
X14325000Y-8350000I-25000J0D01*
G01*
X14533000Y-13500000D02*
G75*
G03*
X14533000Y-13500000I-25000J0D01*
G01*
X14523000Y-13580000D02*
X14523000Y-13420000D01*
X14493000Y-13580000D02*
X14493000Y-13420000D01*
X14523000Y-13420000D02*
G75*
G03*
X14493000Y-13420000I-15000J0D01*
G01*
X14493000Y-13580000D02*
G75*
G03*
X14523000Y-13580000I15000J0D01*
G01*
X14533000Y-14500000D02*
G75*
G03*
X14533000Y-14500000I-25000J0D01*
G01*
X14523000Y-14580000D02*
X14523000Y-14420000D01*
X14493000Y-14580000D02*
X14493000Y-14420000D01*
X14523000Y-14420000D02*
G75*
G03*
X14493000Y-14420000I-15000J0D01*
G01*
X14493000Y-14580000D02*
G75*
G03*
X14523000Y-14580000I15000J0D01*
G01*
X14540500Y-11500000D02*
G75*
G03*
X14540500Y-11500000I-25000J0D01*
G01*
X14530500Y-11580000D02*
X14530500Y-11420000D01*
X14500500Y-11580000D02*
X14500500Y-11420000D01*
X14530500Y-11420000D02*
G75*
G03*
X14500500Y-11420000I-15000J0D01*
G01*
X14500500Y-11580000D02*
G75*
G03*
X14530500Y-11580000I15000J0D01*
G01*
X14540500Y-12500000D02*
G75*
G03*
X14540500Y-12500000I-25000J0D01*
G01*
X14530500Y-12580000D02*
X14530500Y-12420000D01*
X14500500Y-12580000D02*
X14500500Y-12420000D01*
X14530500Y-12420000D02*
G75*
G03*
X14500500Y-12420000I-15000J0D01*
G01*
X14500500Y-12580000D02*
G75*
G03*
X14530500Y-12580000I15000J0D01*
G01*
X15775000Y-8650000D02*
G75*
G03*
X15775000Y-8650000I-25000J0D01*
G01*
X17517000Y-11500000D02*
G75*
G03*
X17517000Y-11500000I-25000J0D01*
G01*
X17477000Y-11420000D02*
X17477000Y-11580000D01*
X17507000Y-11420000D02*
X17507000Y-11580000D01*
X17477000Y-11580000D02*
G75*
G03*
X17507000Y-11580000I15000J0D01*
G01*
X17507000Y-11420000D02*
G75*
G03*
X17477000Y-11420000I-15000J0D01*
G01*
X17517000Y-12500000D02*
G75*
G03*
X17517000Y-12500000I-25000J0D01*
G01*
X17477000Y-12420000D02*
X17477000Y-12580000D01*
X17507000Y-12420000D02*
X17507000Y-12580000D01*
X17477000Y-12580000D02*
G75*
G03*
X17507000Y-12580000I15000J0D01*
G01*
X17507000Y-12420000D02*
G75*
G03*
X17477000Y-12420000I-15000J0D01*
G01*
X17517000Y-14500000D02*
G75*
G03*
X17517000Y-14500000I-25000J0D01*
G01*
X17477000Y-14420000D02*
X17477000Y-14580000D01*
X17507000Y-14420000D02*
X17507000Y-14580000D01*
X17477000Y-14580000D02*
G75*
G03*
X17507000Y-14580000I15000J0D01*
G01*
X17507000Y-14420000D02*
G75*
G03*
X17477000Y-14420000I-15000J0D01*
G01*
X17775000Y-13050000D02*
G75*
G03*
X17775000Y-13050000I-25000J0D01*
G01*
X18533000Y-11500000D02*
G75*
G03*
X18533000Y-11500000I-25000J0D01*
G01*
X18523000Y-11580000D02*
X18523000Y-11420000D01*
X18493000Y-11580000D02*
X18493000Y-11420000D01*
X18523000Y-11420000D02*
G75*
G03*
X18493000Y-11420000I-15000J0D01*
G01*
X18493000Y-11580000D02*
G75*
G03*
X18523000Y-11580000I15000J0D01*
G01*
X18533000Y-12500000D02*
G75*
G03*
X18533000Y-12500000I-25000J0D01*
G01*
X18523000Y-12580000D02*
X18523000Y-12420000D01*
X18493000Y-12580000D02*
X18493000Y-12420000D01*
X18523000Y-12420000D02*
G75*
G03*
X18493000Y-12420000I-15000J0D01*
G01*
X18493000Y-12580000D02*
G75*
G03*
X18523000Y-12580000I15000J0D01*
G01*
X18533000Y-14500000D02*
G75*
G03*
X18533000Y-14500000I-25000J0D01*
G01*
X18523000Y-14580000D02*
X18523000Y-14420000D01*
X18493000Y-14580000D02*
X18493000Y-14420000D01*
X18523000Y-14420000D02*
G75*
G03*
X18493000Y-14420000I-15000J0D01*
G01*
X18493000Y-14580000D02*
G75*
G03*
X18523000Y-14580000I15000J0D01*
G01*
X19825000Y-13050000D02*
G75*
G03*
X19825000Y-13050000I-25000J0D01*
G01*
X10352000Y-11470000D02*
X10352000Y-11530000D01*
X10322000Y-11500000D02*
X10382000Y-11500000D01*
X10332000Y-11460000D02*
X10332000Y-11540000D01*
X10372000Y-11460000D02*
X10372000Y-11540000D01*
X10332000Y-11540000D02*
G75*
G03*
X10372000Y-11540000I20000J0D01*
G01*
X10372000Y-11460000D02*
G75*
G03*
X10332000Y-11460000I-20000J0D01*
G01*
X10352000Y-12470000D02*
X10352000Y-12530000D01*
X10322000Y-12500000D02*
X10382000Y-12500000D01*
X10332000Y-12460000D02*
X10332000Y-12540000D01*
X10372000Y-12460000D02*
X10372000Y-12540000D01*
X10332000Y-12540000D02*
G75*
G03*
X10372000Y-12540000I20000J0D01*
G01*
X10372000Y-12460000D02*
G75*
G03*
X10332000Y-12460000I-20000J0D01*
G01*
X10352000Y-14470000D02*
X10352000Y-14530000D01*
X10322000Y-14500000D02*
X10382000Y-14500000D01*
X10332000Y-14460000D02*
X10332000Y-14540000D01*
X10372000Y-14460000D02*
X10372000Y-14540000D01*
X10332000Y-14540000D02*
G75*
G03*
X10372000Y-14540000I20000J0D01*
G01*
X10372000Y-14460000D02*
G75*
G03*
X10332000Y-14460000I-20000J0D01*
G01*
X10662000Y-11470000D02*
X10662000Y-11530000D01*
X10632000Y-11500000D02*
X10692000Y-11500000D01*
X10642000Y-11430000D02*
X10642000Y-11570000D01*
X10682000Y-11430000D02*
X10682000Y-11570000D01*
X10642000Y-11570000D02*
G75*
G03*
X10682000Y-11570000I20000J0D01*
G01*
X10682000Y-11430000D02*
G75*
G03*
X10642000Y-11430000I-20000J0D01*
G01*
X10662000Y-12470000D02*
X10662000Y-12530000D01*
X10632000Y-12500000D02*
X10692000Y-12500000D01*
X10642000Y-12430000D02*
X10642000Y-12570000D01*
X10682000Y-12430000D02*
X10682000Y-12570000D01*
X10642000Y-12570000D02*
G75*
G03*
X10682000Y-12570000I20000J0D01*
G01*
X10682000Y-12430000D02*
G75*
G03*
X10642000Y-12430000I-20000J0D01*
G01*
X10662000Y-14470000D02*
X10662000Y-14530000D01*
X10632000Y-14500000D02*
X10692000Y-14500000D01*
X10642000Y-14430000D02*
X10642000Y-14570000D01*
X10682000Y-14430000D02*
X10682000Y-14570000D01*
X10642000Y-14570000D02*
G75*
G03*
X10682000Y-14570000I20000J0D01*
G01*
X10682000Y-14430000D02*
G75*
G03*
X10642000Y-14430000I-20000J0D01*
G01*
X13338000Y-11470000D02*
X13338000Y-11530000D01*
X13308000Y-11500000D02*
X13368000Y-11500000D01*
X13358000Y-11570000D02*
X13358000Y-11430000D01*
X13318000Y-11570000D02*
X13318000Y-11430000D01*
X13358000Y-11430000D02*
G75*
G03*
X13318000Y-11430000I-20000J0D01*
G01*
X13318000Y-11570000D02*
G75*
G03*
X13358000Y-11570000I20000J0D01*
G01*
X13338000Y-12470000D02*
X13338000Y-12530000D01*
X13308000Y-12500000D02*
X13368000Y-12500000D01*
X13358000Y-12570000D02*
X13358000Y-12430000D01*
X13318000Y-12570000D02*
X13318000Y-12430000D01*
X13358000Y-12430000D02*
G75*
G03*
X13318000Y-12430000I-20000J0D01*
G01*
X13318000Y-12570000D02*
G75*
G03*
X13358000Y-12570000I20000J0D01*
G01*
X13338000Y-14470000D02*
X13338000Y-14530000D01*
X13308000Y-14500000D02*
X13368000Y-14500000D01*
X13358000Y-14570000D02*
X13358000Y-14430000D01*
X13318000Y-14570000D02*
X13318000Y-14430000D01*
X13358000Y-14430000D02*
G75*
G03*
X13318000Y-14430000I-20000J0D01*
G01*
X13318000Y-14570000D02*
G75*
G03*
X13358000Y-14570000I20000J0D01*
G01*
X13648000Y-11470000D02*
X13648000Y-11530000D01*
X13618000Y-11500000D02*
X13678000Y-11500000D01*
X13668000Y-11540000D02*
X13668000Y-11460000D01*
X13628000Y-11540000D02*
X13628000Y-11460000D01*
X13668000Y-11460000D02*
G75*
G03*
X13628000Y-11460000I-20000J0D01*
G01*
X13628000Y-11540000D02*
G75*
G03*
X13668000Y-11540000I20000J0D01*
G01*
X13648000Y-12470000D02*
X13648000Y-12530000D01*
X13618000Y-12500000D02*
X13678000Y-12500000D01*
X13668000Y-12540000D02*
X13668000Y-12460000D01*
X13628000Y-12540000D02*
X13628000Y-12460000D01*
X13668000Y-12460000D02*
G75*
G03*
X13628000Y-12460000I-20000J0D01*
G01*
X13628000Y-12540000D02*
G75*
G03*
X13668000Y-12540000I20000J0D01*
G01*
X13648000Y-14470000D02*
X13648000Y-14530000D01*
X13618000Y-14500000D02*
X13678000Y-14500000D01*
X13668000Y-14540000D02*
X13668000Y-14460000D01*
X13628000Y-14540000D02*
X13628000Y-14460000D01*
X13668000Y-14460000D02*
G75*
G03*
X13628000Y-14460000I-20000J0D01*
G01*
X13628000Y-14540000D02*
G75*
G03*
X13668000Y-14540000I20000J0D01*
G01*
X15338000Y-13470000D02*
X15338000Y-13530000D01*
X15308000Y-13500000D02*
X15368000Y-13500000D01*
X15358000Y-13570000D02*
X15358000Y-13430000D01*
X15318000Y-13570000D02*
X15318000Y-13430000D01*
X15358000Y-13430000D02*
G75*
G03*
X15318000Y-13430000I-20000J0D01*
G01*
X15318000Y-13570000D02*
G75*
G03*
X15358000Y-13570000I20000J0D01*
G01*
X15338000Y-14470000D02*
X15338000Y-14530000D01*
X15308000Y-14500000D02*
X15368000Y-14500000D01*
X15358000Y-14570000D02*
X15358000Y-14430000D01*
X15318000Y-14570000D02*
X15318000Y-14430000D01*
X15358000Y-14430000D02*
G75*
G03*
X15318000Y-14430000I-20000J0D01*
G01*
X15318000Y-14570000D02*
G75*
G03*
X15358000Y-14570000I20000J0D01*
G01*
X15345500Y-11470000D02*
X15345500Y-11530000D01*
X15315500Y-11500000D02*
X15375500Y-11500000D01*
X15365500Y-11570000D02*
X15365500Y-11430000D01*
X15325500Y-11570000D02*
X15325500Y-11430000D01*
X15365500Y-11430000D02*
G75*
G03*
X15325500Y-11430000I-20000J0D01*
G01*
X15325500Y-11570000D02*
G75*
G03*
X15365500Y-11570000I20000J0D01*
G01*
X15345500Y-12470000D02*
X15345500Y-12530000D01*
X15315500Y-12500000D02*
X15375500Y-12500000D01*
X15365500Y-12570000D02*
X15365500Y-12430000D01*
X15325500Y-12570000D02*
X15325500Y-12430000D01*
X15365500Y-12430000D02*
G75*
G03*
X15325500Y-12430000I-20000J0D01*
G01*
X15325500Y-12570000D02*
G75*
G03*
X15365500Y-12570000I20000J0D01*
G01*
X15648000Y-13470000D02*
X15648000Y-13530000D01*
X15618000Y-13500000D02*
X15678000Y-13500000D01*
X15668000Y-13540000D02*
X15668000Y-13460000D01*
X15628000Y-13540000D02*
X15628000Y-13460000D01*
X15668000Y-13460000D02*
G75*
G03*
X15628000Y-13460000I-20000J0D01*
G01*
X15628000Y-13540000D02*
G75*
G03*
X15668000Y-13540000I20000J0D01*
G01*
X15648000Y-14470000D02*
X15648000Y-14530000D01*
X15618000Y-14500000D02*
X15678000Y-14500000D01*
X15668000Y-14540000D02*
X15668000Y-14460000D01*
X15628000Y-14540000D02*
X15628000Y-14460000D01*
X15668000Y-14460000D02*
G75*
G03*
X15628000Y-14460000I-20000J0D01*
G01*
X15628000Y-14540000D02*
G75*
G03*
X15668000Y-14540000I20000J0D01*
G01*
X15655500Y-11470000D02*
X15655500Y-11530000D01*
X15625500Y-11500000D02*
X15685500Y-11500000D01*
X15675500Y-11540000D02*
X15675500Y-11460000D01*
X15635500Y-11540000D02*
X15635500Y-11460000D01*
X15675500Y-11460000D02*
G75*
G03*
X15635500Y-11460000I-20000J0D01*
G01*
X15635500Y-11540000D02*
G75*
G03*
X15675500Y-11540000I20000J0D01*
G01*
X15655500Y-12470000D02*
X15655500Y-12530000D01*
X15625500Y-12500000D02*
X15685500Y-12500000D01*
X15675500Y-12540000D02*
X15675500Y-12460000D01*
X15635500Y-12540000D02*
X15635500Y-12460000D01*
X15675500Y-12460000D02*
G75*
G03*
X15635500Y-12460000I-20000J0D01*
G01*
X15635500Y-12540000D02*
G75*
G03*
X15675500Y-12540000I20000J0D01*
G01*
X16352000Y-11470000D02*
X16352000Y-11530000D01*
X16322000Y-11500000D02*
X16382000Y-11500000D01*
X16332000Y-11460000D02*
X16332000Y-11540000D01*
X16372000Y-11460000D02*
X16372000Y-11540000D01*
X16332000Y-11540000D02*
G75*
G03*
X16372000Y-11540000I20000J0D01*
G01*
X16372000Y-11460000D02*
G75*
G03*
X16332000Y-11460000I-20000J0D01*
G01*
X16352000Y-12470000D02*
X16352000Y-12530000D01*
X16322000Y-12500000D02*
X16382000Y-12500000D01*
X16332000Y-12460000D02*
X16332000Y-12540000D01*
X16372000Y-12460000D02*
X16372000Y-12540000D01*
X16332000Y-12540000D02*
G75*
G03*
X16372000Y-12540000I20000J0D01*
G01*
X16372000Y-12460000D02*
G75*
G03*
X16332000Y-12460000I-20000J0D01*
G01*
X16352000Y-14470000D02*
X16352000Y-14530000D01*
X16322000Y-14500000D02*
X16382000Y-14500000D01*
X16332000Y-14460000D02*
X16332000Y-14540000D01*
X16372000Y-14460000D02*
X16372000Y-14540000D01*
X16332000Y-14540000D02*
G75*
G03*
X16372000Y-14540000I20000J0D01*
G01*
X16372000Y-14460000D02*
G75*
G03*
X16332000Y-14460000I-20000J0D01*
G01*
X16662000Y-11470000D02*
X16662000Y-11530000D01*
X16632000Y-11500000D02*
X16692000Y-11500000D01*
X16642000Y-11430000D02*
X16642000Y-11570000D01*
X16682000Y-11430000D02*
X16682000Y-11570000D01*
X16642000Y-11570000D02*
G75*
G03*
X16682000Y-11570000I20000J0D01*
G01*
X16682000Y-11430000D02*
G75*
G03*
X16642000Y-11430000I-20000J0D01*
G01*
X16662000Y-12470000D02*
X16662000Y-12530000D01*
X16632000Y-12500000D02*
X16692000Y-12500000D01*
X16642000Y-12430000D02*
X16642000Y-12570000D01*
X16682000Y-12430000D02*
X16682000Y-12570000D01*
X16642000Y-12570000D02*
G75*
G03*
X16682000Y-12570000I20000J0D01*
G01*
X16682000Y-12430000D02*
G75*
G03*
X16642000Y-12430000I-20000J0D01*
G01*
X16662000Y-14470000D02*
X16662000Y-14530000D01*
X16632000Y-14500000D02*
X16692000Y-14500000D01*
X16642000Y-14430000D02*
X16642000Y-14570000D01*
X16682000Y-14430000D02*
X16682000Y-14570000D01*
X16642000Y-14570000D02*
G75*
G03*
X16682000Y-14570000I20000J0D01*
G01*
X16682000Y-14430000D02*
G75*
G03*
X16642000Y-14430000I-20000J0D01*
G01*
X19338000Y-11470000D02*
X19338000Y-11530000D01*
X19308000Y-11500000D02*
X19368000Y-11500000D01*
X19358000Y-11570000D02*
X19358000Y-11430000D01*
X19318000Y-11570000D02*
X19318000Y-11430000D01*
X19358000Y-11430000D02*
G75*
G03*
X19318000Y-11430000I-20000J0D01*
G01*
X19318000Y-11570000D02*
G75*
G03*
X19358000Y-11570000I20000J0D01*
G01*
X19338000Y-12470000D02*
X19338000Y-12530000D01*
X19308000Y-12500000D02*
X19368000Y-12500000D01*
X19358000Y-12570000D02*
X19358000Y-12430000D01*
X19318000Y-12570000D02*
X19318000Y-12430000D01*
X19358000Y-12430000D02*
G75*
G03*
X19318000Y-12430000I-20000J0D01*
G01*
X19318000Y-12570000D02*
G75*
G03*
X19358000Y-12570000I20000J0D01*
G01*
X19338000Y-14470000D02*
X19338000Y-14530000D01*
X19308000Y-14500000D02*
X19368000Y-14500000D01*
X19358000Y-14570000D02*
X19358000Y-14430000D01*
X19318000Y-14570000D02*
X19318000Y-14430000D01*
X19358000Y-14430000D02*
G75*
G03*
X19318000Y-14430000I-20000J0D01*
G01*
X19318000Y-14570000D02*
G75*
G03*
X19358000Y-14570000I20000J0D01*
G01*
X19648000Y-11470000D02*
X19648000Y-11530000D01*
X19618000Y-11500000D02*
X19678000Y-11500000D01*
X19668000Y-11540000D02*
X19668000Y-11460000D01*
X19628000Y-11540000D02*
X19628000Y-11460000D01*
X19668000Y-11460000D02*
G75*
G03*
X19628000Y-11460000I-20000J0D01*
G01*
X19628000Y-11540000D02*
G75*
G03*
X19668000Y-11540000I20000J0D01*
G01*
X19648000Y-12470000D02*
X19648000Y-12530000D01*
X19618000Y-12500000D02*
X19678000Y-12500000D01*
X19668000Y-12540000D02*
X19668000Y-12460000D01*
X19628000Y-12540000D02*
X19628000Y-12460000D01*
X19668000Y-12460000D02*
G75*
G03*
X19628000Y-12460000I-20000J0D01*
G01*
X19628000Y-12540000D02*
G75*
G03*
X19668000Y-12540000I20000J0D01*
G01*
X19648000Y-14470000D02*
X19648000Y-14530000D01*
X19618000Y-14500000D02*
X19678000Y-14500000D01*
X19668000Y-14540000D02*
X19668000Y-14460000D01*
X19628000Y-14540000D02*
X19628000Y-14460000D01*
X19668000Y-14460000D02*
G75*
G03*
X19628000Y-14460000I-20000J0D01*
G01*
X19628000Y-14540000D02*
G75*
G03*
X19668000Y-14540000I20000J0D01*
G01*
X12328284Y-6240284D02*
X12328284Y-6183715D01*
X12271715Y-6183715D01*
X12271715Y-6240284D01*
X12328284Y-6240284D01*
X12328284Y-6728284D02*
X12328284Y-6671715D01*
X12271715Y-6671715D01*
X12271715Y-6728284D01*
X12328284Y-6728284D01*
X18378285Y-6290284D02*
X18378285Y-6233715D01*
X18321716Y-6233715D01*
X18321716Y-6290284D01*
X18378285Y-6290284D01*
X18378285Y-6778284D02*
X18378285Y-6721715D01*
X18321716Y-6721715D01*
X18321716Y-6778284D01*
X18378285Y-6778284D01*
X10200000Y-5250000D02*
X10250000Y-5200000D01*
X10200000Y-5150000D01*
X10150000Y-5200000D01*
X10200000Y-5250000D01*
X10200000Y-5504000D02*
X10250000Y-5454000D01*
X10200000Y-5404000D01*
X10150000Y-5454000D01*
X10200000Y-5504000D01*
X10200000Y-5758000D02*
X10250000Y-5708000D01*
X10200000Y-5658000D01*
X10150000Y-5708000D01*
X10200000Y-5758000D01*
X10454000Y-5250000D02*
X10504000Y-5200000D01*
X10454000Y-5150000D01*
X10404000Y-5200000D01*
X10454000Y-5250000D01*
X10454000Y-5504000D02*
X10504000Y-5454000D01*
X10454000Y-5404000D01*
X10404000Y-5454000D01*
X10454000Y-5504000D01*
X10454000Y-5758000D02*
X10504000Y-5708000D01*
X10454000Y-5658000D01*
X10404000Y-5708000D01*
X10454000Y-5758000D01*
X10750000Y-8900000D02*
X10800000Y-8850000D01*
X10750000Y-8800000D01*
X10700000Y-8850000D01*
X10750000Y-8900000D01*
X10750000Y-10350000D02*
X10800000Y-10300000D01*
X10750000Y-10250000D01*
X10700000Y-10300000D01*
X10750000Y-10350000D01*
X10946000Y-14550000D02*
X10996000Y-14500000D01*
X10946000Y-14450000D01*
X10896000Y-14500000D01*
X10946000Y-14550000D01*
X11000000Y-8900000D02*
X11050000Y-8850000D01*
X11000000Y-8800000D01*
X10950000Y-8850000D01*
X11000000Y-8900000D01*
X11200000Y-14550000D02*
X11250000Y-14500000D01*
X11200000Y-14450000D01*
X11150000Y-14500000D01*
X11200000Y-14550000D01*
X11250000Y-8900000D02*
X11300000Y-8850000D01*
X11250000Y-8800000D01*
X11200000Y-8850000D01*
X11250000Y-8900000D01*
X11250000Y-10350000D02*
X11300000Y-10300000D01*
X11250000Y-10250000D01*
X11200000Y-10300000D01*
X11250000Y-10350000D01*
X11600000Y-8446000D02*
X11650000Y-8396000D01*
X11600000Y-8346000D01*
X11550000Y-8396000D01*
X11600000Y-8446000D01*
X11600000Y-8700000D02*
X11650000Y-8650000D01*
X11600000Y-8600000D01*
X11550000Y-8650000D01*
X11600000Y-8700000D01*
X11650000Y-7850000D02*
X11700000Y-7800000D01*
X11650000Y-7750000D01*
X11600000Y-7800000D01*
X11650000Y-7850000D01*
X11900000Y-11146000D02*
X11950000Y-11096000D01*
X11900000Y-11046000D01*
X11850000Y-11096000D01*
X11900000Y-11146000D01*
X11900000Y-11400000D02*
X11950000Y-11350000D01*
X11900000Y-11300000D01*
X11850000Y-11350000D01*
X11900000Y-11400000D01*
X11904000Y-7850000D02*
X11954000Y-7800000D01*
X11904000Y-7750000D01*
X11854000Y-7800000D01*
X11904000Y-7850000D01*
X11950000Y-8446000D02*
X12000000Y-8396000D01*
X11950000Y-8346000D01*
X11900000Y-8396000D01*
X11950000Y-8446000D01*
X11950000Y-8700000D02*
X12000000Y-8650000D01*
X11950000Y-8600000D01*
X11900000Y-8650000D01*
X11950000Y-8700000D01*
X12000000Y-13600000D02*
X12050000Y-13550000D01*
X12000000Y-13500000D01*
X11950000Y-13550000D01*
X12000000Y-13600000D01*
X12000000Y-13854000D02*
X12050000Y-13804000D01*
X12000000Y-13754000D01*
X11950000Y-13804000D01*
X12000000Y-13854000D01*
X12000000Y-14108000D02*
X12050000Y-14058000D01*
X12000000Y-14008000D01*
X11950000Y-14058000D01*
X12000000Y-14108000D01*
X12000000Y-14362000D02*
X12050000Y-14312000D01*
X12000000Y-14262000D01*
X11950000Y-14312000D01*
X12000000Y-14362000D01*
X12000000Y-14616000D02*
X12050000Y-14566000D01*
X12000000Y-14516000D01*
X11950000Y-14566000D01*
X12000000Y-14616000D01*
X12000000Y-14870000D02*
X12050000Y-14820000D01*
X12000000Y-14770000D01*
X11950000Y-14820000D01*
X12000000Y-14870000D01*
X12158000Y-7850000D02*
X12208000Y-7800000D01*
X12158000Y-7750000D01*
X12108000Y-7800000D01*
X12158000Y-7850000D01*
X12300000Y-8446000D02*
X12350000Y-8396000D01*
X12300000Y-8346000D01*
X12250000Y-8396000D01*
X12300000Y-8446000D01*
X12300000Y-8700000D02*
X12350000Y-8650000D01*
X12300000Y-8600000D01*
X12250000Y-8650000D01*
X12300000Y-8700000D01*
X12412000Y-7850000D02*
X12462000Y-7800000D01*
X12412000Y-7750000D01*
X12362000Y-7800000D01*
X12412000Y-7850000D01*
X12546000Y-5250000D02*
X12596000Y-5200000D01*
X12546000Y-5150000D01*
X12496000Y-5200000D01*
X12546000Y-5250000D01*
X12546000Y-5504000D02*
X12596000Y-5454000D01*
X12546000Y-5404000D01*
X12496000Y-5454000D01*
X12546000Y-5504000D01*
X12546000Y-5758000D02*
X12596000Y-5708000D01*
X12546000Y-5658000D01*
X12496000Y-5708000D01*
X12546000Y-5758000D01*
X12750000Y-8900000D02*
X12800000Y-8850000D01*
X12750000Y-8800000D01*
X12700000Y-8850000D01*
X12750000Y-8900000D01*
X12750000Y-10350000D02*
X12800000Y-10300000D01*
X12750000Y-10250000D01*
X12700000Y-10300000D01*
X12750000Y-10350000D01*
X12800000Y-5250000D02*
X12850000Y-5200000D01*
X12800000Y-5150000D01*
X12750000Y-5200000D01*
X12800000Y-5250000D01*
X12800000Y-5504000D02*
X12850000Y-5454000D01*
X12800000Y-5404000D01*
X12750000Y-5454000D01*
X12800000Y-5504000D01*
X12800000Y-5758000D02*
X12850000Y-5708000D01*
X12800000Y-5658000D01*
X12750000Y-5708000D01*
X12800000Y-5758000D01*
X12800000Y-6296000D02*
X12850000Y-6246000D01*
X12800000Y-6196000D01*
X12750000Y-6246000D01*
X12800000Y-6296000D01*
X12800000Y-6550000D02*
X12850000Y-6500000D01*
X12800000Y-6450000D01*
X12750000Y-6500000D01*
X12800000Y-6550000D01*
X12800000Y-6804000D02*
X12850000Y-6754000D01*
X12800000Y-6704000D01*
X12750000Y-6754000D01*
X12800000Y-6804000D01*
X12800000Y-7058000D02*
X12850000Y-7008000D01*
X12800000Y-6958000D01*
X12750000Y-7008000D01*
X12800000Y-7058000D01*
X12800000Y-7312000D02*
X12850000Y-7262000D01*
X12800000Y-7212000D01*
X12750000Y-7262000D01*
X12800000Y-7312000D01*
X12846000Y-14550000D02*
X12896000Y-14500000D01*
X12846000Y-14450000D01*
X12796000Y-14500000D01*
X12846000Y-14550000D01*
X13000000Y-8900000D02*
X13050000Y-8850000D01*
X13000000Y-8800000D01*
X12950000Y-8850000D01*
X13000000Y-8900000D01*
X13100000Y-14550000D02*
X13150000Y-14500000D01*
X13100000Y-14450000D01*
X13050000Y-14500000D01*
X13100000Y-14550000D01*
X13250000Y-8900000D02*
X13300000Y-8850000D01*
X13250000Y-8800000D01*
X13200000Y-8850000D01*
X13250000Y-8900000D01*
X13250000Y-10350000D02*
X13300000Y-10300000D01*
X13250000Y-10250000D01*
X13200000Y-10300000D01*
X13250000Y-10350000D01*
X13350000Y-6372000D02*
X13400000Y-6322000D01*
X13350000Y-6272000D01*
X13300000Y-6322000D01*
X13350000Y-6372000D01*
X13350000Y-6626000D02*
X13400000Y-6576000D01*
X13350000Y-6526000D01*
X13300000Y-6576000D01*
X13350000Y-6626000D01*
X13350000Y-6880000D02*
X13400000Y-6830000D01*
X13350000Y-6780000D01*
X13300000Y-6830000D01*
X13350000Y-6880000D01*
X13350000Y-7134000D02*
X13400000Y-7084000D01*
X13350000Y-7034000D01*
X13300000Y-7084000D01*
X13350000Y-7134000D01*
X13350000Y-7388000D02*
X13400000Y-7338000D01*
X13350000Y-7288000D01*
X13300000Y-7338000D01*
X13350000Y-7388000D01*
X13350000Y-7642000D02*
X13400000Y-7592000D01*
X13350000Y-7542000D01*
X13300000Y-7592000D01*
X13350000Y-7642000D01*
X13350000Y-7896000D02*
X13400000Y-7846000D01*
X13350000Y-7796000D01*
X13300000Y-7846000D01*
X13350000Y-7896000D01*
X13350000Y-8150000D02*
X13400000Y-8100000D01*
X13350000Y-8050000D01*
X13300000Y-8100000D01*
X13350000Y-8150000D01*
X13604000Y-6372000D02*
X13654000Y-6322000D01*
X13604000Y-6272000D01*
X13554000Y-6322000D01*
X13604000Y-6372000D01*
X13604000Y-6626000D02*
X13654000Y-6576000D01*
X13604000Y-6526000D01*
X13554000Y-6576000D01*
X13604000Y-6626000D01*
X13604000Y-6880000D02*
X13654000Y-6830000D01*
X13604000Y-6780000D01*
X13554000Y-6830000D01*
X13604000Y-6880000D01*
X13604000Y-7134000D02*
X13654000Y-7084000D01*
X13604000Y-7034000D01*
X13554000Y-7084000D01*
X13604000Y-7134000D01*
X13604000Y-7388000D02*
X13654000Y-7338000D01*
X13604000Y-7288000D01*
X13554000Y-7338000D01*
X13604000Y-7388000D01*
X13604000Y-7642000D02*
X13654000Y-7592000D01*
X13604000Y-7542000D01*
X13554000Y-7592000D01*
X13604000Y-7642000D01*
X13604000Y-7896000D02*
X13654000Y-7846000D01*
X13604000Y-7796000D01*
X13554000Y-7846000D01*
X13604000Y-7896000D01*
X13604000Y-8150000D02*
X13654000Y-8100000D01*
X13604000Y-8050000D01*
X13554000Y-8100000D01*
X13604000Y-8150000D01*
X14800000Y-9613500D02*
X14850000Y-9563500D01*
X14800000Y-9513500D01*
X14750000Y-9563500D01*
X14800000Y-9613500D01*
X14800000Y-9867500D02*
X14850000Y-9817500D01*
X14800000Y-9767500D01*
X14750000Y-9817500D01*
X14800000Y-9867500D01*
X14800000Y-10396000D02*
X14850000Y-10346000D01*
X14800000Y-10296000D01*
X14750000Y-10346000D01*
X14800000Y-10396000D01*
X14800000Y-10650000D02*
X14850000Y-10600000D01*
X14800000Y-10550000D01*
X14750000Y-10600000D01*
X14800000Y-10650000D01*
X14925000Y-5984000D02*
X14975000Y-5934000D01*
X14925000Y-5884000D01*
X14875000Y-5934000D01*
X14925000Y-5984000D01*
X14925000Y-6238000D02*
X14975000Y-6188000D01*
X14925000Y-6138000D01*
X14875000Y-6188000D01*
X14925000Y-6238000D01*
X14925000Y-6492000D02*
X14975000Y-6442000D01*
X14925000Y-6392000D01*
X14875000Y-6442000D01*
X14925000Y-6492000D01*
X14925000Y-6746000D02*
X14975000Y-6696000D01*
X14925000Y-6646000D01*
X14875000Y-6696000D01*
X14925000Y-6746000D01*
X14925000Y-7000000D02*
X14975000Y-6950000D01*
X14925000Y-6900000D01*
X14875000Y-6950000D01*
X14925000Y-7000000D01*
X15179000Y-5984000D02*
X15229000Y-5934000D01*
X15179000Y-5884000D01*
X15129000Y-5934000D01*
X15179000Y-5984000D01*
X15179000Y-6238000D02*
X15229000Y-6188000D01*
X15179000Y-6138000D01*
X15129000Y-6188000D01*
X15179000Y-6238000D01*
X15179000Y-6492000D02*
X15229000Y-6442000D01*
X15179000Y-6392000D01*
X15129000Y-6442000D01*
X15179000Y-6492000D01*
X15179000Y-6746000D02*
X15229000Y-6696000D01*
X15179000Y-6646000D01*
X15129000Y-6696000D01*
X15179000Y-6746000D01*
X15179000Y-7000000D02*
X15229000Y-6950000D01*
X15179000Y-6900000D01*
X15129000Y-6950000D01*
X15179000Y-7000000D01*
X15200000Y-9613500D02*
X15250000Y-9563500D01*
X15200000Y-9513500D01*
X15150000Y-9563500D01*
X15200000Y-9613500D01*
X15200000Y-9867500D02*
X15250000Y-9817500D01*
X15200000Y-9767500D01*
X15150000Y-9817500D01*
X15200000Y-9867500D01*
X15200000Y-10396000D02*
X15250000Y-10346000D01*
X15200000Y-10296000D01*
X15150000Y-10346000D01*
X15200000Y-10396000D01*
X15200000Y-10650000D02*
X15250000Y-10600000D01*
X15200000Y-10550000D01*
X15150000Y-10600000D01*
X15200000Y-10650000D01*
X16200000Y-5250000D02*
X16250000Y-5200000D01*
X16200000Y-5150000D01*
X16150000Y-5200000D01*
X16200000Y-5250000D01*
X16200000Y-5504000D02*
X16250000Y-5454000D01*
X16200000Y-5404000D01*
X16150000Y-5454000D01*
X16200000Y-5504000D01*
X16200000Y-5758000D02*
X16250000Y-5708000D01*
X16200000Y-5658000D01*
X16150000Y-5708000D01*
X16200000Y-5758000D01*
X16454000Y-5250000D02*
X16504000Y-5200000D01*
X16454000Y-5150000D01*
X16404000Y-5200000D01*
X16454000Y-5250000D01*
X16454000Y-5504000D02*
X16504000Y-5454000D01*
X16454000Y-5404000D01*
X16404000Y-5454000D01*
X16454000Y-5504000D01*
X16454000Y-5758000D02*
X16504000Y-5708000D01*
X16454000Y-5658000D01*
X16404000Y-5708000D01*
X16454000Y-5758000D01*
X16750000Y-8900000D02*
X16800000Y-8850000D01*
X16750000Y-8800000D01*
X16700000Y-8850000D01*
X16750000Y-8900000D01*
X16750000Y-10350000D02*
X16800000Y-10300000D01*
X16750000Y-10250000D01*
X16700000Y-10300000D01*
X16750000Y-10350000D01*
X17000000Y-8900000D02*
X17050000Y-8850000D01*
X17000000Y-8800000D01*
X16950000Y-8850000D01*
X17000000Y-8900000D01*
X17250000Y-8900000D02*
X17300000Y-8850000D01*
X17250000Y-8800000D01*
X17200000Y-8850000D01*
X17250000Y-8900000D01*
X17250000Y-10350000D02*
X17300000Y-10300000D01*
X17250000Y-10250000D01*
X17200000Y-10300000D01*
X17250000Y-10350000D01*
X17600000Y-7850000D02*
X17650000Y-7800000D01*
X17600000Y-7750000D01*
X17550000Y-7800000D01*
X17600000Y-7850000D01*
X17700000Y-14270000D02*
X17750000Y-14220000D01*
X17700000Y-14170000D01*
X17650000Y-14220000D01*
X17700000Y-14270000D01*
X17700000Y-14524000D02*
X17750000Y-14474000D01*
X17700000Y-14424000D01*
X17650000Y-14474000D01*
X17700000Y-14524000D01*
X17854000Y-7850000D02*
X17904000Y-7800000D01*
X17854000Y-7750000D01*
X17804000Y-7800000D01*
X17854000Y-7850000D01*
X17900000Y-11146000D02*
X17950000Y-11096000D01*
X17900000Y-11046000D01*
X17850000Y-11096000D01*
X17900000Y-11146000D01*
X17900000Y-11400000D02*
X17950000Y-11350000D01*
X17900000Y-11300000D01*
X17850000Y-11350000D01*
X17900000Y-11400000D01*
X18000000Y-13630000D02*
X18050000Y-13580000D01*
X18000000Y-13530000D01*
X17950000Y-13580000D01*
X18000000Y-13630000D01*
X18000000Y-13884000D02*
X18050000Y-13834000D01*
X18000000Y-13784000D01*
X17950000Y-13834000D01*
X18000000Y-13884000D01*
X18000000Y-14138000D02*
X18050000Y-14088000D01*
X18000000Y-14038000D01*
X17950000Y-14088000D01*
X18000000Y-14138000D01*
X18000000Y-14392000D02*
X18050000Y-14342000D01*
X18000000Y-14292000D01*
X17950000Y-14342000D01*
X18000000Y-14392000D01*
X18000000Y-14646000D02*
X18050000Y-14596000D01*
X18000000Y-14546000D01*
X17950000Y-14596000D01*
X18000000Y-14646000D01*
X18000000Y-14900000D02*
X18050000Y-14850000D01*
X18000000Y-14800000D01*
X17950000Y-14850000D01*
X18000000Y-14900000D01*
X18108000Y-7850000D02*
X18158000Y-7800000D01*
X18108000Y-7750000D01*
X18058000Y-7800000D01*
X18108000Y-7850000D01*
X18300000Y-14270000D02*
X18350000Y-14220000D01*
X18300000Y-14170000D01*
X18250000Y-14220000D01*
X18300000Y-14270000D01*
X18300000Y-14524000D02*
X18350000Y-14474000D01*
X18300000Y-14424000D01*
X18250000Y-14474000D01*
X18300000Y-14524000D01*
X18362000Y-7850000D02*
X18412000Y-7800000D01*
X18362000Y-7750000D01*
X18312000Y-7800000D01*
X18362000Y-7850000D01*
X18646000Y-5425000D02*
X18696000Y-5375000D01*
X18646000Y-5325000D01*
X18596000Y-5375000D01*
X18646000Y-5425000D01*
X18646000Y-5679000D02*
X18696000Y-5629000D01*
X18646000Y-5579000D01*
X18596000Y-5629000D01*
X18646000Y-5679000D01*
X18646000Y-5933000D02*
X18696000Y-5883000D01*
X18646000Y-5833000D01*
X18596000Y-5883000D01*
X18646000Y-5933000D01*
X18750000Y-8900000D02*
X18800000Y-8850000D01*
X18750000Y-8800000D01*
X18700000Y-8850000D01*
X18750000Y-8900000D01*
X18750000Y-10350000D02*
X18800000Y-10300000D01*
X18750000Y-10250000D01*
X18700000Y-10300000D01*
X18750000Y-10350000D01*
X18820000Y-6314000D02*
X18870000Y-6264000D01*
X18820000Y-6214000D01*
X18770000Y-6264000D01*
X18820000Y-6314000D01*
X18820000Y-6568000D02*
X18870000Y-6518000D01*
X18820000Y-6468000D01*
X18770000Y-6518000D01*
X18820000Y-6568000D01*
X18820000Y-6822000D02*
X18870000Y-6772000D01*
X18820000Y-6722000D01*
X18770000Y-6772000D01*
X18820000Y-6822000D01*
X18820000Y-7076000D02*
X18870000Y-7026000D01*
X18820000Y-6976000D01*
X18770000Y-7026000D01*
X18820000Y-7076000D01*
X18820000Y-7330000D02*
X18870000Y-7280000D01*
X18820000Y-7230000D01*
X18770000Y-7280000D01*
X18820000Y-7330000D01*
X18900000Y-5425000D02*
X18950000Y-5375000D01*
X18900000Y-5325000D01*
X18850000Y-5375000D01*
X18900000Y-5425000D01*
X18900000Y-5679000D02*
X18950000Y-5629000D01*
X18900000Y-5579000D01*
X18850000Y-5629000D01*
X18900000Y-5679000D01*
X18900000Y-5933000D02*
X18950000Y-5883000D01*
X18900000Y-5833000D01*
X18850000Y-5883000D01*
X18900000Y-5933000D01*
X19000000Y-8900000D02*
X19050000Y-8850000D01*
X19000000Y-8800000D01*
X18950000Y-8850000D01*
X19000000Y-8900000D01*
X19250000Y-8900000D02*
X19300000Y-8850000D01*
X19250000Y-8800000D01*
X19200000Y-8850000D01*
X19250000Y-8900000D01*
X19250000Y-10350000D02*
X19300000Y-10300000D01*
X19250000Y-10250000D01*
X19200000Y-10300000D01*
X19250000Y-10350000D01*
X19350000Y-6372000D02*
X19400000Y-6322000D01*
X19350000Y-6272000D01*
X19300000Y-6322000D01*
X19350000Y-6372000D01*
X19350000Y-6626000D02*
X19400000Y-6576000D01*
X19350000Y-6526000D01*
X19300000Y-6576000D01*
X19350000Y-6626000D01*
X19350000Y-6880000D02*
X19400000Y-6830000D01*
X19350000Y-6780000D01*
X19300000Y-6830000D01*
X19350000Y-6880000D01*
X19350000Y-7134000D02*
X19400000Y-7084000D01*
X19350000Y-7034000D01*
X19300000Y-7084000D01*
X19350000Y-7134000D01*
X19350000Y-7388000D02*
X19400000Y-7338000D01*
X19350000Y-7288000D01*
X19300000Y-7338000D01*
X19350000Y-7388000D01*
X19350000Y-7642000D02*
X19400000Y-7592000D01*
X19350000Y-7542000D01*
X19300000Y-7592000D01*
X19350000Y-7642000D01*
X19350000Y-7896000D02*
X19400000Y-7846000D01*
X19350000Y-7796000D01*
X19300000Y-7846000D01*
X19350000Y-7896000D01*
X19350000Y-8150000D02*
X19400000Y-8100000D01*
X19350000Y-8050000D01*
X19300000Y-8100000D01*
X19350000Y-8150000D01*
X19604000Y-6372000D02*
X19654000Y-6322000D01*
X19604000Y-6272000D01*
X19554000Y-6322000D01*
X19604000Y-6372000D01*
X19604000Y-6626000D02*
X19654000Y-6576000D01*
X19604000Y-6526000D01*
X19554000Y-6576000D01*
X19604000Y-6626000D01*
X19604000Y-6880000D02*
X19654000Y-6830000D01*
X19604000Y-6780000D01*
X19554000Y-6830000D01*
X19604000Y-6880000D01*
X19604000Y-7134000D02*
X19654000Y-7084000D01*
X19604000Y-7034000D01*
X19554000Y-7084000D01*
X19604000Y-7134000D01*
X19604000Y-7388000D02*
X19654000Y-7338000D01*
X19604000Y-7288000D01*
X19554000Y-7338000D01*
X19604000Y-7388000D01*
X19604000Y-7642000D02*
X19654000Y-7592000D01*
X19604000Y-7542000D01*
X19554000Y-7592000D01*
X19604000Y-7642000D01*
X19604000Y-7896000D02*
X19654000Y-7846000D01*
X19604000Y-7796000D01*
X19554000Y-7846000D01*
X19604000Y-7896000D01*
X19604000Y-8150000D02*
X19654000Y-8100000D01*
X19604000Y-8050000D01*
X19554000Y-8100000D01*
X19604000Y-8150000D01*
X10365000Y-9525000D02*
X10515000Y-9675000D01*
X10515000Y-9525000D02*
X10365000Y-9675000D01*
X10515000Y-9600000D02*
G75*
G03*
X10515000Y-9600000I-75000J0D01*
G01*
X10375000Y-9535000D02*
X10375000Y-9665000D01*
X10505000Y-9535000D02*
X10505000Y-9665000D01*
X10375000Y-9665000D02*
G75*
G03*
X10505000Y-9665000I65000J0D01*
G01*
X10505000Y-9535000D02*
G75*
G03*
X10375000Y-9535000I-65000J0D01*
G01*
X11485000Y-9525000D02*
X11635000Y-9675000D01*
X11635000Y-9525000D02*
X11485000Y-9675000D01*
X11635000Y-9600000D02*
G75*
G03*
X11635000Y-9600000I-75000J0D01*
G01*
X11495000Y-9535000D02*
X11495000Y-9665000D01*
X11625000Y-9535000D02*
X11625000Y-9665000D01*
X11495000Y-9665000D02*
G75*
G03*
X11625000Y-9665000I65000J0D01*
G01*
X11625000Y-9535000D02*
G75*
G03*
X11495000Y-9535000I-65000J0D01*
G01*
X12365000Y-9525000D02*
X12515000Y-9675000D01*
X12515000Y-9525000D02*
X12365000Y-9675000D01*
X12515000Y-9600000D02*
G75*
G03*
X12515000Y-9600000I-75000J0D01*
G01*
X12375000Y-9535000D02*
X12375000Y-9665000D01*
X12505000Y-9535000D02*
X12505000Y-9665000D01*
X12375000Y-9665000D02*
G75*
G03*
X12505000Y-9665000I65000J0D01*
G01*
X12505000Y-9535000D02*
G75*
G03*
X12375000Y-9535000I-65000J0D01*
G01*
X13485000Y-9525000D02*
X13635000Y-9675000D01*
X13635000Y-9525000D02*
X13485000Y-9675000D01*
X13635000Y-9600000D02*
G75*
G03*
X13635000Y-9600000I-75000J0D01*
G01*
X13495000Y-9535000D02*
X13495000Y-9665000D01*
X13625000Y-9535000D02*
X13625000Y-9665000D01*
X13495000Y-9665000D02*
G75*
G03*
X13625000Y-9665000I65000J0D01*
G01*
X13625000Y-9535000D02*
G75*
G03*
X13495000Y-9535000I-65000J0D01*
G01*
X16365000Y-9525000D02*
X16515000Y-9675000D01*
X16515000Y-9525000D02*
X16365000Y-9675000D01*
X16515000Y-9600000D02*
G75*
G03*
X16515000Y-9600000I-75000J0D01*
G01*
X16375000Y-9535000D02*
X16375000Y-9665000D01*
X16505000Y-9535000D02*
X16505000Y-9665000D01*
X16375000Y-9665000D02*
G75*
G03*
X16505000Y-9665000I65000J0D01*
G01*
X16505000Y-9535000D02*
G75*
G03*
X16375000Y-9535000I-65000J0D01*
G01*
X17485000Y-9525000D02*
X17635000Y-9675000D01*
X17635000Y-9525000D02*
X17485000Y-9675000D01*
X17635000Y-9600000D02*
G75*
G03*
X17635000Y-9600000I-75000J0D01*
G01*
X17495000Y-9535000D02*
X17495000Y-9665000D01*
X17625000Y-9535000D02*
X17625000Y-9665000D01*
X17495000Y-9665000D02*
G75*
G03*
X17625000Y-9665000I65000J0D01*
G01*
X17625000Y-9535000D02*
G75*
G03*
X17495000Y-9535000I-65000J0D01*
G01*
X18365000Y-9525000D02*
X18515000Y-9675000D01*
X18515000Y-9525000D02*
X18365000Y-9675000D01*
X18515000Y-9600000D02*
G75*
G03*
X18515000Y-9600000I-75000J0D01*
G01*
X18375000Y-9535000D02*
X18375000Y-9665000D01*
X18505000Y-9535000D02*
X18505000Y-9665000D01*
X18375000Y-9665000D02*
G75*
G03*
X18505000Y-9665000I65000J0D01*
G01*
X18505000Y-9535000D02*
G75*
G03*
X18375000Y-9535000I-65000J0D01*
G01*
X19485000Y-9525000D02*
X19635000Y-9675000D01*
X19635000Y-9525000D02*
X19485000Y-9675000D01*
X19635000Y-9600000D02*
G75*
G03*
X19635000Y-9600000I-75000J0D01*
G01*
X19495000Y-9535000D02*
X19495000Y-9665000D01*
X19625000Y-9535000D02*
X19625000Y-9665000D01*
X19495000Y-9665000D02*
G75*
G03*
X19625000Y-9665000I65000J0D01*
G01*
X19625000Y-9535000D02*
G75*
G03*
X19495000Y-9535000I-65000J0D01*
G01*
X10667500Y-7647500D02*
X10932500Y-7912500D01*
X10932500Y-7647500D02*
X10667500Y-7912500D01*
X10800000Y-7647500D02*
X10800000Y-7912500D01*
X10667500Y-7780000D02*
X10932500Y-7780000D01*
X16727500Y-7647500D02*
X16992500Y-7912500D01*
X16992500Y-7647500D02*
X16727500Y-7912500D01*
X16860000Y-7647500D02*
X16860000Y-7912500D01*
X16727500Y-7780000D02*
X16992500Y-7780000D01*
X19067500Y-5267500D02*
X19332500Y-5532500D01*
X19332500Y-5267500D02*
X19067500Y-5532500D01*
X19200000Y-5267500D02*
X19200000Y-5532500D01*
X19067500Y-5400000D02*
X19332500Y-5400000D01*
D13*
X10283928Y-15468214D02*
X10283928Y-15168214D01*
X10355357Y-15168214D01*
X10398214Y-15182500D01*
X10426786Y-15211071D01*
X10441071Y-15239643D01*
X10455357Y-15296786D01*
X10455357Y-15339643D01*
X10441071Y-15396786D01*
X10426786Y-15425357D01*
X10398214Y-15453929D01*
X10355357Y-15468214D01*
X10283928Y-15468214D01*
X10583928Y-15468214D02*
X10583928Y-15268214D01*
X10583928Y-15325357D02*
X10598214Y-15296786D01*
X10612500Y-15282500D01*
X10641071Y-15268214D01*
X10669643Y-15268214D01*
X10769643Y-15468214D02*
X10769643Y-15268214D01*
X10769643Y-15168214D02*
X10755357Y-15182500D01*
X10769643Y-15196786D01*
X10783928Y-15182500D01*
X10769643Y-15168214D01*
X10769643Y-15196786D01*
X10955357Y-15468214D02*
X10926786Y-15453929D01*
X10912500Y-15425357D01*
X10912500Y-15168214D01*
X11112500Y-15468214D02*
X11083928Y-15453929D01*
X11069643Y-15425357D01*
X11069643Y-15168214D01*
X11455357Y-15468214D02*
X11455357Y-15168214D01*
X11555357Y-15382500D01*
X11655357Y-15168214D01*
X11655357Y-15468214D01*
X11926786Y-15468214D02*
X11926786Y-15311071D01*
X11912500Y-15282500D01*
X11883928Y-15268214D01*
X11826786Y-15268214D01*
X11798214Y-15282500D01*
X11926786Y-15453929D02*
X11898214Y-15468214D01*
X11826786Y-15468214D01*
X11798214Y-15453929D01*
X11783928Y-15425357D01*
X11783928Y-15396786D01*
X11798214Y-15368214D01*
X11826786Y-15353929D01*
X11898214Y-15353929D01*
X11926786Y-15339643D01*
X12069643Y-15268214D02*
X12069643Y-15568214D01*
X12069643Y-15282500D02*
X12098214Y-15268214D01*
X12155357Y-15268214D01*
X12183928Y-15282500D01*
X12198214Y-15296786D01*
X12212500Y-15325357D01*
X12212500Y-15411071D01*
X12198214Y-15439643D01*
X12183928Y-15453929D01*
X12155357Y-15468214D01*
X12098214Y-15468214D01*
X12069643Y-15453929D01*
X12341071Y-15439643D02*
X12355357Y-15453929D01*
X12341071Y-15468214D01*
X12326786Y-15453929D01*
X12341071Y-15439643D01*
X12341071Y-15468214D01*
X12341071Y-15282500D02*
X12355357Y-15296786D01*
X12341071Y-15311071D01*
X12326786Y-15296786D01*
X12341071Y-15282500D01*
X12341071Y-15311071D01*
X9957500Y-15942500D02*
X9997500Y-15982500D01*
X9997500Y-15942500D02*
X9957500Y-15982500D01*
X10341071Y-15798214D02*
X10369643Y-15798214D01*
X10398214Y-15812500D01*
X10412500Y-15826786D01*
X10426786Y-15855357D01*
X10441071Y-15912500D01*
X10441071Y-15983929D01*
X10426786Y-16041071D01*
X10412500Y-16069643D01*
X10398214Y-16083929D01*
X10369643Y-16098214D01*
X10341071Y-16098214D01*
X10312500Y-16083929D01*
X10298214Y-16069643D01*
X10283928Y-16041071D01*
X10269643Y-15983929D01*
X10269643Y-15912500D01*
X10283928Y-15855357D01*
X10298214Y-15826786D01*
X10312500Y-15812500D01*
X10341071Y-15798214D01*
X10569643Y-16069643D02*
X10583928Y-16083929D01*
X10569643Y-16098214D01*
X10555357Y-16083929D01*
X10569643Y-16069643D01*
X10569643Y-16098214D01*
X10841071Y-15898214D02*
X10841071Y-16098214D01*
X10769643Y-15783929D02*
X10698214Y-15998214D01*
X10883928Y-15998214D01*
X11055357Y-15798214D02*
X11083928Y-15798214D01*
X11112500Y-15812500D01*
X11126786Y-15826786D01*
X11141071Y-15855357D01*
X11155357Y-15912500D01*
X11155357Y-15983929D01*
X11141071Y-16041071D01*
X11126786Y-16069643D01*
X11112500Y-16083929D01*
X11083928Y-16098214D01*
X11055357Y-16098214D01*
X11026786Y-16083929D01*
X11012500Y-16069643D01*
X10998214Y-16041071D01*
X10983928Y-15983929D01*
X10983928Y-15912500D01*
X10998214Y-15855357D01*
X11012500Y-15826786D01*
X11026786Y-15812500D01*
X11055357Y-15798214D01*
X11283928Y-16098214D02*
X11283928Y-15898214D01*
X11283928Y-15926786D02*
X11298214Y-15912500D01*
X11326786Y-15898214D01*
X11369643Y-15898214D01*
X11398214Y-15912500D01*
X11412500Y-15941071D01*
X11412500Y-16098214D01*
X11412500Y-15941071D02*
X11426786Y-15912500D01*
X11455357Y-15898214D01*
X11498214Y-15898214D01*
X11526786Y-15912500D01*
X11541071Y-15941071D01*
X11541071Y-16098214D01*
X11683928Y-16098214D02*
X11683928Y-15898214D01*
X11683928Y-15926786D02*
X11698214Y-15912500D01*
X11726786Y-15898214D01*
X11769643Y-15898214D01*
X11798214Y-15912500D01*
X11812500Y-15941071D01*
X11812500Y-16098214D01*
X11812500Y-15941071D02*
X11826786Y-15912500D01*
X11855357Y-15898214D01*
X11898214Y-15898214D01*
X11926786Y-15912500D01*
X11941071Y-15941071D01*
X11941071Y-16098214D01*
X12526786Y-15783929D02*
X12269643Y-16169643D01*
X12912500Y-15798214D02*
X12941071Y-15798214D01*
X12969643Y-15812500D01*
X12983928Y-15826786D01*
X12998214Y-15855357D01*
X13012500Y-15912500D01*
X13012500Y-15983929D01*
X12998214Y-16041071D01*
X12983928Y-16069643D01*
X12969643Y-16083929D01*
X12941071Y-16098214D01*
X12912500Y-16098214D01*
X12883928Y-16083929D01*
X12869643Y-16069643D01*
X12855357Y-16041071D01*
X12841071Y-15983929D01*
X12841071Y-15912500D01*
X12855357Y-15855357D01*
X12869643Y-15826786D01*
X12883928Y-15812500D01*
X12912500Y-15798214D01*
X13141071Y-16069643D02*
X13155357Y-16083929D01*
X13141071Y-16098214D01*
X13126786Y-16083929D01*
X13141071Y-16069643D01*
X13141071Y-16098214D01*
X13341071Y-15798214D02*
X13369643Y-15798214D01*
X13398214Y-15812500D01*
X13412500Y-15826786D01*
X13426786Y-15855357D01*
X13441071Y-15912500D01*
X13441071Y-15983929D01*
X13426786Y-16041071D01*
X13412500Y-16069643D01*
X13398214Y-16083929D01*
X13369643Y-16098214D01*
X13341071Y-16098214D01*
X13312500Y-16083929D01*
X13298214Y-16069643D01*
X13283928Y-16041071D01*
X13269643Y-15983929D01*
X13269643Y-15912500D01*
X13283928Y-15855357D01*
X13298214Y-15826786D01*
X13312500Y-15812500D01*
X13341071Y-15798214D01*
X13726786Y-16098214D02*
X13555357Y-16098214D01*
X13641071Y-16098214D02*
X13641071Y-15798214D01*
X13612500Y-15841071D01*
X13583928Y-15869643D01*
X13555357Y-15883929D01*
X13983928Y-15798214D02*
X13926786Y-15798214D01*
X13898214Y-15812500D01*
X13883928Y-15826786D01*
X13855357Y-15869643D01*
X13841071Y-15926786D01*
X13841071Y-16041071D01*
X13855357Y-16069643D01*
X13869643Y-16083929D01*
X13898214Y-16098214D01*
X13955357Y-16098214D01*
X13983928Y-16083929D01*
X13998214Y-16069643D01*
X14012500Y-16041071D01*
X14012500Y-15969643D01*
X13998214Y-15941071D01*
X13983928Y-15926786D01*
X13955357Y-15912500D01*
X13898214Y-15912500D01*
X13869643Y-15926786D01*
X13855357Y-15941071D01*
X13841071Y-15969643D01*
X14126786Y-15798214D02*
X14126786Y-15855357D01*
X14241071Y-15798214D02*
X14241071Y-15855357D01*
X14683928Y-16212500D02*
X14669643Y-16198214D01*
X14641071Y-16155357D01*
X14626786Y-16126786D01*
X14612500Y-16083929D01*
X14598214Y-16012500D01*
X14598214Y-15955357D01*
X14612500Y-15883929D01*
X14626786Y-15841071D01*
X14641071Y-15812500D01*
X14669643Y-15769643D01*
X14683928Y-15755357D01*
X14769643Y-15798214D02*
X14955357Y-15798214D01*
X14855357Y-15912500D01*
X14898214Y-15912500D01*
X14926786Y-15926786D01*
X14941071Y-15941071D01*
X14955357Y-15969643D01*
X14955357Y-16041071D01*
X14941071Y-16069643D01*
X14926786Y-16083929D01*
X14898214Y-16098214D01*
X14812500Y-16098214D01*
X14783928Y-16083929D01*
X14769643Y-16069643D01*
X15226786Y-15798214D02*
X15083928Y-15798214D01*
X15069643Y-15941071D01*
X15083928Y-15926786D01*
X15112500Y-15912500D01*
X15183928Y-15912500D01*
X15212500Y-15926786D01*
X15226786Y-15941071D01*
X15241071Y-15969643D01*
X15241071Y-16041071D01*
X15226786Y-16069643D01*
X15212500Y-16083929D01*
X15183928Y-16098214D01*
X15112500Y-16098214D01*
X15083928Y-16083929D01*
X15069643Y-16069643D01*
X15383928Y-16098214D02*
X15441071Y-16098214D01*
X15469643Y-16083929D01*
X15483928Y-16069643D01*
X15512500Y-16026786D01*
X15526786Y-15969643D01*
X15526786Y-15855357D01*
X15512500Y-15826786D01*
X15498214Y-15812500D01*
X15469643Y-15798214D01*
X15412500Y-15798214D01*
X15383928Y-15812500D01*
X15369643Y-15826786D01*
X15355357Y-15855357D01*
X15355357Y-15926786D01*
X15369643Y-15955357D01*
X15383928Y-15969643D01*
X15412500Y-15983929D01*
X15469643Y-15983929D01*
X15498214Y-15969643D01*
X15512500Y-15955357D01*
X15526786Y-15926786D01*
X15883928Y-16098214D02*
X15883928Y-15798214D01*
X16012500Y-16098214D02*
X16012500Y-15941071D01*
X15998214Y-15912500D01*
X15969643Y-15898214D01*
X15926786Y-15898214D01*
X15898214Y-15912500D01*
X15883928Y-15926786D01*
X16198214Y-16098214D02*
X16169643Y-16083929D01*
X16155357Y-16069643D01*
X16141071Y-16041071D01*
X16141071Y-15955357D01*
X16155357Y-15926786D01*
X16169643Y-15912500D01*
X16198214Y-15898214D01*
X16241071Y-15898214D01*
X16269643Y-15912500D01*
X16283928Y-15926786D01*
X16298214Y-15955357D01*
X16298214Y-16041071D01*
X16283928Y-16069643D01*
X16269643Y-16083929D01*
X16241071Y-16098214D01*
X16198214Y-16098214D01*
X16469643Y-16098214D02*
X16441071Y-16083929D01*
X16426786Y-16055357D01*
X16426786Y-15798214D01*
X16698214Y-16083929D02*
X16669643Y-16098214D01*
X16612500Y-16098214D01*
X16583928Y-16083929D01*
X16569643Y-16055357D01*
X16569643Y-15941071D01*
X16583928Y-15912500D01*
X16612500Y-15898214D01*
X16669643Y-15898214D01*
X16698214Y-15912500D01*
X16712500Y-15941071D01*
X16712500Y-15969643D01*
X16569643Y-15998214D01*
X16826786Y-16083929D02*
X16855357Y-16098214D01*
X16912500Y-16098214D01*
X16941071Y-16083929D01*
X16955357Y-16055357D01*
X16955357Y-16041071D01*
X16941071Y-16012500D01*
X16912500Y-15998214D01*
X16869643Y-15998214D01*
X16841071Y-15983929D01*
X16826786Y-15955357D01*
X16826786Y-15941071D01*
X16841071Y-15912500D01*
X16869643Y-15898214D01*
X16912500Y-15898214D01*
X16941071Y-15912500D01*
X17055357Y-16212500D02*
X17069643Y-16198214D01*
X17098214Y-16155357D01*
X17112500Y-16126786D01*
X17126786Y-16083929D01*
X17141071Y-16012500D01*
X17141071Y-15955357D01*
X17126786Y-15883929D01*
X17112500Y-15841071D01*
X17098214Y-15812500D01*
X17069643Y-15769643D01*
X17055357Y-15755357D01*
X9997500Y-16358500D02*
G75*
G03*
X9997500Y-16358500I-25000J0D01*
G01*
X10341071Y-16194214D02*
X10369643Y-16194214D01*
X10398214Y-16208500D01*
X10412500Y-16222786D01*
X10426786Y-16251357D01*
X10441071Y-16308500D01*
X10441071Y-16379929D01*
X10426786Y-16437071D01*
X10412500Y-16465643D01*
X10398214Y-16479929D01*
X10369643Y-16494214D01*
X10341071Y-16494214D01*
X10312500Y-16479929D01*
X10298214Y-16465643D01*
X10283928Y-16437071D01*
X10269643Y-16379929D01*
X10269643Y-16308500D01*
X10283928Y-16251357D01*
X10298214Y-16222786D01*
X10312500Y-16208500D01*
X10341071Y-16194214D01*
X10569643Y-16465643D02*
X10583928Y-16479929D01*
X10569643Y-16494214D01*
X10555357Y-16479929D01*
X10569643Y-16465643D01*
X10569643Y-16494214D01*
X10855357Y-16194214D02*
X10712500Y-16194214D01*
X10698214Y-16337071D01*
X10712500Y-16322786D01*
X10741071Y-16308500D01*
X10812500Y-16308500D01*
X10841071Y-16322786D01*
X10855357Y-16337071D01*
X10869643Y-16365643D01*
X10869643Y-16437071D01*
X10855357Y-16465643D01*
X10841071Y-16479929D01*
X10812500Y-16494214D01*
X10741071Y-16494214D01*
X10712500Y-16479929D01*
X10698214Y-16465643D01*
X11055357Y-16194214D02*
X11083928Y-16194214D01*
X11112500Y-16208500D01*
X11126786Y-16222786D01*
X11141071Y-16251357D01*
X11155357Y-16308500D01*
X11155357Y-16379929D01*
X11141071Y-16437071D01*
X11126786Y-16465643D01*
X11112500Y-16479929D01*
X11083928Y-16494214D01*
X11055357Y-16494214D01*
X11026786Y-16479929D01*
X11012500Y-16465643D01*
X10998214Y-16437071D01*
X10983928Y-16379929D01*
X10983928Y-16308500D01*
X10998214Y-16251357D01*
X11012500Y-16222786D01*
X11026786Y-16208500D01*
X11055357Y-16194214D01*
X11283928Y-16494214D02*
X11283928Y-16294214D01*
X11283928Y-16322786D02*
X11298214Y-16308500D01*
X11326786Y-16294214D01*
X11369643Y-16294214D01*
X11398214Y-16308500D01*
X11412500Y-16337071D01*
X11412500Y-16494214D01*
X11412500Y-16337071D02*
X11426786Y-16308500D01*
X11455357Y-16294214D01*
X11498214Y-16294214D01*
X11526786Y-16308500D01*
X11541071Y-16337071D01*
X11541071Y-16494214D01*
X11683928Y-16494214D02*
X11683928Y-16294214D01*
X11683928Y-16322786D02*
X11698214Y-16308500D01*
X11726786Y-16294214D01*
X11769643Y-16294214D01*
X11798214Y-16308500D01*
X11812500Y-16337071D01*
X11812500Y-16494214D01*
X11812500Y-16337071D02*
X11826786Y-16308500D01*
X11855357Y-16294214D01*
X11898214Y-16294214D01*
X11926786Y-16308500D01*
X11941071Y-16337071D01*
X11941071Y-16494214D01*
X12526786Y-16179929D02*
X12269643Y-16565643D01*
X12912500Y-16194214D02*
X12941071Y-16194214D01*
X12969643Y-16208500D01*
X12983928Y-16222786D01*
X12998214Y-16251357D01*
X13012500Y-16308500D01*
X13012500Y-16379929D01*
X12998214Y-16437071D01*
X12983928Y-16465643D01*
X12969643Y-16479929D01*
X12941071Y-16494214D01*
X12912500Y-16494214D01*
X12883928Y-16479929D01*
X12869643Y-16465643D01*
X12855357Y-16437071D01*
X12841071Y-16379929D01*
X12841071Y-16308500D01*
X12855357Y-16251357D01*
X12869643Y-16222786D01*
X12883928Y-16208500D01*
X12912500Y-16194214D01*
X13141071Y-16465643D02*
X13155357Y-16479929D01*
X13141071Y-16494214D01*
X13126786Y-16479929D01*
X13141071Y-16465643D01*
X13141071Y-16494214D01*
X13341071Y-16194214D02*
X13369643Y-16194214D01*
X13398214Y-16208500D01*
X13412500Y-16222786D01*
X13426786Y-16251357D01*
X13441071Y-16308500D01*
X13441071Y-16379929D01*
X13426786Y-16437071D01*
X13412500Y-16465643D01*
X13398214Y-16479929D01*
X13369643Y-16494214D01*
X13341071Y-16494214D01*
X13312500Y-16479929D01*
X13298214Y-16465643D01*
X13283928Y-16437071D01*
X13269643Y-16379929D01*
X13269643Y-16308500D01*
X13283928Y-16251357D01*
X13298214Y-16222786D01*
X13312500Y-16208500D01*
X13341071Y-16194214D01*
X13555357Y-16222786D02*
X13569643Y-16208500D01*
X13598214Y-16194214D01*
X13669643Y-16194214D01*
X13698214Y-16208500D01*
X13712500Y-16222786D01*
X13726786Y-16251357D01*
X13726786Y-16279929D01*
X13712500Y-16322786D01*
X13541071Y-16494214D01*
X13726786Y-16494214D01*
X13912500Y-16194214D02*
X13941071Y-16194214D01*
X13969643Y-16208500D01*
X13983928Y-16222786D01*
X13998214Y-16251357D01*
X14012500Y-16308500D01*
X14012500Y-16379929D01*
X13998214Y-16437071D01*
X13983928Y-16465643D01*
X13969643Y-16479929D01*
X13941071Y-16494214D01*
X13912500Y-16494214D01*
X13883928Y-16479929D01*
X13869643Y-16465643D01*
X13855357Y-16437071D01*
X13841071Y-16379929D01*
X13841071Y-16308500D01*
X13855357Y-16251357D01*
X13869643Y-16222786D01*
X13883928Y-16208500D01*
X13912500Y-16194214D01*
X14126786Y-16194214D02*
X14126786Y-16251357D01*
X14241071Y-16194214D02*
X14241071Y-16251357D01*
X14683928Y-16608500D02*
X14669643Y-16594214D01*
X14641071Y-16551357D01*
X14626786Y-16522786D01*
X14612500Y-16479929D01*
X14598214Y-16408500D01*
X14598214Y-16351357D01*
X14612500Y-16279929D01*
X14626786Y-16237071D01*
X14641071Y-16208500D01*
X14669643Y-16165643D01*
X14683928Y-16151357D01*
X14926786Y-16294214D02*
X14926786Y-16494214D01*
X14855357Y-16179929D02*
X14783928Y-16394214D01*
X14969643Y-16394214D01*
X15312500Y-16494214D02*
X15312500Y-16194214D01*
X15441071Y-16494214D02*
X15441071Y-16337071D01*
X15426786Y-16308500D01*
X15398214Y-16294214D01*
X15355357Y-16294214D01*
X15326786Y-16308500D01*
X15312500Y-16322786D01*
X15626786Y-16494214D02*
X15598214Y-16479929D01*
X15583928Y-16465643D01*
X15569643Y-16437071D01*
X15569643Y-16351357D01*
X15583928Y-16322786D01*
X15598214Y-16308500D01*
X15626786Y-16294214D01*
X15669643Y-16294214D01*
X15698214Y-16308500D01*
X15712500Y-16322786D01*
X15726786Y-16351357D01*
X15726786Y-16437071D01*
X15712500Y-16465643D01*
X15698214Y-16479929D01*
X15669643Y-16494214D01*
X15626786Y-16494214D01*
X15898214Y-16494214D02*
X15869643Y-16479929D01*
X15855357Y-16451357D01*
X15855357Y-16194214D01*
X16126786Y-16479929D02*
X16098214Y-16494214D01*
X16041071Y-16494214D01*
X16012500Y-16479929D01*
X15998214Y-16451357D01*
X15998214Y-16337071D01*
X16012500Y-16308500D01*
X16041071Y-16294214D01*
X16098214Y-16294214D01*
X16126786Y-16308500D01*
X16141071Y-16337071D01*
X16141071Y-16365643D01*
X15998214Y-16394214D01*
X16255357Y-16479929D02*
X16283928Y-16494214D01*
X16341071Y-16494214D01*
X16369643Y-16479929D01*
X16383928Y-16451357D01*
X16383928Y-16437071D01*
X16369643Y-16408500D01*
X16341071Y-16394214D01*
X16298214Y-16394214D01*
X16269643Y-16379929D01*
X16255357Y-16351357D01*
X16255357Y-16337071D01*
X16269643Y-16308500D01*
X16298214Y-16294214D01*
X16341071Y-16294214D01*
X16369643Y-16308500D01*
X16741071Y-16379929D02*
X16969643Y-16379929D01*
X16855357Y-16494214D02*
X16855357Y-16265643D01*
X17498214Y-16494214D02*
X17326786Y-16494214D01*
X17412500Y-16494214D02*
X17412500Y-16194214D01*
X17383928Y-16237071D01*
X17355357Y-16265643D01*
X17326786Y-16279929D01*
X17755357Y-16194214D02*
X17698214Y-16194214D01*
X17669643Y-16208500D01*
X17655357Y-16222786D01*
X17626786Y-16265643D01*
X17612500Y-16322786D01*
X17612500Y-16437071D01*
X17626786Y-16465643D01*
X17641071Y-16479929D01*
X17669643Y-16494214D01*
X17726786Y-16494214D01*
X17755357Y-16479929D01*
X17769643Y-16465643D01*
X17783928Y-16437071D01*
X17783928Y-16365643D01*
X17769643Y-16337071D01*
X17755357Y-16322786D01*
X17726786Y-16308500D01*
X17669643Y-16308500D01*
X17641071Y-16322786D01*
X17626786Y-16337071D01*
X17612500Y-16365643D01*
X18126786Y-16479929D02*
X18155357Y-16494214D01*
X18212500Y-16494214D01*
X18241071Y-16479929D01*
X18255357Y-16451357D01*
X18255357Y-16437071D01*
X18241071Y-16408500D01*
X18212500Y-16394214D01*
X18169643Y-16394214D01*
X18141071Y-16379929D01*
X18126786Y-16351357D01*
X18126786Y-16337071D01*
X18141071Y-16308500D01*
X18169643Y-16294214D01*
X18212500Y-16294214D01*
X18241071Y-16308500D01*
X18426786Y-16494214D02*
X18398214Y-16479929D01*
X18383928Y-16451357D01*
X18383928Y-16194214D01*
X18583928Y-16494214D02*
X18555357Y-16479929D01*
X18541071Y-16465643D01*
X18526786Y-16437071D01*
X18526786Y-16351357D01*
X18541071Y-16322786D01*
X18555357Y-16308500D01*
X18583928Y-16294214D01*
X18626786Y-16294214D01*
X18655357Y-16308500D01*
X18669643Y-16322786D01*
X18683928Y-16351357D01*
X18683928Y-16437071D01*
X18669643Y-16465643D01*
X18655357Y-16479929D01*
X18626786Y-16494214D01*
X18583928Y-16494214D01*
X18769643Y-16294214D02*
X18883928Y-16294214D01*
X18812500Y-16194214D02*
X18812500Y-16451357D01*
X18826786Y-16479929D01*
X18855357Y-16494214D01*
X18883928Y-16494214D01*
X18969643Y-16479929D02*
X18998214Y-16494214D01*
X19055357Y-16494214D01*
X19083928Y-16479929D01*
X19098214Y-16451357D01*
X19098214Y-16437071D01*
X19083928Y-16408500D01*
X19055357Y-16394214D01*
X19012500Y-16394214D01*
X18983928Y-16379929D01*
X18969643Y-16351357D01*
X18969643Y-16337071D01*
X18983928Y-16308500D01*
X19012500Y-16294214D01*
X19055357Y-16294214D01*
X19083928Y-16308500D01*
X19198214Y-16608500D02*
X19212500Y-16594214D01*
X19241071Y-16551357D01*
X19255357Y-16522786D01*
X19269643Y-16479929D01*
X19283928Y-16408500D01*
X19283928Y-16351357D01*
X19269643Y-16279929D01*
X19255357Y-16237071D01*
X19241071Y-16208500D01*
X19212500Y-16165643D01*
X19198214Y-16151357D01*
X9967500Y-16724500D02*
X9967500Y-16784500D01*
X9937500Y-16754500D02*
X9997500Y-16754500D01*
X10341071Y-16590214D02*
X10369643Y-16590214D01*
X10398214Y-16604500D01*
X10412500Y-16618786D01*
X10426786Y-16647357D01*
X10441071Y-16704500D01*
X10441071Y-16775929D01*
X10426786Y-16833072D01*
X10412500Y-16861643D01*
X10398214Y-16875929D01*
X10369643Y-16890214D01*
X10341071Y-16890214D01*
X10312500Y-16875929D01*
X10298214Y-16861643D01*
X10283928Y-16833072D01*
X10269643Y-16775929D01*
X10269643Y-16704500D01*
X10283928Y-16647357D01*
X10298214Y-16618786D01*
X10312500Y-16604500D01*
X10341071Y-16590214D01*
X10569643Y-16861643D02*
X10583928Y-16875929D01*
X10569643Y-16890214D01*
X10555357Y-16875929D01*
X10569643Y-16861643D01*
X10569643Y-16890214D01*
X10841071Y-16590214D02*
X10783928Y-16590214D01*
X10755357Y-16604500D01*
X10741071Y-16618786D01*
X10712500Y-16661643D01*
X10698214Y-16718786D01*
X10698214Y-16833072D01*
X10712500Y-16861643D01*
X10726786Y-16875929D01*
X10755357Y-16890214D01*
X10812500Y-16890214D01*
X10841071Y-16875929D01*
X10855357Y-16861643D01*
X10869643Y-16833072D01*
X10869643Y-16761643D01*
X10855357Y-16733071D01*
X10841071Y-16718786D01*
X10812500Y-16704500D01*
X10755357Y-16704500D01*
X10726786Y-16718786D01*
X10712500Y-16733071D01*
X10698214Y-16761643D01*
X11055357Y-16590214D02*
X11083928Y-16590214D01*
X11112500Y-16604500D01*
X11126786Y-16618786D01*
X11141071Y-16647357D01*
X11155357Y-16704500D01*
X11155357Y-16775929D01*
X11141071Y-16833072D01*
X11126786Y-16861643D01*
X11112500Y-16875929D01*
X11083928Y-16890214D01*
X11055357Y-16890214D01*
X11026786Y-16875929D01*
X11012500Y-16861643D01*
X10998214Y-16833072D01*
X10983928Y-16775929D01*
X10983928Y-16704500D01*
X10998214Y-16647357D01*
X11012500Y-16618786D01*
X11026786Y-16604500D01*
X11055357Y-16590214D01*
X11283928Y-16890214D02*
X11283928Y-16690214D01*
X11283928Y-16718786D02*
X11298214Y-16704500D01*
X11326786Y-16690214D01*
X11369643Y-16690214D01*
X11398214Y-16704500D01*
X11412500Y-16733071D01*
X11412500Y-16890214D01*
X11412500Y-16733071D02*
X11426786Y-16704500D01*
X11455357Y-16690214D01*
X11498214Y-16690214D01*
X11526786Y-16704500D01*
X11541071Y-16733071D01*
X11541071Y-16890214D01*
X11683928Y-16890214D02*
X11683928Y-16690214D01*
X11683928Y-16718786D02*
X11698214Y-16704500D01*
X11726786Y-16690214D01*
X11769643Y-16690214D01*
X11798214Y-16704500D01*
X11812500Y-16733071D01*
X11812500Y-16890214D01*
X11812500Y-16733071D02*
X11826786Y-16704500D01*
X11855357Y-16690214D01*
X11898214Y-16690214D01*
X11926786Y-16704500D01*
X11941071Y-16733071D01*
X11941071Y-16890214D01*
X12526786Y-16575929D02*
X12269643Y-16961643D01*
X12912500Y-16590214D02*
X12941071Y-16590214D01*
X12969643Y-16604500D01*
X12983928Y-16618786D01*
X12998214Y-16647357D01*
X13012500Y-16704500D01*
X13012500Y-16775929D01*
X12998214Y-16833072D01*
X12983928Y-16861643D01*
X12969643Y-16875929D01*
X12941071Y-16890214D01*
X12912500Y-16890214D01*
X12883928Y-16875929D01*
X12869643Y-16861643D01*
X12855357Y-16833072D01*
X12841071Y-16775929D01*
X12841071Y-16704500D01*
X12855357Y-16647357D01*
X12869643Y-16618786D01*
X12883928Y-16604500D01*
X12912500Y-16590214D01*
X13141071Y-16861643D02*
X13155357Y-16875929D01*
X13141071Y-16890214D01*
X13126786Y-16875929D01*
X13141071Y-16861643D01*
X13141071Y-16890214D01*
X13341071Y-16590214D02*
X13369643Y-16590214D01*
X13398214Y-16604500D01*
X13412500Y-16618786D01*
X13426786Y-16647357D01*
X13441071Y-16704500D01*
X13441071Y-16775929D01*
X13426786Y-16833072D01*
X13412500Y-16861643D01*
X13398214Y-16875929D01*
X13369643Y-16890214D01*
X13341071Y-16890214D01*
X13312500Y-16875929D01*
X13298214Y-16861643D01*
X13283928Y-16833072D01*
X13269643Y-16775929D01*
X13269643Y-16704500D01*
X13283928Y-16647357D01*
X13298214Y-16618786D01*
X13312500Y-16604500D01*
X13341071Y-16590214D01*
X13555357Y-16618786D02*
X13569643Y-16604500D01*
X13598214Y-16590214D01*
X13669643Y-16590214D01*
X13698214Y-16604500D01*
X13712500Y-16618786D01*
X13726786Y-16647357D01*
X13726786Y-16675929D01*
X13712500Y-16718786D01*
X13541071Y-16890214D01*
X13726786Y-16890214D01*
X13983928Y-16690214D02*
X13983928Y-16890214D01*
X13912500Y-16575929D02*
X13841071Y-16790214D01*
X14026786Y-16790214D01*
X14126786Y-16590214D02*
X14126786Y-16647357D01*
X14241071Y-16590214D02*
X14241071Y-16647357D01*
X14683928Y-17004500D02*
X14669643Y-16990214D01*
X14641071Y-16947357D01*
X14626786Y-16918786D01*
X14612500Y-16875929D01*
X14598214Y-16804500D01*
X14598214Y-16747357D01*
X14612500Y-16675929D01*
X14626786Y-16633071D01*
X14641071Y-16604500D01*
X14669643Y-16561643D01*
X14683928Y-16547357D01*
X14855357Y-16590214D02*
X14883928Y-16590214D01*
X14912500Y-16604500D01*
X14926786Y-16618786D01*
X14941071Y-16647357D01*
X14955357Y-16704500D01*
X14955357Y-16775929D01*
X14941071Y-16833072D01*
X14926786Y-16861643D01*
X14912500Y-16875929D01*
X14883928Y-16890214D01*
X14855357Y-16890214D01*
X14826786Y-16875929D01*
X14812500Y-16861643D01*
X14798214Y-16833072D01*
X14783928Y-16775929D01*
X14783928Y-16704500D01*
X14798214Y-16647357D01*
X14812500Y-16618786D01*
X14826786Y-16604500D01*
X14855357Y-16590214D01*
X15312500Y-16890214D02*
X15312500Y-16590214D01*
X15441071Y-16890214D02*
X15441071Y-16733071D01*
X15426786Y-16704500D01*
X15398214Y-16690214D01*
X15355357Y-16690214D01*
X15326786Y-16704500D01*
X15312500Y-16718786D01*
X15626786Y-16890214D02*
X15598214Y-16875929D01*
X15583928Y-16861643D01*
X15569643Y-16833072D01*
X15569643Y-16747357D01*
X15583928Y-16718786D01*
X15598214Y-16704500D01*
X15626786Y-16690214D01*
X15669643Y-16690214D01*
X15698214Y-16704500D01*
X15712500Y-16718786D01*
X15726786Y-16747357D01*
X15726786Y-16833072D01*
X15712500Y-16861643D01*
X15698214Y-16875929D01*
X15669643Y-16890214D01*
X15626786Y-16890214D01*
X15898214Y-16890214D02*
X15869643Y-16875929D01*
X15855357Y-16847357D01*
X15855357Y-16590214D01*
X16126786Y-16875929D02*
X16098214Y-16890214D01*
X16041071Y-16890214D01*
X16012500Y-16875929D01*
X15998214Y-16847357D01*
X15998214Y-16733071D01*
X16012500Y-16704500D01*
X16041071Y-16690214D01*
X16098214Y-16690214D01*
X16126786Y-16704500D01*
X16141071Y-16733071D01*
X16141071Y-16761643D01*
X15998214Y-16790214D01*
X16255357Y-16875929D02*
X16283928Y-16890214D01*
X16341071Y-16890214D01*
X16369643Y-16875929D01*
X16383928Y-16847357D01*
X16383928Y-16833072D01*
X16369643Y-16804500D01*
X16341071Y-16790214D01*
X16298214Y-16790214D01*
X16269643Y-16775929D01*
X16255357Y-16747357D01*
X16255357Y-16733071D01*
X16269643Y-16704500D01*
X16298214Y-16690214D01*
X16341071Y-16690214D01*
X16369643Y-16704500D01*
X16741071Y-16775929D02*
X16969643Y-16775929D01*
X16855357Y-16890214D02*
X16855357Y-16661643D01*
X17312500Y-16590214D02*
X17498214Y-16590214D01*
X17398214Y-16704500D01*
X17441071Y-16704500D01*
X17469643Y-16718786D01*
X17483928Y-16733071D01*
X17498214Y-16761643D01*
X17498214Y-16833072D01*
X17483928Y-16861643D01*
X17469643Y-16875929D01*
X17441071Y-16890214D01*
X17355357Y-16890214D01*
X17326786Y-16875929D01*
X17312500Y-16861643D01*
X17612500Y-16618786D02*
X17626786Y-16604500D01*
X17655357Y-16590214D01*
X17726786Y-16590214D01*
X17755357Y-16604500D01*
X17769643Y-16618786D01*
X17783928Y-16647357D01*
X17783928Y-16675929D01*
X17769643Y-16718786D01*
X17598214Y-16890214D01*
X17783928Y-16890214D01*
X18126786Y-16875929D02*
X18155357Y-16890214D01*
X18212500Y-16890214D01*
X18241071Y-16875929D01*
X18255357Y-16847357D01*
X18255357Y-16833072D01*
X18241071Y-16804500D01*
X18212500Y-16790214D01*
X18169643Y-16790214D01*
X18141071Y-16775929D01*
X18126786Y-16747357D01*
X18126786Y-16733071D01*
X18141071Y-16704500D01*
X18169643Y-16690214D01*
X18212500Y-16690214D01*
X18241071Y-16704500D01*
X18426786Y-16890214D02*
X18398214Y-16875929D01*
X18383928Y-16847357D01*
X18383928Y-16590214D01*
X18583928Y-16890214D02*
X18555357Y-16875929D01*
X18541071Y-16861643D01*
X18526786Y-16833072D01*
X18526786Y-16747357D01*
X18541071Y-16718786D01*
X18555357Y-16704500D01*
X18583928Y-16690214D01*
X18626786Y-16690214D01*
X18655357Y-16704500D01*
X18669643Y-16718786D01*
X18683928Y-16747357D01*
X18683928Y-16833072D01*
X18669643Y-16861643D01*
X18655357Y-16875929D01*
X18626786Y-16890214D01*
X18583928Y-16890214D01*
X18769643Y-16690214D02*
X18883928Y-16690214D01*
X18812500Y-16590214D02*
X18812500Y-16847357D01*
X18826786Y-16875929D01*
X18855357Y-16890214D01*
X18883928Y-16890214D01*
X18969643Y-16875929D02*
X18998214Y-16890214D01*
X19055357Y-16890214D01*
X19083928Y-16875929D01*
X19098214Y-16847357D01*
X19098214Y-16833072D01*
X19083928Y-16804500D01*
X19055357Y-16790214D01*
X19012500Y-16790214D01*
X18983928Y-16775929D01*
X18969643Y-16747357D01*
X18969643Y-16733071D01*
X18983928Y-16704500D01*
X19012500Y-16690214D01*
X19055357Y-16690214D01*
X19083928Y-16704500D01*
X19198214Y-17004500D02*
X19212500Y-16990214D01*
X19241071Y-16947357D01*
X19255357Y-16918786D01*
X19269643Y-16875929D01*
X19283928Y-16804500D01*
X19283928Y-16747357D01*
X19269643Y-16675929D01*
X19255357Y-16633071D01*
X19241071Y-16604500D01*
X19212500Y-16561643D01*
X19198214Y-16547357D01*
X9985784Y-17178785D02*
X9985784Y-17122216D01*
X9929215Y-17122216D01*
X9929215Y-17178785D01*
X9985784Y-17178785D01*
X10341071Y-16986214D02*
X10369643Y-16986214D01*
X10398214Y-17000500D01*
X10412500Y-17014786D01*
X10426786Y-17043357D01*
X10441071Y-17100500D01*
X10441071Y-17171929D01*
X10426786Y-17229072D01*
X10412500Y-17257643D01*
X10398214Y-17271929D01*
X10369643Y-17286214D01*
X10341071Y-17286214D01*
X10312500Y-17271929D01*
X10298214Y-17257643D01*
X10283928Y-17229072D01*
X10269643Y-17171929D01*
X10269643Y-17100500D01*
X10283928Y-17043357D01*
X10298214Y-17014786D01*
X10312500Y-17000500D01*
X10341071Y-16986214D01*
X10569643Y-17257643D02*
X10583928Y-17271929D01*
X10569643Y-17286214D01*
X10555357Y-17271929D01*
X10569643Y-17257643D01*
X10569643Y-17286214D01*
X10755357Y-17114786D02*
X10726786Y-17100500D01*
X10712500Y-17086214D01*
X10698214Y-17057643D01*
X10698214Y-17043357D01*
X10712500Y-17014786D01*
X10726786Y-17000500D01*
X10755357Y-16986214D01*
X10812500Y-16986214D01*
X10841071Y-17000500D01*
X10855357Y-17014786D01*
X10869643Y-17043357D01*
X10869643Y-17057643D01*
X10855357Y-17086214D01*
X10841071Y-17100500D01*
X10812500Y-17114786D01*
X10755357Y-17114786D01*
X10726786Y-17129072D01*
X10712500Y-17143357D01*
X10698214Y-17171929D01*
X10698214Y-17229072D01*
X10712500Y-17257643D01*
X10726786Y-17271929D01*
X10755357Y-17286214D01*
X10812500Y-17286214D01*
X10841071Y-17271929D01*
X10855357Y-17257643D01*
X10869643Y-17229072D01*
X10869643Y-17171929D01*
X10855357Y-17143357D01*
X10841071Y-17129072D01*
X10812500Y-17114786D01*
X11055357Y-16986214D02*
X11083928Y-16986214D01*
X11112500Y-17000500D01*
X11126786Y-17014786D01*
X11141071Y-17043357D01*
X11155357Y-17100500D01*
X11155357Y-17171929D01*
X11141071Y-17229072D01*
X11126786Y-17257643D01*
X11112500Y-17271929D01*
X11083928Y-17286214D01*
X11055357Y-17286214D01*
X11026786Y-17271929D01*
X11012500Y-17257643D01*
X10998214Y-17229072D01*
X10983928Y-17171929D01*
X10983928Y-17100500D01*
X10998214Y-17043357D01*
X11012500Y-17014786D01*
X11026786Y-17000500D01*
X11055357Y-16986214D01*
X11283928Y-17286214D02*
X11283928Y-17086214D01*
X11283928Y-17114786D02*
X11298214Y-17100500D01*
X11326786Y-17086214D01*
X11369643Y-17086214D01*
X11398214Y-17100500D01*
X11412500Y-17129072D01*
X11412500Y-17286214D01*
X11412500Y-17129072D02*
X11426786Y-17100500D01*
X11455357Y-17086214D01*
X11498214Y-17086214D01*
X11526786Y-17100500D01*
X11541071Y-17129072D01*
X11541071Y-17286214D01*
X11683928Y-17286214D02*
X11683928Y-17086214D01*
X11683928Y-17114786D02*
X11698214Y-17100500D01*
X11726786Y-17086214D01*
X11769643Y-17086214D01*
X11798214Y-17100500D01*
X11812500Y-17129072D01*
X11812500Y-17286214D01*
X11812500Y-17129072D02*
X11826786Y-17100500D01*
X11855357Y-17086214D01*
X11898214Y-17086214D01*
X11926786Y-17100500D01*
X11941071Y-17129072D01*
X11941071Y-17286214D01*
X12526786Y-16971929D02*
X12269643Y-17357643D01*
X12912500Y-16986214D02*
X12941071Y-16986214D01*
X12969643Y-17000500D01*
X12983928Y-17014786D01*
X12998214Y-17043357D01*
X13012500Y-17100500D01*
X13012500Y-17171929D01*
X12998214Y-17229072D01*
X12983928Y-17257643D01*
X12969643Y-17271929D01*
X12941071Y-17286214D01*
X12912500Y-17286214D01*
X12883928Y-17271929D01*
X12869643Y-17257643D01*
X12855357Y-17229072D01*
X12841071Y-17171929D01*
X12841071Y-17100500D01*
X12855357Y-17043357D01*
X12869643Y-17014786D01*
X12883928Y-17000500D01*
X12912500Y-16986214D01*
X13141071Y-17257643D02*
X13155357Y-17271929D01*
X13141071Y-17286214D01*
X13126786Y-17271929D01*
X13141071Y-17257643D01*
X13141071Y-17286214D01*
X13341071Y-16986214D02*
X13369643Y-16986214D01*
X13398214Y-17000500D01*
X13412500Y-17014786D01*
X13426786Y-17043357D01*
X13441071Y-17100500D01*
X13441071Y-17171929D01*
X13426786Y-17229072D01*
X13412500Y-17257643D01*
X13398214Y-17271929D01*
X13369643Y-17286214D01*
X13341071Y-17286214D01*
X13312500Y-17271929D01*
X13298214Y-17257643D01*
X13283928Y-17229072D01*
X13269643Y-17171929D01*
X13269643Y-17100500D01*
X13283928Y-17043357D01*
X13298214Y-17014786D01*
X13312500Y-17000500D01*
X13341071Y-16986214D01*
X13541071Y-16986214D02*
X13726786Y-16986214D01*
X13626786Y-17100500D01*
X13669643Y-17100500D01*
X13698214Y-17114786D01*
X13712500Y-17129072D01*
X13726786Y-17157643D01*
X13726786Y-17229072D01*
X13712500Y-17257643D01*
X13698214Y-17271929D01*
X13669643Y-17286214D01*
X13583928Y-17286214D01*
X13555357Y-17271929D01*
X13541071Y-17257643D01*
X14012500Y-17286214D02*
X13841071Y-17286214D01*
X13926786Y-17286214D02*
X13926786Y-16986214D01*
X13898214Y-17029072D01*
X13869643Y-17057643D01*
X13841071Y-17071929D01*
X14126786Y-16986214D02*
X14126786Y-17043357D01*
X14241071Y-16986214D02*
X14241071Y-17043357D01*
X14683928Y-17400500D02*
X14669643Y-17386214D01*
X14641071Y-17343357D01*
X14626786Y-17314786D01*
X14612500Y-17271929D01*
X14598214Y-17200500D01*
X14598214Y-17143357D01*
X14612500Y-17071929D01*
X14626786Y-17029072D01*
X14641071Y-17000500D01*
X14669643Y-16957643D01*
X14683928Y-16943357D01*
X14926786Y-17086214D02*
X14926786Y-17286214D01*
X14855357Y-16971929D02*
X14783928Y-17186214D01*
X14969643Y-17186214D01*
X15312500Y-17286214D02*
X15312500Y-16986214D01*
X15441071Y-17286214D02*
X15441071Y-17129072D01*
X15426786Y-17100500D01*
X15398214Y-17086214D01*
X15355357Y-17086214D01*
X15326786Y-17100500D01*
X15312500Y-17114786D01*
X15626786Y-17286214D02*
X15598214Y-17271929D01*
X15583928Y-17257643D01*
X15569643Y-17229072D01*
X15569643Y-17143357D01*
X15583928Y-17114786D01*
X15598214Y-17100500D01*
X15626786Y-17086214D01*
X15669643Y-17086214D01*
X15698214Y-17100500D01*
X15712500Y-17114786D01*
X15726786Y-17143357D01*
X15726786Y-17229072D01*
X15712500Y-17257643D01*
X15698214Y-17271929D01*
X15669643Y-17286214D01*
X15626786Y-17286214D01*
X15898214Y-17286214D02*
X15869643Y-17271929D01*
X15855357Y-17243357D01*
X15855357Y-16986214D01*
X16126786Y-17271929D02*
X16098214Y-17286214D01*
X16041071Y-17286214D01*
X16012500Y-17271929D01*
X15998214Y-17243357D01*
X15998214Y-17129072D01*
X16012500Y-17100500D01*
X16041071Y-17086214D01*
X16098214Y-17086214D01*
X16126786Y-17100500D01*
X16141071Y-17129072D01*
X16141071Y-17157643D01*
X15998214Y-17186214D01*
X16255357Y-17271929D02*
X16283928Y-17286214D01*
X16341071Y-17286214D01*
X16369643Y-17271929D01*
X16383928Y-17243357D01*
X16383928Y-17229072D01*
X16369643Y-17200500D01*
X16341071Y-17186214D01*
X16298214Y-17186214D01*
X16269643Y-17171929D01*
X16255357Y-17143357D01*
X16255357Y-17129072D01*
X16269643Y-17100500D01*
X16298214Y-17086214D01*
X16341071Y-17086214D01*
X16369643Y-17100500D01*
X16483928Y-17400500D02*
X16498214Y-17386214D01*
X16526786Y-17343357D01*
X16541071Y-17314786D01*
X16555357Y-17271929D01*
X16569643Y-17200500D01*
X16569643Y-17143357D01*
X16555357Y-17071929D01*
X16541071Y-17029072D01*
X16526786Y-17000500D01*
X16498214Y-16957643D01*
X16483928Y-16943357D01*
X9947500Y-17596500D02*
X9997500Y-17546500D01*
X9947500Y-17496500D01*
X9897500Y-17546500D01*
X9947500Y-17596500D01*
X10441071Y-17682214D02*
X10269643Y-17682214D01*
X10355357Y-17682214D02*
X10355357Y-17382214D01*
X10326786Y-17425072D01*
X10298214Y-17453643D01*
X10269643Y-17467929D01*
X10569643Y-17653643D02*
X10583928Y-17667929D01*
X10569643Y-17682214D01*
X10555357Y-17667929D01*
X10569643Y-17653643D01*
X10569643Y-17682214D01*
X10769643Y-17382214D02*
X10798214Y-17382214D01*
X10826786Y-17396500D01*
X10841071Y-17410786D01*
X10855357Y-17439357D01*
X10869643Y-17496500D01*
X10869643Y-17567929D01*
X10855357Y-17625072D01*
X10841071Y-17653643D01*
X10826786Y-17667929D01*
X10798214Y-17682214D01*
X10769643Y-17682214D01*
X10741071Y-17667929D01*
X10726786Y-17653643D01*
X10712500Y-17625072D01*
X10698214Y-17567929D01*
X10698214Y-17496500D01*
X10712500Y-17439357D01*
X10726786Y-17410786D01*
X10741071Y-17396500D01*
X10769643Y-17382214D01*
X11055357Y-17382214D02*
X11083928Y-17382214D01*
X11112500Y-17396500D01*
X11126786Y-17410786D01*
X11141071Y-17439357D01*
X11155357Y-17496500D01*
X11155357Y-17567929D01*
X11141071Y-17625072D01*
X11126786Y-17653643D01*
X11112500Y-17667929D01*
X11083928Y-17682214D01*
X11055357Y-17682214D01*
X11026786Y-17667929D01*
X11012500Y-17653643D01*
X10998214Y-17625072D01*
X10983928Y-17567929D01*
X10983928Y-17496500D01*
X10998214Y-17439357D01*
X11012500Y-17410786D01*
X11026786Y-17396500D01*
X11055357Y-17382214D01*
X11283928Y-17682214D02*
X11283928Y-17482214D01*
X11283928Y-17510786D02*
X11298214Y-17496500D01*
X11326786Y-17482214D01*
X11369643Y-17482214D01*
X11398214Y-17496500D01*
X11412500Y-17525072D01*
X11412500Y-17682214D01*
X11412500Y-17525072D02*
X11426786Y-17496500D01*
X11455357Y-17482214D01*
X11498214Y-17482214D01*
X11526786Y-17496500D01*
X11541071Y-17525072D01*
X11541071Y-17682214D01*
X11683928Y-17682214D02*
X11683928Y-17482214D01*
X11683928Y-17510786D02*
X11698214Y-17496500D01*
X11726786Y-17482214D01*
X11769643Y-17482214D01*
X11798214Y-17496500D01*
X11812500Y-17525072D01*
X11812500Y-17682214D01*
X11812500Y-17525072D02*
X11826786Y-17496500D01*
X11855357Y-17482214D01*
X11898214Y-17482214D01*
X11926786Y-17496500D01*
X11941071Y-17525072D01*
X11941071Y-17682214D01*
X12526786Y-17367929D02*
X12269643Y-17753643D01*
X12912500Y-17382214D02*
X12941071Y-17382214D01*
X12969643Y-17396500D01*
X12983928Y-17410786D01*
X12998214Y-17439357D01*
X13012500Y-17496500D01*
X13012500Y-17567929D01*
X12998214Y-17625072D01*
X12983928Y-17653643D01*
X12969643Y-17667929D01*
X12941071Y-17682214D01*
X12912500Y-17682214D01*
X12883928Y-17667929D01*
X12869643Y-17653643D01*
X12855357Y-17625072D01*
X12841071Y-17567929D01*
X12841071Y-17496500D01*
X12855357Y-17439357D01*
X12869643Y-17410786D01*
X12883928Y-17396500D01*
X12912500Y-17382214D01*
X13141071Y-17653643D02*
X13155357Y-17667929D01*
X13141071Y-17682214D01*
X13126786Y-17667929D01*
X13141071Y-17653643D01*
X13141071Y-17682214D01*
X13341071Y-17382214D02*
X13369643Y-17382214D01*
X13398214Y-17396500D01*
X13412500Y-17410786D01*
X13426786Y-17439357D01*
X13441071Y-17496500D01*
X13441071Y-17567929D01*
X13426786Y-17625072D01*
X13412500Y-17653643D01*
X13398214Y-17667929D01*
X13369643Y-17682214D01*
X13341071Y-17682214D01*
X13312500Y-17667929D01*
X13298214Y-17653643D01*
X13283928Y-17625072D01*
X13269643Y-17567929D01*
X13269643Y-17496500D01*
X13283928Y-17439357D01*
X13298214Y-17410786D01*
X13312500Y-17396500D01*
X13341071Y-17382214D01*
X13541071Y-17382214D02*
X13726786Y-17382214D01*
X13626786Y-17496500D01*
X13669643Y-17496500D01*
X13698214Y-17510786D01*
X13712500Y-17525072D01*
X13726786Y-17553643D01*
X13726786Y-17625072D01*
X13712500Y-17653643D01*
X13698214Y-17667929D01*
X13669643Y-17682214D01*
X13583928Y-17682214D01*
X13555357Y-17667929D01*
X13541071Y-17653643D01*
X13869643Y-17682214D02*
X13926786Y-17682214D01*
X13955357Y-17667929D01*
X13969643Y-17653643D01*
X13998214Y-17610786D01*
X14012500Y-17553643D01*
X14012500Y-17439357D01*
X13998214Y-17410786D01*
X13983928Y-17396500D01*
X13955357Y-17382214D01*
X13898214Y-17382214D01*
X13869643Y-17396500D01*
X13855357Y-17410786D01*
X13841071Y-17439357D01*
X13841071Y-17510786D01*
X13855357Y-17539357D01*
X13869643Y-17553643D01*
X13898214Y-17567929D01*
X13955357Y-17567929D01*
X13983928Y-17553643D01*
X13998214Y-17539357D01*
X14012500Y-17510786D01*
X14126786Y-17382214D02*
X14126786Y-17439357D01*
X14241071Y-17382214D02*
X14241071Y-17439357D01*
X14683928Y-17796500D02*
X14669643Y-17782214D01*
X14641071Y-17739357D01*
X14626786Y-17710786D01*
X14612500Y-17667929D01*
X14598214Y-17596500D01*
X14598214Y-17539357D01*
X14612500Y-17467929D01*
X14626786Y-17425072D01*
X14641071Y-17396500D01*
X14669643Y-17353643D01*
X14683928Y-17339357D01*
X14955357Y-17682214D02*
X14783928Y-17682214D01*
X14869643Y-17682214D02*
X14869643Y-17382214D01*
X14841071Y-17425072D01*
X14812500Y-17453643D01*
X14783928Y-17467929D01*
X15212500Y-17482214D02*
X15212500Y-17682214D01*
X15141071Y-17367929D02*
X15069643Y-17582214D01*
X15255357Y-17582214D01*
X15355357Y-17410786D02*
X15369643Y-17396500D01*
X15398214Y-17382214D01*
X15469643Y-17382214D01*
X15498214Y-17396500D01*
X15512500Y-17410786D01*
X15526786Y-17439357D01*
X15526786Y-17467929D01*
X15512500Y-17510786D01*
X15341071Y-17682214D01*
X15526786Y-17682214D01*
X15883928Y-17682214D02*
X15883928Y-17382214D01*
X16012500Y-17682214D02*
X16012500Y-17525072D01*
X15998214Y-17496500D01*
X15969643Y-17482214D01*
X15926786Y-17482214D01*
X15898214Y-17496500D01*
X15883928Y-17510786D01*
X16198214Y-17682214D02*
X16169643Y-17667929D01*
X16155357Y-17653643D01*
X16141071Y-17625072D01*
X16141071Y-17539357D01*
X16155357Y-17510786D01*
X16169643Y-17496500D01*
X16198214Y-17482214D01*
X16241071Y-17482214D01*
X16269643Y-17496500D01*
X16283928Y-17510786D01*
X16298214Y-17539357D01*
X16298214Y-17625072D01*
X16283928Y-17653643D01*
X16269643Y-17667929D01*
X16241071Y-17682214D01*
X16198214Y-17682214D01*
X16469643Y-17682214D02*
X16441071Y-17667929D01*
X16426786Y-17639357D01*
X16426786Y-17382214D01*
X16698214Y-17667929D02*
X16669643Y-17682214D01*
X16612500Y-17682214D01*
X16583928Y-17667929D01*
X16569643Y-17639357D01*
X16569643Y-17525072D01*
X16583928Y-17496500D01*
X16612500Y-17482214D01*
X16669643Y-17482214D01*
X16698214Y-17496500D01*
X16712500Y-17525072D01*
X16712500Y-17553643D01*
X16569643Y-17582214D01*
X16826786Y-17667929D02*
X16855357Y-17682214D01*
X16912500Y-17682214D01*
X16941071Y-17667929D01*
X16955357Y-17639357D01*
X16955357Y-17625072D01*
X16941071Y-17596500D01*
X16912500Y-17582214D01*
X16869643Y-17582214D01*
X16841071Y-17567929D01*
X16826786Y-17539357D01*
X16826786Y-17525072D01*
X16841071Y-17496500D01*
X16869643Y-17482214D01*
X16912500Y-17482214D01*
X16941071Y-17496500D01*
X17055357Y-17796500D02*
X17069643Y-17782214D01*
X17098214Y-17739357D01*
X17112500Y-17710786D01*
X17126786Y-17667929D01*
X17141071Y-17596500D01*
X17141071Y-17539357D01*
X17126786Y-17467929D01*
X17112500Y-17425072D01*
X17098214Y-17396500D01*
X17069643Y-17353643D01*
X17055357Y-17339357D01*
X9847500Y-17867500D02*
X9997500Y-18017500D01*
X9997500Y-17867500D02*
X9847500Y-18017500D01*
X9997500Y-17942500D02*
G75*
G03*
X9997500Y-17942500I-75000J0D01*
G01*
X10441071Y-18078214D02*
X10269643Y-18078214D01*
X10355357Y-18078214D02*
X10355357Y-17778214D01*
X10326786Y-17821072D01*
X10298214Y-17849643D01*
X10269643Y-17863929D01*
X10569643Y-18049643D02*
X10583928Y-18063929D01*
X10569643Y-18078214D01*
X10555357Y-18063929D01*
X10569643Y-18049643D01*
X10569643Y-18078214D01*
X10855357Y-17778214D02*
X10712500Y-17778214D01*
X10698214Y-17921072D01*
X10712500Y-17906786D01*
X10741071Y-17892500D01*
X10812500Y-17892500D01*
X10841071Y-17906786D01*
X10855357Y-17921072D01*
X10869643Y-17949643D01*
X10869643Y-18021072D01*
X10855357Y-18049643D01*
X10841071Y-18063929D01*
X10812500Y-18078214D01*
X10741071Y-18078214D01*
X10712500Y-18063929D01*
X10698214Y-18049643D01*
X11055357Y-17778214D02*
X11083928Y-17778214D01*
X11112500Y-17792500D01*
X11126786Y-17806786D01*
X11141071Y-17835357D01*
X11155357Y-17892500D01*
X11155357Y-17963929D01*
X11141071Y-18021072D01*
X11126786Y-18049643D01*
X11112500Y-18063929D01*
X11083928Y-18078214D01*
X11055357Y-18078214D01*
X11026786Y-18063929D01*
X11012500Y-18049643D01*
X10998214Y-18021072D01*
X10983928Y-17963929D01*
X10983928Y-17892500D01*
X10998214Y-17835357D01*
X11012500Y-17806786D01*
X11026786Y-17792500D01*
X11055357Y-17778214D01*
X11283928Y-18078214D02*
X11283928Y-17878214D01*
X11283928Y-17906786D02*
X11298214Y-17892500D01*
X11326786Y-17878214D01*
X11369643Y-17878214D01*
X11398214Y-17892500D01*
X11412500Y-17921072D01*
X11412500Y-18078214D01*
X11412500Y-17921072D02*
X11426786Y-17892500D01*
X11455357Y-17878214D01*
X11498214Y-17878214D01*
X11526786Y-17892500D01*
X11541071Y-17921072D01*
X11541071Y-18078214D01*
X11683928Y-18078214D02*
X11683928Y-17878214D01*
X11683928Y-17906786D02*
X11698214Y-17892500D01*
X11726786Y-17878214D01*
X11769643Y-17878214D01*
X11798214Y-17892500D01*
X11812500Y-17921072D01*
X11812500Y-18078214D01*
X11812500Y-17921072D02*
X11826786Y-17892500D01*
X11855357Y-17878214D01*
X11898214Y-17878214D01*
X11926786Y-17892500D01*
X11941071Y-17921072D01*
X11941071Y-18078214D01*
X12526786Y-17763929D02*
X12269643Y-18149643D01*
X12912500Y-17778214D02*
X12941071Y-17778214D01*
X12969643Y-17792500D01*
X12983928Y-17806786D01*
X12998214Y-17835357D01*
X13012500Y-17892500D01*
X13012500Y-17963929D01*
X12998214Y-18021072D01*
X12983928Y-18049643D01*
X12969643Y-18063929D01*
X12941071Y-18078214D01*
X12912500Y-18078214D01*
X12883928Y-18063929D01*
X12869643Y-18049643D01*
X12855357Y-18021072D01*
X12841071Y-17963929D01*
X12841071Y-17892500D01*
X12855357Y-17835357D01*
X12869643Y-17806786D01*
X12883928Y-17792500D01*
X12912500Y-17778214D01*
X13141071Y-18049643D02*
X13155357Y-18063929D01*
X13141071Y-18078214D01*
X13126786Y-18063929D01*
X13141071Y-18049643D01*
X13141071Y-18078214D01*
X13341071Y-17778214D02*
X13369643Y-17778214D01*
X13398214Y-17792500D01*
X13412500Y-17806786D01*
X13426786Y-17835357D01*
X13441071Y-17892500D01*
X13441071Y-17963929D01*
X13426786Y-18021072D01*
X13412500Y-18049643D01*
X13398214Y-18063929D01*
X13369643Y-18078214D01*
X13341071Y-18078214D01*
X13312500Y-18063929D01*
X13298214Y-18049643D01*
X13283928Y-18021072D01*
X13269643Y-17963929D01*
X13269643Y-17892500D01*
X13283928Y-17835357D01*
X13298214Y-17806786D01*
X13312500Y-17792500D01*
X13341071Y-17778214D01*
X13712500Y-17778214D02*
X13569643Y-17778214D01*
X13555357Y-17921072D01*
X13569643Y-17906786D01*
X13598214Y-17892500D01*
X13669643Y-17892500D01*
X13698214Y-17906786D01*
X13712500Y-17921072D01*
X13726786Y-17949643D01*
X13726786Y-18021072D01*
X13712500Y-18049643D01*
X13698214Y-18063929D01*
X13669643Y-18078214D01*
X13598214Y-18078214D01*
X13569643Y-18063929D01*
X13555357Y-18049643D01*
X13869643Y-18078214D02*
X13926786Y-18078214D01*
X13955357Y-18063929D01*
X13969643Y-18049643D01*
X13998214Y-18006786D01*
X14012500Y-17949643D01*
X14012500Y-17835357D01*
X13998214Y-17806786D01*
X13983928Y-17792500D01*
X13955357Y-17778214D01*
X13898214Y-17778214D01*
X13869643Y-17792500D01*
X13855357Y-17806786D01*
X13841071Y-17835357D01*
X13841071Y-17906786D01*
X13855357Y-17935357D01*
X13869643Y-17949643D01*
X13898214Y-17963929D01*
X13955357Y-17963929D01*
X13983928Y-17949643D01*
X13998214Y-17935357D01*
X14012500Y-17906786D01*
X14126786Y-17778214D02*
X14126786Y-17835357D01*
X14241071Y-17778214D02*
X14241071Y-17835357D01*
X14683928Y-18192500D02*
X14669643Y-18178214D01*
X14641071Y-18135357D01*
X14626786Y-18106786D01*
X14612500Y-18063929D01*
X14598214Y-17992500D01*
X14598214Y-17935357D01*
X14612500Y-17863929D01*
X14626786Y-17821072D01*
X14641071Y-17792500D01*
X14669643Y-17749643D01*
X14683928Y-17735357D01*
X14855357Y-17778214D02*
X14883928Y-17778214D01*
X14912500Y-17792500D01*
X14926786Y-17806786D01*
X14941071Y-17835357D01*
X14955357Y-17892500D01*
X14955357Y-17963929D01*
X14941071Y-18021072D01*
X14926786Y-18049643D01*
X14912500Y-18063929D01*
X14883928Y-18078214D01*
X14855357Y-18078214D01*
X14826786Y-18063929D01*
X14812500Y-18049643D01*
X14798214Y-18021072D01*
X14783928Y-17963929D01*
X14783928Y-17892500D01*
X14798214Y-17835357D01*
X14812500Y-17806786D01*
X14826786Y-17792500D01*
X14855357Y-17778214D01*
X15312500Y-18078214D02*
X15312500Y-17778214D01*
X15441071Y-18078214D02*
X15441071Y-17921072D01*
X15426786Y-17892500D01*
X15398214Y-17878214D01*
X15355357Y-17878214D01*
X15326786Y-17892500D01*
X15312500Y-17906786D01*
X15626786Y-18078214D02*
X15598214Y-18063929D01*
X15583928Y-18049643D01*
X15569643Y-18021072D01*
X15569643Y-17935357D01*
X15583928Y-17906786D01*
X15598214Y-17892500D01*
X15626786Y-17878214D01*
X15669643Y-17878214D01*
X15698214Y-17892500D01*
X15712500Y-17906786D01*
X15726786Y-17935357D01*
X15726786Y-18021072D01*
X15712500Y-18049643D01*
X15698214Y-18063929D01*
X15669643Y-18078214D01*
X15626786Y-18078214D01*
X15898214Y-18078214D02*
X15869643Y-18063929D01*
X15855357Y-18035357D01*
X15855357Y-17778214D01*
X16126786Y-18063929D02*
X16098214Y-18078214D01*
X16041071Y-18078214D01*
X16012500Y-18063929D01*
X15998214Y-18035357D01*
X15998214Y-17921072D01*
X16012500Y-17892500D01*
X16041071Y-17878214D01*
X16098214Y-17878214D01*
X16126786Y-17892500D01*
X16141071Y-17921072D01*
X16141071Y-17949643D01*
X15998214Y-17978214D01*
X16255357Y-18063929D02*
X16283928Y-18078214D01*
X16341071Y-18078214D01*
X16369643Y-18063929D01*
X16383928Y-18035357D01*
X16383928Y-18021072D01*
X16369643Y-17992500D01*
X16341071Y-17978214D01*
X16298214Y-17978214D01*
X16269643Y-17963929D01*
X16255357Y-17935357D01*
X16255357Y-17921072D01*
X16269643Y-17892500D01*
X16298214Y-17878214D01*
X16341071Y-17878214D01*
X16369643Y-17892500D01*
X16741071Y-17963929D02*
X16969643Y-17963929D01*
X16855357Y-18078214D02*
X16855357Y-17849643D01*
X17383928Y-17906786D02*
X17355357Y-17892500D01*
X17341071Y-17878214D01*
X17326786Y-17849643D01*
X17326786Y-17835357D01*
X17341071Y-17806786D01*
X17355357Y-17792500D01*
X17383928Y-17778214D01*
X17441071Y-17778214D01*
X17469643Y-17792500D01*
X17483928Y-17806786D01*
X17498214Y-17835357D01*
X17498214Y-17849643D01*
X17483928Y-17878214D01*
X17469643Y-17892500D01*
X17441071Y-17906786D01*
X17383928Y-17906786D01*
X17355357Y-17921072D01*
X17341071Y-17935357D01*
X17326786Y-17963929D01*
X17326786Y-18021072D01*
X17341071Y-18049643D01*
X17355357Y-18063929D01*
X17383928Y-18078214D01*
X17441071Y-18078214D01*
X17469643Y-18063929D01*
X17483928Y-18049643D01*
X17498214Y-18021072D01*
X17498214Y-17963929D01*
X17483928Y-17935357D01*
X17469643Y-17921072D01*
X17441071Y-17906786D01*
X17841071Y-18063929D02*
X17869643Y-18078214D01*
X17926786Y-18078214D01*
X17955357Y-18063929D01*
X17969643Y-18035357D01*
X17969643Y-18021072D01*
X17955357Y-17992500D01*
X17926786Y-17978214D01*
X17883928Y-17978214D01*
X17855357Y-17963929D01*
X17841071Y-17935357D01*
X17841071Y-17921072D01*
X17855357Y-17892500D01*
X17883928Y-17878214D01*
X17926786Y-17878214D01*
X17955357Y-17892500D01*
X18141071Y-18078214D02*
X18112500Y-18063929D01*
X18098214Y-18035357D01*
X18098214Y-17778214D01*
X18298214Y-18078214D02*
X18269643Y-18063929D01*
X18255357Y-18049643D01*
X18241071Y-18021072D01*
X18241071Y-17935357D01*
X18255357Y-17906786D01*
X18269643Y-17892500D01*
X18298214Y-17878214D01*
X18341071Y-17878214D01*
X18369643Y-17892500D01*
X18383928Y-17906786D01*
X18398214Y-17935357D01*
X18398214Y-18021072D01*
X18383928Y-18049643D01*
X18369643Y-18063929D01*
X18341071Y-18078214D01*
X18298214Y-18078214D01*
X18483928Y-17878214D02*
X18598214Y-17878214D01*
X18526786Y-17778214D02*
X18526786Y-18035357D01*
X18541071Y-18063929D01*
X18569643Y-18078214D01*
X18598214Y-18078214D01*
X18683928Y-18063929D02*
X18712500Y-18078214D01*
X18769643Y-18078214D01*
X18798214Y-18063929D01*
X18812500Y-18035357D01*
X18812500Y-18021072D01*
X18798214Y-17992500D01*
X18769643Y-17978214D01*
X18726786Y-17978214D01*
X18698214Y-17963929D01*
X18683928Y-17935357D01*
X18683928Y-17921072D01*
X18698214Y-17892500D01*
X18726786Y-17878214D01*
X18769643Y-17878214D01*
X18798214Y-17892500D01*
X18912500Y-18192500D02*
X18926786Y-18178214D01*
X18955357Y-18135357D01*
X18969643Y-18106786D01*
X18983928Y-18063929D01*
X18998214Y-17992500D01*
X18998214Y-17935357D01*
X18983928Y-17863929D01*
X18969643Y-17821072D01*
X18955357Y-17792500D01*
X18926786Y-17749643D01*
X18912500Y-17735357D01*
X9732500Y-18206000D02*
X9997500Y-18471000D01*
X9997500Y-18206000D02*
X9732500Y-18471000D01*
X9865000Y-18206000D02*
X9865000Y-18471000D01*
X9732500Y-18338500D02*
X9997500Y-18338500D01*
X10269643Y-18202786D02*
X10283928Y-18188500D01*
X10312500Y-18174214D01*
X10383928Y-18174214D01*
X10412500Y-18188500D01*
X10426786Y-18202786D01*
X10441071Y-18231357D01*
X10441071Y-18259929D01*
X10426786Y-18302786D01*
X10255357Y-18474214D01*
X10441071Y-18474214D01*
X10569643Y-18445643D02*
X10583928Y-18459929D01*
X10569643Y-18474214D01*
X10555357Y-18459929D01*
X10569643Y-18445643D01*
X10569643Y-18474214D01*
X10841071Y-18174214D02*
X10783928Y-18174214D01*
X10755357Y-18188500D01*
X10741071Y-18202786D01*
X10712500Y-18245643D01*
X10698214Y-18302786D01*
X10698214Y-18417072D01*
X10712500Y-18445643D01*
X10726786Y-18459929D01*
X10755357Y-18474214D01*
X10812500Y-18474214D01*
X10841071Y-18459929D01*
X10855357Y-18445643D01*
X10869643Y-18417072D01*
X10869643Y-18345643D01*
X10855357Y-18317072D01*
X10841071Y-18302786D01*
X10812500Y-18288500D01*
X10755357Y-18288500D01*
X10726786Y-18302786D01*
X10712500Y-18317072D01*
X10698214Y-18345643D01*
X11141071Y-18174214D02*
X10998214Y-18174214D01*
X10983928Y-18317072D01*
X10998214Y-18302786D01*
X11026786Y-18288500D01*
X11098214Y-18288500D01*
X11126786Y-18302786D01*
X11141071Y-18317072D01*
X11155357Y-18345643D01*
X11155357Y-18417072D01*
X11141071Y-18445643D01*
X11126786Y-18459929D01*
X11098214Y-18474214D01*
X11026786Y-18474214D01*
X10998214Y-18459929D01*
X10983928Y-18445643D01*
X11283928Y-18474214D02*
X11283928Y-18274214D01*
X11283928Y-18302786D02*
X11298214Y-18288500D01*
X11326786Y-18274214D01*
X11369643Y-18274214D01*
X11398214Y-18288500D01*
X11412500Y-18317072D01*
X11412500Y-18474214D01*
X11412500Y-18317072D02*
X11426786Y-18288500D01*
X11455357Y-18274214D01*
X11498214Y-18274214D01*
X11526786Y-18288500D01*
X11541071Y-18317072D01*
X11541071Y-18474214D01*
X11683928Y-18474214D02*
X11683928Y-18274214D01*
X11683928Y-18302786D02*
X11698214Y-18288500D01*
X11726786Y-18274214D01*
X11769643Y-18274214D01*
X11798214Y-18288500D01*
X11812500Y-18317072D01*
X11812500Y-18474214D01*
X11812500Y-18317072D02*
X11826786Y-18288500D01*
X11855357Y-18274214D01*
X11898214Y-18274214D01*
X11926786Y-18288500D01*
X11941071Y-18317072D01*
X11941071Y-18474214D01*
X12526786Y-18159929D02*
X12269643Y-18545643D01*
X12912500Y-18174214D02*
X12941071Y-18174214D01*
X12969643Y-18188500D01*
X12983928Y-18202786D01*
X12998214Y-18231357D01*
X13012500Y-18288500D01*
X13012500Y-18359929D01*
X12998214Y-18417072D01*
X12983928Y-18445643D01*
X12969643Y-18459929D01*
X12941071Y-18474214D01*
X12912500Y-18474214D01*
X12883928Y-18459929D01*
X12869643Y-18445643D01*
X12855357Y-18417072D01*
X12841071Y-18359929D01*
X12841071Y-18288500D01*
X12855357Y-18231357D01*
X12869643Y-18202786D01*
X12883928Y-18188500D01*
X12912500Y-18174214D01*
X13141071Y-18445643D02*
X13155357Y-18459929D01*
X13141071Y-18474214D01*
X13126786Y-18459929D01*
X13141071Y-18445643D01*
X13141071Y-18474214D01*
X13441071Y-18474214D02*
X13269643Y-18474214D01*
X13355357Y-18474214D02*
X13355357Y-18174214D01*
X13326786Y-18217072D01*
X13298214Y-18245643D01*
X13269643Y-18259929D01*
X13626786Y-18174214D02*
X13655357Y-18174214D01*
X13683928Y-18188500D01*
X13698214Y-18202786D01*
X13712500Y-18231357D01*
X13726786Y-18288500D01*
X13726786Y-18359929D01*
X13712500Y-18417072D01*
X13698214Y-18445643D01*
X13683928Y-18459929D01*
X13655357Y-18474214D01*
X13626786Y-18474214D01*
X13598214Y-18459929D01*
X13583928Y-18445643D01*
X13569643Y-18417072D01*
X13555357Y-18359929D01*
X13555357Y-18288500D01*
X13569643Y-18231357D01*
X13583928Y-18202786D01*
X13598214Y-18188500D01*
X13626786Y-18174214D01*
X13983928Y-18274214D02*
X13983928Y-18474214D01*
X13912500Y-18159929D02*
X13841071Y-18374214D01*
X14026786Y-18374214D01*
X14126786Y-18174214D02*
X14126786Y-18231357D01*
X14241071Y-18174214D02*
X14241071Y-18231357D01*
X14683928Y-18588500D02*
X14669643Y-18574214D01*
X14641071Y-18531357D01*
X14626786Y-18502786D01*
X14612500Y-18459929D01*
X14598214Y-18388500D01*
X14598214Y-18331357D01*
X14612500Y-18259929D01*
X14626786Y-18217072D01*
X14641071Y-18188500D01*
X14669643Y-18145643D01*
X14683928Y-18131357D01*
X14769643Y-18174214D02*
X14955357Y-18174214D01*
X14855357Y-18288500D01*
X14898214Y-18288500D01*
X14926786Y-18302786D01*
X14941071Y-18317072D01*
X14955357Y-18345643D01*
X14955357Y-18417072D01*
X14941071Y-18445643D01*
X14926786Y-18459929D01*
X14898214Y-18474214D01*
X14812500Y-18474214D01*
X14783928Y-18459929D01*
X14769643Y-18445643D01*
X15312500Y-18474214D02*
X15312500Y-18174214D01*
X15441071Y-18474214D02*
X15441071Y-18317072D01*
X15426786Y-18288500D01*
X15398214Y-18274214D01*
X15355357Y-18274214D01*
X15326786Y-18288500D01*
X15312500Y-18302786D01*
X15626786Y-18474214D02*
X15598214Y-18459929D01*
X15583928Y-18445643D01*
X15569643Y-18417072D01*
X15569643Y-18331357D01*
X15583928Y-18302786D01*
X15598214Y-18288500D01*
X15626786Y-18274214D01*
X15669643Y-18274214D01*
X15698214Y-18288500D01*
X15712500Y-18302786D01*
X15726786Y-18331357D01*
X15726786Y-18417072D01*
X15712500Y-18445643D01*
X15698214Y-18459929D01*
X15669643Y-18474214D01*
X15626786Y-18474214D01*
X15898214Y-18474214D02*
X15869643Y-18459929D01*
X15855357Y-18431357D01*
X15855357Y-18174214D01*
X16126786Y-18459929D02*
X16098214Y-18474214D01*
X16041071Y-18474214D01*
X16012500Y-18459929D01*
X15998214Y-18431357D01*
X15998214Y-18317072D01*
X16012500Y-18288500D01*
X16041071Y-18274214D01*
X16098214Y-18274214D01*
X16126786Y-18288500D01*
X16141071Y-18317072D01*
X16141071Y-18345643D01*
X15998214Y-18374214D01*
X16255357Y-18459929D02*
X16283928Y-18474214D01*
X16341071Y-18474214D01*
X16369643Y-18459929D01*
X16383928Y-18431357D01*
X16383928Y-18417072D01*
X16369643Y-18388500D01*
X16341071Y-18374214D01*
X16298214Y-18374214D01*
X16269643Y-18359929D01*
X16255357Y-18331357D01*
X16255357Y-18317072D01*
X16269643Y-18288500D01*
X16298214Y-18274214D01*
X16341071Y-18274214D01*
X16369643Y-18288500D01*
X16483928Y-18588500D02*
X16498214Y-18574214D01*
X16526786Y-18531357D01*
X16541071Y-18502786D01*
X16555357Y-18459929D01*
X16569643Y-18388500D01*
X16569643Y-18331357D01*
X16555357Y-18259929D01*
X16541071Y-18217072D01*
X16526786Y-18188500D01*
X16498214Y-18145643D01*
X16483928Y-18131357D01*
M02*
