G04 #@! TF.GenerationSoftware,KiCad,Pcbnew,(5.1.9)-1*
G04 #@! TF.CreationDate,2021-05-20T23:06:16+02:00*
G04 #@! TF.ProjectId,KicadJE_OLED_Board,4b696361-644a-4455-9f4f-4c45445f426f,Rev A*
G04 #@! TF.SameCoordinates,Original*
G04 #@! TF.FileFunction,Profile,NP*
%FSLAX46Y46*%
G04 Gerber Fmt 4.6, Leading zero omitted, Abs format (unit mm)*
G04 Created by KiCad (PCBNEW (5.1.9)-1) date 2021-05-20 23:06:16*
%MOMM*%
%LPD*%
G01*
G04 APERTURE LIST*
G04 #@! TA.AperFunction,Profile*
%ADD10C,0.500000*%
G04 #@! TD*
G04 #@! TA.AperFunction,Profile*
%ADD11C,0.050000*%
G04 #@! TD*
G04 APERTURE END LIST*
D10*
X141000000Y-145000000D02*
X141000000Y-109500000D01*
X142000000Y-108500000D02*
X142000000Y-109500000D01*
X141000000Y-109500000D02*
X142000000Y-109500000D01*
X141000000Y-108500000D02*
X142000000Y-108500000D01*
X140000000Y-145000000D02*
X141000000Y-145000000D01*
X140000000Y-54000000D02*
X140000000Y-145000000D01*
X141000000Y-54000000D02*
X140000000Y-54000000D01*
X141000000Y-108500000D02*
X141000000Y-54000000D01*
X159000000Y-145000000D02*
X160000000Y-145000000D01*
X159000000Y-54000000D02*
X159000000Y-145000000D01*
X160000000Y-54000000D02*
X159000000Y-54000000D01*
X160000000Y-145000000D02*
X160000000Y-54000000D01*
D11*
X200000000Y-50000000D02*
X100000000Y-50000000D01*
X200000000Y-150000000D02*
X100000000Y-150000000D01*
X100000000Y-150000000D02*
X100000000Y-50000000D01*
X200000000Y-150000000D02*
X200000000Y-50000000D01*
X237100000Y-76300000D02*
X237100000Y-61300000D01*
X264100000Y-76300000D02*
X237100000Y-76300000D01*
X264100000Y-61300000D02*
X264100000Y-76300000D01*
X237100000Y-61300000D02*
X264100000Y-61300000D01*
X270600000Y-35800000D02*
X270600000Y-163800000D01*
X230600000Y-35800000D02*
X270600000Y-35800000D01*
X270600000Y-163800000D02*
X230600000Y-163800000D01*
X230600000Y-163800000D02*
X230600000Y-35800000D01*
M02*
