%FSLAX45Y45*%
G04 Gerber Fmt 4.5, Leading zero omitted, Abs format (unit mm)*
G04 Created by KiCad (PCBNEW (5.1.9)-1) date 2021-05-20 23:10:11*
%MOMM*%
%LPD*%
G01*
G04 APERTURE LIST*
%TA.AperFunction,Profile*%
%ADD10C,0.500000*%
%TD*%
%TA.AperFunction,Profile*%
%ADD11C,0.050000*%
%TD*%
%ADD12C,0.200000*%
%ADD13C,0.300000*%
G04 APERTURE END LIST*
D10*
X14100000Y-14500000D02*
X14100000Y-10950000D01*
X14200000Y-10850000D02*
X14200000Y-10950000D01*
X14100000Y-10950000D02*
X14200000Y-10950000D01*
X14100000Y-10850000D02*
X14200000Y-10850000D01*
X14000000Y-14500000D02*
X14100000Y-14500000D01*
X14000000Y-5400000D02*
X14000000Y-14500000D01*
X14100000Y-5400000D02*
X14000000Y-5400000D01*
X14100000Y-10850000D02*
X14100000Y-5400000D01*
X15900000Y-14500000D02*
X16000000Y-14500000D01*
X15900000Y-5400000D02*
X15900000Y-14500000D01*
X16000000Y-5400000D02*
X15900000Y-5400000D01*
X16000000Y-14500000D02*
X16000000Y-5400000D01*
D11*
X20000000Y-5000000D02*
X10000000Y-5000000D01*
X20000000Y-15000000D02*
X10000000Y-15000000D01*
X10000000Y-15000000D02*
X10000000Y-5000000D01*
X20000000Y-15000000D02*
X20000000Y-5000000D01*
D12*
D13*
X10283928Y-15468214D02*
X10283928Y-15168214D01*
X10355357Y-15168214D01*
X10398214Y-15182500D01*
X10426786Y-15211071D01*
X10441071Y-15239643D01*
X10455357Y-15296786D01*
X10455357Y-15339643D01*
X10441071Y-15396786D01*
X10426786Y-15425357D01*
X10398214Y-15453929D01*
X10355357Y-15468214D01*
X10283928Y-15468214D01*
X10583928Y-15468214D02*
X10583928Y-15268214D01*
X10583928Y-15325357D02*
X10598214Y-15296786D01*
X10612500Y-15282500D01*
X10641071Y-15268214D01*
X10669643Y-15268214D01*
X10769643Y-15468214D02*
X10769643Y-15268214D01*
X10769643Y-15168214D02*
X10755357Y-15182500D01*
X10769643Y-15196786D01*
X10783928Y-15182500D01*
X10769643Y-15168214D01*
X10769643Y-15196786D01*
X10955357Y-15468214D02*
X10926786Y-15453929D01*
X10912500Y-15425357D01*
X10912500Y-15168214D01*
X11112500Y-15468214D02*
X11083928Y-15453929D01*
X11069643Y-15425357D01*
X11069643Y-15168214D01*
X11455357Y-15468214D02*
X11455357Y-15168214D01*
X11555357Y-15382500D01*
X11655357Y-15168214D01*
X11655357Y-15468214D01*
X11926786Y-15468214D02*
X11926786Y-15311071D01*
X11912500Y-15282500D01*
X11883928Y-15268214D01*
X11826786Y-15268214D01*
X11798214Y-15282500D01*
X11926786Y-15453929D02*
X11898214Y-15468214D01*
X11826786Y-15468214D01*
X11798214Y-15453929D01*
X11783928Y-15425357D01*
X11783928Y-15396786D01*
X11798214Y-15368214D01*
X11826786Y-15353929D01*
X11898214Y-15353929D01*
X11926786Y-15339643D01*
X12069643Y-15268214D02*
X12069643Y-15568214D01*
X12069643Y-15282500D02*
X12098214Y-15268214D01*
X12155357Y-15268214D01*
X12183928Y-15282500D01*
X12198214Y-15296786D01*
X12212500Y-15325357D01*
X12212500Y-15411071D01*
X12198214Y-15439643D01*
X12183928Y-15453929D01*
X12155357Y-15468214D01*
X12098214Y-15468214D01*
X12069643Y-15453929D01*
X12341071Y-15439643D02*
X12355357Y-15453929D01*
X12341071Y-15468214D01*
X12326786Y-15453929D01*
X12341071Y-15439643D01*
X12341071Y-15468214D01*
X12341071Y-15282500D02*
X12355357Y-15296786D01*
X12341071Y-15311071D01*
X12326786Y-15296786D01*
X12341071Y-15282500D01*
X12341071Y-15311071D01*
M02*
