M48
; DRILL file {KiCad (5.1.9)-1} date 05/20/21 23:10:11
; FORMAT={-:-/ absolute / metric / decimal}
; #@! TF.CreationDate,2021-05-20T23:10:11+02:00
; #@! TF.GenerationSoftware,Kicad,Pcbnew,(5.1.9)-1
; #@! TF.FileFunction,Plated,1,2,PTH
FMAT,2
METRIC
T1C0.400
T2C0.500
T3C0.600
T4C0.800
T5C1.000
T6C1.500
T7C2.650
%
G90
G05
T1
X100.525Y-72.25
X100.525Y-74.25
X100.525Y-73.25
X100.675Y-68.798
X101.025Y-68.0
X101.5Y-148.5
X102.675Y-93.25
X102.9Y-77.25
X102.975Y-68.0
X103.0Y-134.0
X103.0Y-139.5
X103.52Y-77.831
X103.55Y-75.72
X104.0Y-72.5
X104.121Y-78.432
X104.155Y-76.345
X104.25Y-104.5
X104.5Y-68.0
X104.5Y-108.0
X104.75Y-75.0
X105.03Y-77.22
X105.25Y-134.5
X105.679Y-93.071
X105.73Y-72.02
X105.75Y-61.75
X105.75Y-127.0
X105.994Y-69.963
X106.0Y-68.25
X106.053Y-69.115
X106.345Y-72.636
X106.55Y-97.25
X106.75Y-66.5
X106.834Y-94.226
X106.98Y-73.27
X107.25Y-82.5
X107.5Y-75.25
X108.0Y-61.075
X108.25Y-108.0
X108.75Y-95.25
X108.75Y-98.75
X109.0Y-117.75
X109.055Y-65.725
X109.254Y-67.748
X109.325Y-72.75
X109.5Y-81.5
X109.537Y-74.767
X109.94Y-68.25
X110.0Y-52.0
X110.0Y-104.5
X110.175Y-72.75
X110.74Y-73.75
X110.75Y-70.0
X111.25Y-95.25
X111.25Y-98.75
X111.25Y-131.0
X111.575Y-62.85
X111.575Y-62.0
X111.694Y-69.869
X112.273Y-63.336
X112.494Y-61.931
X112.892Y-85.892
X113.0Y-70.25
X113.0Y-129.0
X113.5Y-73.0
X113.75Y-86.25
X113.894Y-78.819
X114.0Y-139.5
X114.075Y-76.0
X114.607Y-77.293
X114.75Y-78.5
X115.0Y-56.0
X115.224Y-72.778
X115.4Y-70.175
X115.75Y-80.0
X116.0Y-51.75
X116.099Y-72.704
X116.25Y-70.175
X116.5Y-127.5
X116.5Y-137.5
X116.75Y-56.0
X117.182Y-70.175
X117.3Y-82.7
X118.0Y-64.0
X118.25Y-65.75
X118.558Y-74.322
X118.745Y-97.005
X118.865Y-97.864
X119.0Y-127.75
X119.254Y-94.544
X119.855Y-95.145
X120.3Y-76.8
X120.365Y-97.564
X120.69Y-94.222
X120.723Y-73.277
X121.01Y-95.01
X121.25Y-130.0
X121.25Y-133.0
X121.5Y-62.2
X121.75Y-73.25
X121.792Y-96.475
X122.0Y-148.5
X123.005Y-73.945
X123.919Y-72.91
X124.082Y-75.059
X125.0Y-70.0
X125.1Y-74.0
X125.3Y-92.3
X125.5Y-91.1
X125.5Y-98.3
X125.5Y-103.6
X125.5Y-106.5
X125.5Y-118.0
X125.8Y-93.8
X126.5Y-95.5
X126.75Y-80.0
X128.0Y-92.0
X129.0Y-94.75
X129.25Y-77.5
X130.0Y-103.6
X130.0Y-105.5
X130.25Y-51.75
X130.5Y-99.2
X130.75Y-117.75
X131.3Y-96.6
X132.5Y-86.25
X133.75Y-95.5
X133.922Y-84.078
X135.0Y-100.5
X135.75Y-86.25
X135.75Y-93.5
X136.4Y-106.6
X138.0Y-52.0
X138.0Y-105.75
X138.25Y-133.75
X138.398Y-108.352
X138.5Y-85.5
X138.5Y-100.5
X138.5Y-139.75
X138.5Y-148.5
X139.0Y-107.0
X142.0Y-52.0
X142.75Y-75.0
X145.641Y-70.3
X148.0Y-82.5
X150.0Y-52.0
X150.322Y-119.305
X152.0Y-93.0
X156.0Y-76.5
X156.0Y-89.0
X160.75Y-69.725
X160.75Y-71.194
X160.75Y-66.8
X160.75Y-76.2
X160.825Y-75.0
X161.0Y-73.0
X161.125Y-62.375
X161.3Y-58.7
X161.57Y-66.324
X162.7Y-64.95
X163.011Y-71.283
X163.542Y-72.158
X163.7Y-86.2
X163.7Y-93.3
X164.0Y-132.5
X164.1Y-110.9
X164.1Y-137.9
X164.232Y-72.655
X164.5Y-98.5
X164.6Y-84.0
X164.8Y-62.4
X165.229Y-72.952
X165.3Y-93.3
X165.5Y-74.5
X165.5Y-77.0
X165.839Y-69.2
X165.852Y-66.657
X165.903Y-68.352
X165.936Y-67.503
X165.943Y-70.043
X165.955Y-71.3
X166.85Y-73.0
X167.0Y-60.0
X167.0Y-71.3
X167.0Y-96.0
X167.45Y-129.15
X167.582Y-73.433
X168.688Y-70.875
X168.8Y-73.725
X168.8Y-145.0
X168.9Y-85.75
X168.9Y-135.3
X169.0Y-65.0
X169.0Y-80.6
X169.0Y-112.5
X169.0Y-134.0
X169.2Y-66.1
X169.3Y-61.1
X169.3Y-67.1
X169.5Y-72.225
X169.65Y-69.45
X169.737Y-68.604
X170.35Y-72.198
X170.8Y-51.2
X170.8Y-57.8
X171.0Y-80.6
X171.0Y-85.75
X171.4Y-135.4
X171.5Y-138.0
X171.844Y-79.406
X172.0Y-72.175
X172.4Y-61.1
X172.5Y-51.2
X172.526Y-76.171
X172.6Y-67.5
X172.75Y-76.991
X172.8Y-80.6
X172.925Y-82.25
X173.0Y-105.0
X173.25Y-96.0
X173.3Y-94.0
X173.5Y-58.2
X173.6Y-147.0
X173.7Y-50.525
X174.282Y-69.737
X174.425Y-60.7
X174.55Y-82.25
X175.05Y-93.8
X175.25Y-85.75
X175.4Y-102.7
X175.4Y-106.1
X175.5Y-111.4
X175.6Y-82.9
X175.64Y-79.8
X175.775Y-60.7
X175.9Y-130.1
X176.0Y-63.6
X176.2Y-67.5
X176.3Y-90.8
X176.3Y-117.6
X176.3Y-120.1
X176.3Y-122.1
X176.4Y-93.4
X176.5Y-51.0
X176.5Y-69.45
X176.5Y-112.6
X176.6Y-124.0
X176.6Y-125.9
X177.0Y-57.6
X177.1Y-108.0
X177.25Y-96.0
X177.3Y-104.6
X177.323Y-50.525
X177.45Y-92.0
X177.5Y-61.6
X177.8Y-65.0
X177.919Y-68.356
X178.119Y-71.381
X178.45Y-128.8
X178.5Y-116.25
X178.5Y-125.0
X178.6Y-123.2
X178.6Y-121.0
X178.7Y-118.8
X178.8Y-59.4
X179.0Y-69.775
X179.0Y-85.9
X179.0Y-88.0
X179.341Y-70.553
X179.888Y-90.363
X179.94Y-87.34
X180.4Y-92.0
X180.4Y-132.974
X180.5Y-93.5
X180.774Y-86.494
X180.781Y-74.321
X180.9Y-89.5
X181.0Y-71.75
X181.0Y-105.6
X181.1Y-70.4
X181.15Y-125.0
X181.2Y-121.5
X181.3Y-116.1
X181.3Y-123.2
X181.458Y-63.708
X181.5Y-109.9
X181.5Y-112.6
X181.5Y-118.8
X181.5Y-128.8
X181.6Y-131.7
X181.7Y-108.1
X181.8Y-85.0
X182.0Y-134.6
X182.0Y-149.2
X182.203Y-88.315
X182.5Y-63.75
X183.0Y-98.8
X183.1Y-91.2
X183.1Y-93.3
X183.2Y-108.4
X183.5Y-59.3
X183.7Y-54.0
X184.2Y-134.5
X184.3Y-82.6
X185.1Y-118.8
X185.1Y-122.4
X185.2Y-85.6
X185.315Y-81.905
X185.35Y-93.8
X185.9Y-130.9
X185.985Y-81.235
X186.0Y-70.5
X186.3Y-72.5
X186.6Y-84.562
X186.655Y-83.655
X186.7Y-94.0
X186.735Y-80.485
X187.1Y-95.3
X187.28Y-83.03
X187.5Y-74.7
X187.8Y-79.2
X188.825Y-134.5
X189.9Y-98.9
X190.0Y-80.9
X190.0Y-83.5
X190.2Y-108.5
X190.9Y-145.0
X191.0Y-61.0
X191.0Y-70.5
X191.0Y-74.8
X191.25Y-138.75
X191.3Y-137.4
X191.4Y-112.2
X193.3Y-120.7
X193.4Y-122.8
X193.48Y-118.0
X193.6Y-60.9
X193.6Y-83.4
X194.8Y-88.5
X194.8Y-100.4
X195.1Y-130.3
X195.2Y-132.3
X195.4Y-137.5
X196.1Y-61.0
X196.6Y-120.5
X196.7Y-118.0
X197.0Y-132.3
X197.6Y-52.1
X197.8Y-90.4
X197.9Y-86.4
X198.1Y-108.5
X198.1Y-110.0
X198.2Y-121.3
X198.25Y-72.0
X198.3Y-129.1
X198.4Y-82.25
X198.45Y-117.97
X199.0Y-137.6
X199.0Y-149.0
X199.367Y-119.617
T2
X143.0Y-83.5
X157.5Y-86.5
X177.5Y-130.5
X198.0Y-130.5
T4
X123.0Y-62.12
X123.0Y-67.0
X183.5Y-62.62
X183.5Y-67.5
T5
X102.0Y-52.0
X102.0Y-54.54
X102.0Y-57.08
X104.54Y-52.0
X104.54Y-54.54
X104.54Y-57.08
X107.5Y-88.5
X107.5Y-103.0
X109.46Y-145.0
X110.0Y-88.5
X112.0Y-145.0
X112.5Y-88.5
X112.5Y-103.0
X116.0Y-83.96
X116.0Y-86.5
X116.5Y-78.0
X119.0Y-110.96
X119.0Y-113.5
X119.04Y-78.0
X119.5Y-83.96
X119.5Y-86.5
X120.0Y-135.5
X120.0Y-138.04
X120.0Y-140.58
X120.0Y-143.12
X120.0Y-145.66
X120.0Y-148.2
X121.58Y-78.0
X123.0Y-83.96
X123.0Y-86.5
X124.12Y-78.0
X125.46Y-52.0
X125.46Y-54.54
X125.46Y-57.08
X127.5Y-88.5
X127.5Y-103.0
X128.0Y-52.0
X128.0Y-54.54
X128.0Y-57.08
X128.0Y-62.46
X128.0Y-65.0
X128.0Y-67.54
X128.0Y-70.08
X128.0Y-72.62
X128.46Y-145.0
X130.0Y-88.5
X131.0Y-145.0
X132.5Y-88.5
X132.5Y-103.0
X133.5Y-63.22
X133.5Y-65.76
X133.5Y-68.3
X133.5Y-70.84
X133.5Y-73.38
X133.5Y-75.92
X133.5Y-78.46
X133.5Y-81.0
X136.04Y-63.22
X136.04Y-65.76
X136.04Y-68.3
X136.04Y-70.84
X136.04Y-73.38
X136.04Y-75.92
X136.04Y-78.46
X136.04Y-81.0
X148.0Y-95.635
X148.0Y-98.175
X148.0Y-103.46
X148.0Y-106.0
X149.25Y-59.34
X149.25Y-61.88
X149.25Y-64.42
X149.25Y-66.96
X149.25Y-69.5
X151.79Y-59.34
X151.79Y-61.88
X151.79Y-64.42
X151.79Y-66.96
X151.79Y-69.5
X152.0Y-95.635
X152.0Y-98.175
X152.0Y-103.46
X152.0Y-106.0
X162.0Y-52.0
X162.0Y-54.54
X162.0Y-57.08
X164.54Y-52.0
X164.54Y-54.54
X164.54Y-57.08
X167.5Y-88.5
X167.5Y-103.0
X170.0Y-88.5
X172.5Y-88.5
X172.5Y-103.0
X176.0Y-78.0
X177.0Y-142.2
X177.0Y-144.74
X178.54Y-78.0
X179.0Y-110.96
X179.0Y-113.5
X180.0Y-135.8
X180.0Y-138.34
X180.0Y-140.88
X180.0Y-143.42
X180.0Y-145.96
X180.0Y-148.5
X181.08Y-78.0
X183.0Y-142.2
X183.0Y-144.74
X183.62Y-78.0
X186.46Y-53.75
X186.46Y-56.29
X186.46Y-58.83
X187.5Y-88.5
X187.5Y-103.0
X188.2Y-62.64
X188.2Y-65.18
X188.2Y-67.72
X188.2Y-70.26
X188.2Y-72.8
X189.0Y-53.75
X189.0Y-56.29
X189.0Y-58.83
X190.0Y-88.5
X192.5Y-88.5
X192.5Y-103.0
X193.5Y-63.22
X193.5Y-65.76
X193.5Y-68.3
X193.5Y-70.84
X193.5Y-73.38
X193.5Y-75.92
X193.5Y-78.46
X193.5Y-81.0
X196.04Y-63.22
X196.04Y-65.76
X196.04Y-68.3
X196.04Y-70.84
X196.04Y-73.38
X196.04Y-75.92
X196.04Y-78.46
X196.04Y-81.0
T7
X108.0Y-77.8
X168.6Y-77.8
X192.0Y-54.0
T2
X114.92Y-114.2G85X114.92Y-115.8
G05
X114.92Y-124.2G85X114.92Y-125.8
G05
X114.92Y-144.2G85X114.92Y-145.8
G05
X125.08Y-115.8G85X125.08Y-114.2
G05
X125.08Y-125.8G85X125.08Y-124.2
G05
X125.08Y-145.8G85X125.08Y-144.2
G05
X145.08Y-135.8G85X145.08Y-134.2
G05
X145.08Y-145.8G85X145.08Y-144.2
G05
X145.155Y-115.8G85X145.155Y-114.2
G05
X145.155Y-125.8G85X145.155Y-124.2
G05
X174.92Y-114.2G85X174.92Y-115.8
G05
X174.92Y-124.2G85X174.92Y-125.8
G05
X174.92Y-144.2G85X174.92Y-145.8
G05
X185.08Y-115.8G85X185.08Y-114.2
G05
X185.08Y-125.8G85X185.08Y-124.2
G05
X185.08Y-145.8G85X185.08Y-144.2
G05
T3
X103.52Y-114.6G85X103.52Y-115.4
G05
X103.52Y-124.6G85X103.52Y-125.4
G05
X103.52Y-144.6G85X103.52Y-145.4
G05
X106.62Y-114.3G85X106.62Y-115.7
G05
X106.62Y-124.3G85X106.62Y-125.7
G05
X106.62Y-144.3G85X106.62Y-145.7
G05
X133.38Y-115.7G85X133.38Y-114.3
G05
X133.38Y-125.7G85X133.38Y-124.3
G05
X133.38Y-145.7G85X133.38Y-144.3
G05
X136.48Y-115.4G85X136.48Y-114.6
G05
X136.48Y-125.4G85X136.48Y-124.6
G05
X136.48Y-145.4G85X136.48Y-144.6
G05
X153.38Y-135.7G85X153.38Y-134.3
G05
X153.38Y-145.7G85X153.38Y-144.3
G05
X153.455Y-115.7G85X153.455Y-114.3
G05
X153.455Y-125.7G85X153.455Y-124.3
G05
X156.48Y-135.4G85X156.48Y-134.6
G05
X156.48Y-145.4G85X156.48Y-144.6
G05
X156.555Y-115.4G85X156.555Y-114.6
G05
X156.555Y-125.4G85X156.555Y-124.6
G05
X163.52Y-114.6G85X163.52Y-115.4
G05
X163.52Y-124.6G85X163.52Y-125.4
G05
X163.52Y-144.6G85X163.52Y-145.4
G05
X166.62Y-114.3G85X166.62Y-115.7
G05
X166.62Y-124.3G85X166.62Y-125.7
G05
X166.62Y-144.3G85X166.62Y-145.7
G05
X193.38Y-115.7G85X193.38Y-114.3
G05
X193.38Y-125.7G85X193.38Y-124.3
G05
X193.38Y-145.7G85X193.38Y-144.3
G05
X196.48Y-115.4G85X196.48Y-114.6
G05
X196.48Y-125.4G85X196.48Y-124.6
G05
X196.48Y-145.4G85X196.48Y-144.6
G05
T6
X104.4Y-95.35G85X104.4Y-96.65
G05
X115.6Y-95.35G85X115.6Y-96.65
G05
X124.4Y-95.35G85X124.4Y-96.65
G05
X135.6Y-95.35G85X135.6Y-96.65
G05
X164.4Y-95.35G85X164.4Y-96.65
G05
X175.6Y-95.35G85X175.6Y-96.65
G05
X184.4Y-95.35G85X184.4Y-96.65
G05
X195.6Y-95.35G85X195.6Y-96.65
G05
T0
M30
